<?xml version="1.0" encoding="UTF-8" standalone="no"?>
<!-- Creator: CorelDRAW -->

<svg
   xmlns:dc="http://purl.org/dc/elements/1.1/"
   xmlns:cc="http://creativecommons.org/ns#"
   xmlns:rdf="http://www.w3.org/1999/02/22-rdf-syntax-ns#"
   xmlns:svg="http://www.w3.org/2000/svg"
   xmlns="http://www.w3.org/2000/svg"
   xmlns:sodipodi="http://sodipodi.sourceforge.net/DTD/sodipodi-0.dtd"
   xmlns:inkscape="http://www.inkscape.org/namespaces/inkscape"
   xml:space="preserve"
   width="51.939999"
   height="65"
   shape-rendering="geometricPrecision"
   text-rendering="geometricPrecision"
   image-rendering="optimizeQuality"
   clip-rule="evenodd"
   viewBox="0 0 1465862.1 1834444.4"
   id="svg2"
   sodipodi:version="0.32"
   inkscape:version="0.48.4 r9939"
   sodipodi:docname="Emblem_of_Israel_alternative.svg"
   inkscape:output_extension="org.inkscape.output.svg.inkscape"
   version="1.1"
   style="fill-rule:evenodd"><metadata
     id="metadata53"><rdf:RDF><cc:Work
         rdf:about=""><dc:format>image/svg+xml</dc:format><dc:type
           rdf:resource="http://purl.org/dc/dcmitype/StillImage" /></cc:Work></rdf:RDF></metadata><defs
     id="defs51"><inkscape:perspective
       sodipodi:type="inkscape:persp3d"
       inkscape:vp_x="0 : 256.88977 : 1"
       inkscape:vp_y="0 : 1000 : 0"
       inkscape:vp_z="418.11023 : 256.88977 : 1"
       inkscape:persp3d-origin="209.05511 : 171.25985 : 1"
       id="perspective38" /><inkscape:perspective
       id="perspective2852"
       inkscape:persp3d-origin="0.5 : 0.33333333 : 1"
       inkscape:vp_z="1 : 0.5 : 1"
       inkscape:vp_y="0 : 1000 : 0"
       inkscape:vp_x="0 : 0.5 : 1"
       sodipodi:type="inkscape:persp3d" /></defs><sodipodi:namedview
     inkscape:window-height="968"
     inkscape:window-width="1280"
     inkscape:pageshadow="2"
     inkscape:pageopacity="0.0"
     guidetolerance="10.0"
     gridtolerance="10.0"
     objecttolerance="10.0"
     borderopacity="1.0"
     bordercolor="#666666"
     pagecolor="#ffffff"
     id="base"
     inkscape:zoom="8"
     inkscape:cx="27.961963"
     inkscape:cy="36.720506"
     inkscape:window-x="2025"
     inkscape:window-y="55"
     inkscape:current-layer="svg2"
     showgrid="false"
     inkscape:window-maximized="0"
     fit-margin-top="0"
     fit-margin-left="0"
     fit-margin-right="0"
     fit-margin-bottom="0" /><g
     id="Layer_x0020_1"
     transform="matrix(1,0,0,1.0103424,-258731.25,-12524756)"><metadata
       id="CorelCorpID_0Corel-Layer" /><path
       d="m 1724623,12396545 0,1354201 c 0,0 7715.2,322989 -393106.1,367551 -24247.2,2578 -275540.8,-2578 -339834.49,93914 -64293.71,-96492 -315587.32,-91336 -339834.5,-93914 -400821.3,-44562 -393106.06,-367551 -393106.06,-367551 l 0,-1354201 1465883.75,0 z"
       id="path8"
       style="fill:#428ece;fill-opacity:1;stroke:none"
       inkscape:connector-curvature="0" /><path
       d="m 1694502.3,12440003 0,1291586 c 0,0 7347.7,307889 -375103.8,350243 -22778.1,2578 -262683.3,-2578 -324036.41,89493 -60986.81,-92071 -300891.99,-86915 -324037.73,-89493 -382085.21,-42354 -375103.82,-350243 -375103.82,-350243 l 0,-1291586 1398277.86,0 z"
       id="path10"
       style="fill:#ffffff;stroke:none"
       inkscape:connector-curvature="0" /><polygon
       points="3457000,10431300 8395640,10431300 8395640,9263120 7747900,9263120 7747900,8210910 4113230,8210910 4113230,9263120 3457000,9263120 "
       id="polygon12"
       style="fill:#428ece;fill-opacity:1;stroke:#428ece;stroke-width:272040.40625;stroke-opacity:1"
       transform="matrix(0.12988629,0,0,0.13020414,226345.61,12360499)" /><polygon
       points="7660220,9175440 7660220,8318390 6500520,8318390 6500520,9175440 "
       id="polygon14"
       style="fill:#ffffff"
       transform="matrix(0.12988629,0,0,0.13020414,226345.61,12360499)" /><polygon
       points="8316440,10332300 8316440,9350810 6588200,9350810 6588200,10332300 "
       id="polygon16"
       style="fill:#ffffff"
       transform="matrix(0.12988629,0,0,0.13020414,226345.61,12360499)" /><path
       d="m 1072143,13152515 0,35481 c 0,0 -16899.5,3683 -16899.5,12890 0,8838 0,12522 -6246.2,13994 0,0 -5143.5,3684 -1101.4,12891 0,0 3673.2,5156 3673.2,12521 0,0 12858.7,5156 12858.7,23203 l 8818,0 0,26886 -16533.2,0 c 0,0 -1469.1,2578 -1469.1,6260 0,4050 -3674.4,19151 -1102.7,23202 2571.8,3682 7715.3,8838 10287,12522 2571.8,4050 31596.1,15837 36739.6,74395 1469.1,13994 9184.3,17677 28288,22833 l -265253.81,0 c 16531.93,-5156 34166.59,-8839 35635.61,-22833 5143.49,-58558 34535.46,-70345 36739.63,-74395 2571.75,-3684 7715.25,-8840 10287,-12522 2571.75,-4051 -1102.74,-19152 -1102.74,-23202 0,-3682 -1469.01,-6260 -1469.01,-6260 l -16533.23,0 0,-26886 8817.98,0 c 0,-18047 12858.75,-23203 12858.75,-23203 0,-7365 4040.76,-12521 4040.76,-12521 3674.48,-9207 -1469.02,-12891 -1469.02,-12891 -6246.23,-1472 -6246.23,-5156 -6246.23,-13994 0,-9207 -16531.93,-12890 -16531.93,-12890 l 0,-34799 c -17933.4,-1806 -30860.98,-3503 -30860.98,-3503 -7715.24,1105 -38208.65,-11417 -38208.65,-11417 -8816.68,0 -19103.67,-7734 -19103.67,-7734 l -3306.91,-1474 c -32329.99,0 -26818.92,-14731 -26818.92,-14731 -18369.82,-368 -33065.15,-20256 -33065.15,-20256 -17267.09,-3315 -27921.66,-21728 -27921.66,-21728 -17267.08,-2578 -23145.73,-24308 -23145.73,-24308 -6980.09,-1473 -18369.82,-23201 -18369.82,-23201 -5143.5,735 -16531.93,-18415 -16531.93,-18415 -16533.23,-12890 -23513.31,-39775 -23513.31,-39775 -14695.34,-11417 -19838.84,-40880 -23145.74,-45300 -8449.1,-11785 -11020.85,-20256 -13225.02,-23570 -5878.66,-7734 -5143.5,-34620 -7715.25,-44931 -2571.75,-9576 -1837.89,-7367 -5143.5,-30568 -4042.06,-26886 -5878.65,-47877 -5878.65,-47877 735.16,-18046 0,-37198 0,-37198 0,0 735.16,-13258 735.16,-23570 0,-10312 5143.49,-26886 -5143.5,-42354 -10286.99,-15100 -5143.5,-32040 12858.74,-38301 17267.09,-6261 37105.92,-5156 47025.33,0 10287,5155 15430.49,26148 5143.5,36460 -10286.99,10312 -2204.17,39408 -4408.34,49719 -1837.89,9208 3305.61,37933 3305.61,37933 3674.48,5156 1837.89,11418 5143.49,15468 6246.23,7366 1837.89,13996 1837.89,13996 0,0 -1837.89,10312 -735.15,17678 1469.01,7734 7715.24,16572 7715.24,16572 -1470.31,11786 1101.44,25781 1101.44,25781 0,0 9553.14,21728 15430.49,35724 3674.48,8838 735.16,11416 11022.15,25780 0,0 3674.48,23570 5511.08,26148 0,0 8816.68,15837 16531.92,27254 0,0 10287,9575 16165.65,19519 0,0 17267.08,13994 26083.77,28727 0,0 20206.41,5523 24983.62,17309 1836.6,4788 27186.5,15100 44453.59,29831 2571.74,2210 24247.17,13626 28656.81,13995 0,0 16531.93,4420 23144.44,11049 0,0 30493.4,6261 35636.9,8838 0,0 15144.74,3431 24321.21,4697 509.15,-12039 3600.44,-31581 3600.44,-31581 -920.89,-1293 -1704.1,-4255 -2375.62,-8195 -9827.19,-1188 -14891.46,-2486 -14891.46,-2486 -9919.42,368 -36738.34,-11785 -36738.34,-11785 -25717.48,-2209 -33065.15,-13994 -33065.15,-13994 -17267.08,-2578 -24248.47,-13996 -24248.47,-13996 -7347.67,-1104 -22410.58,-12890 -22410.58,-12890 -9551.84,-1104 -20573.99,-20993 -20573.99,-20993 -2571.75,-1841 -14695.33,-10311 -14695.33,-10311 -13226.33,-6261 -26083.77,-38302 -29390.67,-42722 -8082.83,-11785 -10654.58,-20256 -13226.33,-23570 -5878.65,-7734 -16531.92,-30936 -19103.67,-40880 -2571.75,-9944 -5511.08,-13996 -8817.98,-37197 -4040.76,-26886 -7347.67,-55611 -7347.67,-55611 735.16,-18047 -1101.43,-28359 -1101.43,-28359 0,0 -735.16,-16941 -735.16,-27253 0,-10312 -6246.23,-34620 -16533.23,-50088 -10286.99,-15100 2571.75,-27990 20573.99,-34250 17267.08,-6262 40780.4,-1473 51067.39,3683 9919.42,5155 15062.92,26148 4775.92,36460 -9919.41,10312 -2204.17,39408 -4408.34,49719 -1836.59,9208 -1836.59,36461 -1836.59,36461 4040.76,5156 2571.75,6628 2571.75,11784 0,5156 3305.6,15100 3305.6,15100 0,0 1837.9,10312 367.58,18046 -1469.01,9208 2571.75,16574 2571.75,16574 10287,2578 7715.25,34619 7715.25,34619 0,0 13226.32,16572 19103.67,30568 4042.06,8838 12124.89,18046 22411.88,32040 0,0 15429.19,15837 17267.09,18415 0,0 7715.24,6997 15430.49,18783 0,0 19103.67,6998 24614.75,16573 0,0 20573.99,2578 27554.08,9575 0,0 25349.9,12153 33799.01,15837 3002.97,1505 8386.75,3264 13004.21,4465 1826.2,-9236 5365.6,-15964 5365.6,-18461 0,-3682 -2571.75,-8838 -5143.49,-12889 -567.61,-950 -572.8,-3785 -293.55,-7842 -39829.63,-2771 -67448.65,-25454 -77225.19,-35616 -10286.99,-10312 -5143.5,-12522 -12858.74,-15100 -7715.25,-2578 -16531.93,-21730 -24247.17,-29464 -6981.39,-6997 -5143.5,-21728 -12858.75,-38300 -11389.73,-25412 -13961.47,-57823 -13961.47,-57823 -10287,-12522 -2571.75,-30568 -2571.75,-30568 0,0 -2571.75,-23201 -2571.75,-33145 0,-10312 -6244.93,-34620 -16531.93,-50088 -10286.99,-15100 2571.75,-27990 20573.99,-34250 17267.08,-6262 65027.57,0 74946.99,4788 10286.99,5156 12858.74,23202 2571.75,33514 -9919.42,9944 -22778.16,33146 -25349.91,43458 -2571.75,10312 -2571.75,44563 -2571.75,44563 3674.48,5156 2571.75,6628 2571.75,11784 0,4788 -3673.19,9944 -3673.19,9944 0,0 4775.92,26886 12491.17,32042 7715.24,5156 5143.5,18046 5143.5,18046 10285.69,2578 15429.19,26885 15429.19,26885 0,0 7715.24,2578 16533.22,15100 10287,15099 30493.41,19519 45923.9,21728 l 388.36,64 c -929.99,-15341 -1858.67,-26775 -1858.67,-31736 0,-6629 4042.06,-15468 4042.06,-15468 -1470.32,-5156 6244.93,-7734 6244.93,-7734 0,0 -8816.68,-8839 -8816.68,-16573 0,-7734 5143.5,-12890 5143.5,-12890 -4042.07,-5156 5143.49,-10312 0,-11418 -5143.5,-1472 -6613.81,-10312 -7715.25,-15468 -1102.73,-5156 6244.93,-13994 6244.93,-13994 0,0 4042.06,0 1470.32,-5156 -2571.75,-5156 -7715.25,-8840 -7715.25,-12890 0,-3684 8816.68,-8839 8816.68,-8839 -2571.75,-3683 -1101.43,-10312 -1101.43,-17678 0,-7734 2571.74,-14364 2571.74,-21729 0,-7734 -24248.47,-25781 -24248.47,-33515 0,-7734 -5143.49,-26884 7715.25,-33146 12491.16,-6260 30493.4,-23201 68702.01,-10311 38208.7,12889 33065.2,28357 28289.3,35723 -5143.5,7734 -19472.6,30937 -23145.8,38671 -3674.4,7365 -1102.7,21729 1469.1,27990 2204.1,6261 3674.4,25412 1102.7,35724 0,0 2571.7,10312 2571.7,18046 0,7734 2571.8,27990 0,32041 0,0 5143.5,3683 5143.5,8839 0,5156 -5143.5,7734 -5143.5,7734 l -5143.5,11417 c 0,0 5143.5,1105 5143.5,11417 0,10311 -1470.3,20623 -1470.3,20623 0,0 -239,8167 463.7,19660 4003.1,-848 7464.6,-1587 9823.3,-1982 15430.5,-2209 20574,-1104 35636.9,-11416 6980.1,-4419 23145.8,-21729 23145.8,-21729 0,0 5143.5,-24307 15430.4,-26885 0,0 -2571.7,-12891 5143.5,-17678 7347.7,-5156 11388.5,-38671 11388.5,-38671 0,0 0,-3682 0,-8838 0,-5156 -5143.5,-7734 -1469,-12890 0,0 -2571.8,-29095 -5143.5,-39407 -2571.8,-10312 -15062.9,-33514 -25349.9,-43458 -10287,-10312 12858.7,-34620 22778.1,-39775 10287,-5156 37841.1,-4789 55108.2,1473 17634.6,6260 16899.5,16572 12491.1,34250 -3673.1,16574 -4775.9,44932 -4775.9,55244 0,9944 -2571.7,33145 -2571.7,33145 0,0 12491.1,20256 2571.7,33146 0,0 0,24677 -11756,50089 -7347.7,16572 -9551.8,29831 -16533.2,36828 -7715.3,7734 -16531.9,30936 -24247.2,33514 -7715.2,2210 -2571.7,4788 -12491.2,15100 -9738.8,9763 -42200,26460 -80547.6,32272 1537.8,13923 2417.1,28678 2134,43468 2018.4,-181 3994,-593 6038.4,-1346 5143.5,-1842 37841.1,-18782 37841.1,-18782 6980.1,-6998 27186.5,-10681 27186.5,-10681 5877.3,-9575 26451.3,-18046 26451.3,-18046 7347.7,-17678 30493.4,-29831 30493.4,-29831 1837.9,-2578 10654.6,-5893 10654.6,-5893 7347.7,-13995 13593.9,-20992 16165.6,-30569 3673.2,-14362 19103.7,-37196 19103.7,-37196 0,0 -5143.5,-26885 5143.5,-29463 0,0 -1102.7,-9944 -2571.7,-19152 -1469,-7734 735.1,-18046 735.1,-18046 0,0 2939.4,-9944 2939.4,-15100 0,-5156 0,-15468 4040.7,-20623 0,0 -1469,-18414 -3306.9,-27622 -2204.2,-10311 -1836.6,-31673 -12123.6,-41985 -10287,-10312 2571.8,-33883 12858.8,-39039 10287,-5155 19103.6,-13994 41881.8,-12889 19105,1104 36004.5,19151 25717.5,34619 -10287,15468 -12858.8,43458 -12858.8,53770 0,10312 3306.9,22466 3306.9,22466 0,0 -1836.5,9943 -1469,27990 0,0 -1837.9,33881 -5511,60767 -3306.9,23201 -6613.9,27253 -9185.6,37197 -2571.7,9944 -13225,46036 -19103.7,53402 -2204.1,3314 -4775.9,12153 -13226.3,23938 -3306.9,4420 -14695.3,28727 -28289.2,34988 0,0 -9919.4,10311 -12491.2,12522 0,0 -9184.3,18782 -18736.1,20256 0,0 -16533.2,7733 -23513.3,8838 0,0 -735.2,7734 -18002.2,10312 0,0 -15430.5,15837 -47025.4,19151 0,0 -31962.4,13259 -42249.4,12890 l -1263.8,-59 c -50.6,5916 -466.3,10517 -1675.5,12212 0,0 1644.3,12949 2304.2,23976 7374.9,-1527 15330.4,-3720 15330.4,-3720 5143.5,-2577 36004.5,-8838 36004.5,-8838 6245,-6629 27920.4,-8471 27920.4,-8471 4409.6,-369 30127.1,-10680 32697.6,-12522 16900.8,-14731 41147.9,-22465 43352.1,-27621 4409.6,-11417 32330,-22466 32330,-22466 8818,-14731 13593.9,-20993 13593.9,-20993 5511.1,-9575 18369.8,-26884 18369.8,-26884 7715.3,-11417 21675.4,-25044 21675.4,-25044 2571.8,-8102 6980.1,-26149 6980.1,-26149 10287,-13994 4409.7,-18046 8450.4,-26884 5878.7,-13996 11389.8,-35724 11389.8,-35724 0,0 3673.1,-12890 2571.7,-24307 0,0 0,-12890 1101.4,-20624 1470.4,-7366 3306.9,-12522 3306.9,-12522 0,0 -3306.9,-11786 3307,-19152 3305.6,-4050 -2571.8,-23202 1101.4,-28357 0,0 4040.8,-15836 1836.6,-25044 -2204.2,-10311 3306.9,-36829 -6980.1,-47141 -10287,-10312 -2571.8,-33883 7715.2,-39038 10287,-5156 29758.3,-9945 47392.9,-3683 17634.7,6260 22778.2,26884 12491.2,41984 -10287,15468 -5143.5,32042 -5143.5,42354 0,10312 735.2,23570 735.2,23570 0,0 3306.9,18046 4040.7,35724 0,0 -2204.1,21361 -5877.3,47877 -3306.9,23203 -2571.8,21362 -5143.5,30937 -2571.8,10312 -5878.7,38302 -11389.7,46036 -2204.2,2578 -2938.1,19519 -12123.6,32409 -3306.9,4788 -1836.6,19888 -16532,31305 0,0 -6981.3,34619 -23880.9,47509 0,0 -7347.6,19150 -12491.1,18415 0,0 -15430.5,21728 -22410.6,23201 0,0 -7347.7,20624 -21675.4,22834 0,0 -16165.7,20256 -38208.7,24308 0,0 -8450.4,19887 -26820.2,20624 0,0 -733.8,10679 -31962.4,10679 -9551.8,0 -8450.4,5156 -17267.1,7734 -8818,2578 -19105,5157 -26818.9,6262 -5741,1096 -24088.7,6268 -36739.7,9450 z"
       id="path18"
       style="fill:#428ece;fill-opacity:1;stroke:#ffffff;stroke-width:7580.8984375"
       inkscape:connector-curvature="0" /><g
       id="_24599736"
       style="fill:#428ece;fill-opacity:1"
       transform="matrix(0.12988629,0,0,0.13020414,226345.61,12360499)"><path
         id="_46086368"
         d="m 1742910,1297940 c 206750,357630 191540,699420 172540,1103140 0,0 96170,-302660 121630,-557230 25450,-257390 -127290,-506310 -166890,-565710 -39600,-59390 -138600,-359220 -138600,-359220 0,0 -14140,141430 -135770,367710 -124450,226280 -144250,438420 -147080,579850 -8490,217800 203650,738250 220620,766540 22630,48080 8490,687330 8490,687330 -226280,-186680 -328110,-282850 -401650,-398820 -127290,-195170 -178200,-557220 -178200,-557220 0,0 132940,149910 212140,229110 79200,79200 268710,398820 268710,398820 39600,-432770 -627940,-987160 -627940,-987160 0,0 -53740,735420 178200,1088990 155570,240430 568540,412970 568540,412970 l 0,274370 -99000,-62230 c 0,0 31120,-90520 -8480,-158400 0,0 -99000,-79200 -178200,-39600 -76370,39600 -56570,138600 -19800,198000 39600,59400 130110,39600 130110,39600 0,0 132940,118800 166880,200820 19800,48090 8490,746740 8490,746740 -226280,-186680 -299830,-308310 -373370,-424280 -127280,-195170 -206480,-520450 -206480,-520450 0,0 158400,127280 237600,206480 76370,79200 223450,364880 223450,364880 39600,-432770 -627940,-1052220 -627940,-1052220 0,0 -39590,726940 178200,1091820 178200,299830 568540,466710 568540,466710 l 0,268710 -147080,-107480 c 0,0 28280,-87690 -8490,-158400 0,0 -99000,-76370 -178200,-39600 -79200,39600 -59400,138600 -19800,198000 39600,59400 127290,39600 127290,39600 0,0 183850,192340 217790,274370 19800,48080 8490,746730 8490,746730 -226280,-186680 -299830,-308310 -373370,-421450 -127280,-198000 -206480,-520450 -206480,-520450 0,0 158400,127280 237600,203650 76370,79200 223450,364880 223450,364880 39600,-432760 -627940,-1052210 -627940,-1052210 0,0 -39590,726930 178200,1091810 178200,302660 574200,469540 574200,469540 l -5660,285680 -147080,-107480 c 0,0 28280,-87680 -8490,-158400 0,0 -99000,-76370 -178200,-36770 -79200,36770 -59400,135770 -19800,195170 39600,59400 127290,39600 127290,39600 0,0 183850,192340 217790,274370 19800,48080 8490,746730 8490,746730 -226280,-186680 -299830,-308310 -373370,-421450 -127280,-198000 -206480,-520450 -206480,-520450 0,0 158400,127280 237600,206480 76370,76370 223450,362060 223450,362060 39600,-432770 -627940,-1052220 -627940,-1052220 0,0 -39590,726930 178200,1091820 178200,302650 568540,472360 568540,472360 l 0,362060 -147080,-107490 c 0,0 28280,-87680 -8490,-158400 0,0 -99000,-76370 -178200,-39600 -79200,39600 -59400,138600 -19800,198000 39600,59400 127290,39600 127290,39600 0,0 183850,192340 217790,274370 19800,48090 8490,746740 8490,746740 -226280,-186690 -299830,-308320 -373370,-421460 -127280,-198000 -206480,-520450 -206480,-520450 0,0 158400,127290 237600,203660 76370,79190 223450,364880 223450,364880 39600,-432770 -627940,-1052220 -627940,-1052220 0,0 -39590,726940 178200,1091820 178200,302650 568540,461050 568540,461050 l 0,362050 -147080,-107480 c 0,0 28280,-87690 -8490,-155570 0,0 -99000,-79200 -178200,-39600 -79200,39600 -59400,135770 -19800,195170 39600,59400 127290,39600 127290,39600 0,0 183850,195170 217790,274370 19800,50910 8490,746730 8490,746730 -226280,-186680 -299830,-308310 -373370,-421450 -127280,-195170 -206480,-520450 -206480,-520450 0,0 158400,127280 237600,206480 76370,79200 223450,362060 223450,362060 39600,-429940 -627940,-1049390 -627940,-1049390 0,0 -39590,726930 178200,1088980 178200,302660 588340,472370 588340,472370 19800,195170 59400,452570 59400,452570 -178200,-99000 -138600,-178200 -138600,-178200 0,0 19800,-79200 -39600,-138600 -56570,-56570 -115970,-96170 -195170,-56570 -79200,39600 -39600,115970 -19800,175370 19800,59400 118800,99000 118800,99000 59400,79200 342250,294170 342250,294170 246090,698650 893820,865530 893820,865530 l -124450,-427110 c 0,0 -523280,-132940 -565710,-407310 0,0 -25460,-189510 73540,-373370 0,0 152740,-31110 166890,-90510 11310,-59400 5650,-141430 -79200,-172540 -82030,-31110 -115970,-16970 -169720,48080 -50910,65060 -22620,110320 -22620,110320 0,0 96170,124450 -70720,240420 0,0 -104650,-296990 -104650,-494990 0,0 135770,-407310 319620,-707140 76370,-124450 243260,-367710 243260,-367710 0,540250 -373370,1021110 -373370,1021110 520450,-305490 560050,-1021110 560050,-1131420 0,-107490 -62230,-398830 -62230,-398830 0,0 -356390,478030 -463880,693000 -107480,212140 -149910,325280 -229110,557220 0,0 -14140,-438420 0,-489340 25460,-84850 217800,-305480 217800,-305480 0,0 87680,11310 121620,-53740 33950,-62230 42430,-161230 -39600,-192340 -82020,-31120 -172540,56570 -172540,56570 -31110,73540 8490,158400 8490,158400 l -135770,121620 5660,-444080 c 0,0 135770,-367710 319620,-667530 76370,-124460 243260,-370540 243260,-370540 0,540250 -373370,1021100 -373370,1021100 520450,-302650 531760,-1040900 531760,-1148390 0,-107480 -33940,-379020 -33940,-379020 0,0 -376190,449740 -483680,661880 -107480,212140 -130110,316790 -209310,545910 0,0 -14140,-396000 0,-446910 25460,-84860 217800,-305490 217800,-305490 0,0 87680,8490 121620,-53740 33950,-62230 42430,-161230 -39600,-192340 -82020,-31110 -172540,56570 -172540,56570 -31110,73540 8490,158400 8490,158400 l -135770,121630 5660,-455400 c 0,0 135770,-367710 319620,-667540 76370,-124450 243260,-370530 243260,-370530 0,540250 -373370,1021100 -373370,1021100 520450,-302650 560050,-1021100 560050,-1128590 0,-107480 -62230,-398820 -62230,-398820 0,0 -356390,429930 -463880,642080 -107480,212140 -149910,336590 -229110,565700 0,0 -14140,-395990 0,-446910 25460,-84850 217800,-305480 217800,-305480 0,0 87680,8490 121620,-53740 33950,-62230 42430,-161230 -39600,-192340 -82020,-31120 -172540,56570 -172540,56570 -31110,73540 8490,158400 8490,158400 l -135770,121620 5660,-387510 c 0,0 107480,-379020 291340,-676020 76370,-124450 183850,-299820 183850,-299820 0,537420 -305480,910790 -305480,910790 520450,-302660 500650,-862710 500650,-970190 0,-110320 -14140,-469540 -14140,-469540 0,0 -362060,381850 -472370,593990 -107480,212140 -110310,345090 -189510,577030 0,0 -14140,-387510 0,-438430 25460,-84850 138600,-277200 138600,-277200 0,0 96170,33950 132940,-22620 48080,-73550 62230,-130120 -31120,-183860 -76370,-45260 -161220,28290 -161220,28290 -31120,73540 5660,138600 5660,138600 l -84860,101820 5660,-316790 c 0,0 67880,-379030 251740,-678850 76370,-124460 223450,-359230 223450,-359230 0,540250 -285680,874020 -285680,874020 452570,-325280 531760,-905130 531760,-1012620 0,-107480 -33940,-432770 -33940,-432770 0,0 -412970,435600 -523280,647740 -107480,212140 -141430,396000 -169710,625110 0,0 -14140,-435600 0,-486510 25460,-84860 107480,-237600 107480,-237600 0,0 70720,19800 104660,-42430 33940,-62220 2830,-132940 -59400,-164050 -79200,-42430 -113140,16970 -113140,16970 -31120,73540 5660,158400 5660,158400 l -65060,53740 -5660,-319630 c 0,0 104660,-356390 288510,-656220 76370,-124450 271540,-370540 271540,-370540 0,540260 -294170,854220 -294170,854220 520460,-302650 480860,-786330 480860,-893820 0,-288510 -33950,-373360 -33950,-373360 0,0 -444080,398820 -551560,613790 -107490,212140 -147090,427110 -223460,659050 -1880,-656220 -3760,-1312440 -5650,-1968670 z"
         style="fill:#428ece;fill-opacity:1"
         inkscape:connector-curvature="0" /><path
         id="_24599776"
         d="m 2189820,11452400 c 0,0 226280,166880 282850,178190 59400,8490 70710,0 59400,56580 -8490,59390 -19800,70710 -79200,31110 -56570,-39600 -183850,-118800 -263050,-265880 z"
         style="fill:#428ece;fill-opacity:1"
         inkscape:connector-curvature="0" /></g><g
       id="_24600528"
       style="fill:#428ece;fill-opacity:1"
       transform="matrix(0.12988629,0,0,0.13020414,226345.61,12360499)"><path
         id="_24598960"
         d="m 10138080,10417170 c 0,0 -18726,221506 -73550,506310 178200,-99000 138600,-178200 138600,-178200 0,0 -19800,-79200 39600,-138600 59400,-56570 118800,-96170 195170,-56570 79200,39600 39600,115970 19800,175370 -19800,59400 -115970,99000 -115970,99000 -59400,79200 -345080,294170 -345080,294170 -246090,698650 -893820,865530 -893820,865530 l 127280,-427110 c 0,0 520450,-132940 562880,-407310 0,0 28290,-189510 -73540,-373370 0,0 -152740,-31110 -164060,-90510 -14140,-59400 -5650,-141430 76370,-172540 82030,-31110 115970,-16970 169720,48080 50910,65060 25450,110320 25450,110320 0,0 -96170,124450 67890,240420 81816.3,-158176 94215.4,-434396 94215.4,-434396 0,0 -382725.4,-176564 -563755.4,-479224 -214970,-362050 -175370,-1088980 -175370,-1088980 0,0 667540,619450 627940,1049390 0,0 -147080,-282860 -226280,-362060 -79200,-79200 -234770,-206480 -234770,-206480 0,0 79200,325280 206480,520450 73540,113140 147090,234770 373370,421450 0,0 8480,-695820 -11310,-746730 -31120,-79200 -214970,-274370 -214970,-274370 0,0 -87690,19800 -127290,-39600 -39600,-59400 -59400,-155570 19800,-195170 76370,-39600 175370,39600 175370,39600 39600,67880 11310,155570 11310,155570 l 147090,107480 0,-362050 c 0,0 -390340,-158400 -571370,-461050 -214970,-364880 -175370,-1091820 -175370,-1091820 0,0 667540,619450 627940,1052220 0,0 -147080,-285690 -226280,-364880 -79200,-76370 -234770,-203660 -234770,-203660 0,0 79200,322450 206480,520450 73540,113140 147090,234770 373370,421460 0,0 8480,-698650 -11310,-746740 -31120,-82030 -214970,-274370 -214970,-274370 0,0 -87690,19800 -127290,-39600 -39600,-59400 -59400,-158400 19800,-198000 76370,-36770 175370,39600 175370,39600 39600,70720 11310,158400 11310,158400 l 147090,107490 0,-362060 c 0,0 -390340,-169710 -571370,-472360 -214970,-364890 -175370,-1091820 -175370,-1091820 0,0 667540,619450 627940,1052220 0,0 -147080,-285690 -226280,-362060 -79200,-79200 -234770,-206480 -234770,-206480 0,0 79200,322450 206480,520450 73540,113140 147090,234770 373370,421450 0,0 8480,-698650 -11310,-746730 -31120,-82030 -214970,-274370 -214970,-274370 0,0 -87690,19800 -127290,-39600 -39600,-59400 -59400,-158400 19800,-195170 76370,-39600 175370,36770 175370,36770 39600,70720 11310,158400 11310,158400 l 147090,107480 5660,-285680 c 0,0 -396000,-166880 -577030,-469540 -214970,-364880 -175370,-1091810 -175370,-1091810 0,0 667540,619450 627940,1052210 0,0 -147080,-285680 -226280,-364880 -79200,-76370 -234770,-203650 -234770,-203650 0,0 79200,322450 206480,520450 73540,113140 147090,234770 373370,421450 0,0 8480,-698650 -11310,-746730 -31120,-82030 -214970,-274370 -214970,-274370 0,0 -87690,19800 -127290,-39600 -39600,-59400 -59400,-158400 19800,-198000 76370,-36770 175370,39600 175370,39600 39600,70710 11310,158400 11310,158400 l 147090,107480 0,-268710 c 0,0 -390340,-166880 -571370,-466710 -214970,-364880 -175370,-1091820 -175370,-1091820 0,0 667540,619450 627940,1052220 0,0 -147080,-285680 -226280,-364880 -79200,-79200 -234770,-206480 -234770,-206480 0,0 79200,325280 206480,520450 73540,115970 147090,237600 373370,424280 0,0 8480,-698650 -11310,-746740 -31120,-82020 -166890,-200820 -166890,-200820 0,0 -87680,19800 -127280,-39600 -39600,-59400 -59400,-158400 19800,-198000 79200,-39600 178190,39600 178190,39600 36780,67880 8490,158400 8490,158400 l 99000,62230 0,-274370 c 0,0 -412970,-172540 -571370,-412970 -229110,-353570 -175370,-1088990 -175370,-1088990 0,0 667540,554390 627940,987160 0,0 -192340,-319620 -268710,-398820 -79200,-79200 -212140,-229110 -212140,-229110 0,0 48080,362050 175370,557220 76370,115970 178200,212140 404480,398820 0,0 14140,-639250 -11310,-687330 -14150,-28290 -226290,-548740 -220630,-766540 5660,-141430 25460,-353570 147080,-579850 124460,-226280 138600,-367710 138600,-367710 0,0 99000,299830 138600,359220 36770,59400 189510,308320 166880,565710 -25450,254570 -124450,557230 -124450,557230 21320,-402830 35830,-747500 -172540,-1103140 l 0,0 c 1890,656230 3770,1312450 5650,1968670 79200,-231940 115970,-446910 226290,-659050 107480,-214970 551560,-613790 551560,-613790 0,0 33950,84850 33950,373360 0,107490 36770,591170 -483680,893820 0,0 296990,-313960 296990,-854220 0,0 -198000,246090 -274370,370540 -183850,299830 -285680,656220 -285680,656220 l 2830,319630 67880,-53740 c 0,0 -39600,-84860 -5650,-158400 0,0 33940,-59400 113140,-16970 62230,31110 90510,101830 59400,164050 -33940,62230 -104660,42430 -104660,42430 0,0 -84850,152740 -107480,237600 -14140,50910 0,486510 0,486510 28280,-229110 59400,-412970 169710,-625110 107490,-212140 520450,-647740 520450,-647740 0,0 33940,325290 33940,432770 0,107490 -76370,687340 -528930,1012620 0,0 285680,-333770 285680,-874020 0,0 -149910,234770 -223450,359230 -186690,299820 -254570,678850 -254570,678850 l -5660,316790 87680,-101820 c 0,0 -39600,-65060 -5650,-138600 0,0 84850,-73550 161220,-28290 90520,53740 76370,110310 28290,183860 -36770,56570 -130110,22620 -130110,22620 0,0 -115970,192350 -138600,277200 -14140,50920 0,438430 0,438430 76370,-231940 79200,-364890 189510,-577030 107480,-212140 472370,-593990 472370,-593990 0,0 14140,359220 14140,469540 0,107480 19800,667530 -500650,970190 0,0 305480,-373370 305480,-910790 0,0 -110310,175370 -186680,299820 -181030,297000 -291340,676020 -291340,676020 l -5660,387510 135770,-121620 c 0,0 -36770,-84860 -5660,-158400 0,0 90520,-87690 172540,-56570 82030,31110 70720,130110 39600,192340 -33940,62230 -124450,53740 -124450,53740 0,0 -192340,220630 -214970,305480 -14140,50920 0,446910 0,446910 76370,-229110 118800,-353560 229110,-565700 107480,-212150 461050,-642080 461050,-642080 0,0 65060,291340 65060,398820 0,107490 -39600,825940 -560050,1128590 0,0 373370,-480850 373370,-1021100 0,0 -166890,246080 -243260,370530 -183850,299830 -322450,667540 -322450,667540 l -5660,455400 135770,-121630 c 0,0 -36770,-84860 -5660,-158400 0,0 90520,-87680 172540,-56570 82030,31110 70720,130110 39600,192340 -33940,62230 -124450,53740 -124450,53740 0,0 -192340,220630 -214970,305490 -14140,50910 0,446910 0,446910 76370,-229120 99000,-333770 209310,-545910 107480,-212140 480850,-661880 480850,-661880 0,0 33940,271540 33940,379020 0,107490 -8480,845740 -528930,1148390 0,0 373370,-480850 373370,-1021100 0,0 -166890,246080 -243260,370540 -183850,299820 -322450,667530 -322450,667530 l -5660,444080 135770,-121620 c 0,0 -36770,-84860 -5660,-158400 0,0 90520,-87690 172540,-56570 82030,31110 70720,130110 39600,192340 -33940,65050 -124450,53740 -124450,53740 0,0 -192340,220630 -214970,305480 -14140,50920 0,489340 0,489340 76370,-231940 118800,-345080 229110,-557220 107480,-214970 461050,-693000 461050,-693000 0,0 65060,291340 65060,398830 0,110310 -39600,825930 -560050,1131420 0,0 373370,-480860 373370,-1021110 0,0 -166890,243260 -243260,367710 -183850,299830 -322450,707140 -322450,707140 z"
         sodipodi:nodetypes="cccccscccccccscccccccscccccsccccccccccccccsccccccccccccccsccccccccccccccsccccccccscccccsscccccccccccccccccccccccsccccccccccccccscccccccsccccccscccccccsccccccscccccccsccccccscccccccsccccccscccc"
         style="fill:#428ece;fill-opacity:1"
         inkscape:connector-curvature="0" /><path
         id="_25242176"
         d="m 9654340,11452400 c 0,0 -226280,166880 -285680,178190 -59400,8490 -67890,0 -59400,56580 11310,59390 19800,70710 79200,31110 59400,-39600 186680,-118800 265880,-265880 z"
         style="fill:#428ece;fill-opacity:1"
         inkscape:connector-curvature="0" /></g><g
       id="_25243192"
       transform="matrix(0.12988629,0,0,0.13020414,226345.61,12360499)"><path
         id="_24600336"
         d="m 5841470,11472200 -107490,364880 c 0,0 5660,101830 124460,101830 115970,0 528940,0 528940,0 l 0,760870 c 0,0 299820,-118790 313960,-127280 14150,-11310 25460,-14140 25460,-79200 0,-62230 0,-840080 0,-840080 0,0 14140,-96170 -79200,-96170 -93340,0 -619450,0 -642080,0 -25460,0 -124450,-31110 -164050,-84850 z m 1199300,28280 -141430,325280 c 0,0 33940,65060 132940,84860 96170,19800 16970,93340 0,107480 -19800,14150 -39600,59400 -39600,107490 0,48080 -11310,574190 -11310,574190 0,0 989990,-132940 1060700,-147080 50920,-8490 50920,-19800 79200,-45260 28290,-22630 186690,-214970 200830,-234770 14140,-19800 14140,-25450 19800,-73540 5660,-48080 39600,-642080 39600,-642080 l -274370,0 -99000,336600 107490,19800 c 0,0 14140,147080 -8490,206480 -25460,59400 -50910,104660 -93340,124460 -45260,19800 -274370,56570 -274370,56570 0,0 200830,-707140 203650,-743910 l -356390,0 -118800,316800 113140,31110 c 0,0 -161230,393170 -195170,427110 0,0 -118800,-152740 -50910,-384680 28280,-90510 76370,-288510 104650,-336600 19800,-33940 -36770,-53740 -73540,-53740 -39600,0 -144250,22630 -325280,-56570 z m 1581150,-36770 c 0,0 79200,36770 138600,48090 56570,8480 195170,-11320 254570,-11320 59400,0 99000,50920 67890,149910 -28290,96170 -127290,401660 -96170,509140 l -325290,87690 39600,-322460 c 0,0 -197990,19800 -237590,-19800 l 158390,-441250 z m -3716700,907960 -127290,319630 -497820,0 c 0,0 70710,-364880 59400,-483680 -8490,-115970 -67890,-390340 -67890,-390340 0,0 147090,-206490 155570,-237600 11320,-28280 50920,-39600 90520,-8480 39600,28280 528940,469530 715620,548730 0,0 19800,-147080 0,-175370 -19800,-31110 11310,-31110 -39600,-39600 -48090,-11310 -107480,-11310 -135770,-31110 0,0 115970,-294170 127280,-362050 0,0 59400,19800 115970,19800 59400,0 198000,0 257400,8480 59400,11320 48090,31120 48090,79200 0,48090 0,305480 0,345080 0,73540 -25460,96170 -53750,127290 -28280,28280 -121620,87680 -121620,87680 0,0 -39600,67890 0,87690 36770,19800 135770,90510 186680,107480 l -149910,305480 c 0,0 -8490,19800 -56570,-8480 -50920,-31120 -758050,-560050 -758050,-560050 0,0 -19800,0 -19800,39600 0,39600 0,220620 0,220620 l 271540,0 z m -1954530,-1798950 -65050,339420 c 0,0 206480,-19800 39600,118800 0,0 11310,48090 11310,226290 0,175370 0,588330 -39600,667530 l 834420,0 c 39600,8490 48090,28290 48090,96170 0,70720 50910,237600 -87690,285690 -138600,50910 -214970,59400 -274370,59400 l -59390,333760 c 0,0 373360,-118790 472360,-186680 96170,-67880 234770,-118800 234770,-322450 0,-206490 0,-571370 48090,-639250 l -823110,0 0,-50920 c 0,0 0,-514790 2830,-540250 25460,-124460 36770,-248910 104650,-294170 28290,-19800 33950,-76370 -39590,-67880 -39600,5650 -347920,25450 -407320,-25460 z"
         style="fill:#428ece;fill-opacity:1"
         inkscape:connector-curvature="0" /><path
         id="_25243232"
         d="m 3035550,10657600 14140,209310 c 0,0 214970,-28290 73550,87680 0,0 -8490,175370 -8490,325290 0,149910 0,478020 -31110,545900 l 760870,0 c 31120,8490 39600,25460 39600,82030 0,59400 45260,396000 -67880,444080 -124460,48090 -198000,82030 -248910,99000 l -31120,104660 c 0,0 308310,-118800 384690,-183860 50910,-39600 53740,-84850 53740,-257390 0,-175370 -25460,-330940 16970,-387520 l -783510,0 0,-42420 c 0,0 5660,-735420 11320,-758050 19800,-107490 0,-147090 56570,-183860 25450,-16970 28280,-67880 -33950,-59400 -31110,5660 -192340,11320 -206480,-25450 z m 2466490,1767840 -67880,124450 c 0,0 -22630,-22630 -59400,-45260 -39600,-22620 -814620,-562880 -814620,-562880 0,0 -5660,56580 -5660,87690 0,31110 8480,424280 8480,424280 l 220630,0 -67880,110310 -265890,0 c 0,0 33950,-254560 28290,-345080 -8490,-101830 -31120,-364880 -31120,-364880 0,0 36780,-42430 45260,-65060 8490,-25450 39600,-33940 67890,-8480 65050,59400 540250,511960 941900,644910 z m 458230,-786340 -22630,99000 c 0,0 2830,84860 96170,84860 96170,0 480850,0 480850,0 l 0,667530 c 0,0 82030,-16970 93340,-25460 11320,-5650 19800,-11310 19800,-62220 0,-50920 0,-630770 0,-630770 0,0 5660,-65050 -67880,-65050 -76370,0 -452570,0 -469540,0 -19800,0 -99000,-22630 -130110,-67890 z m 2774800,56570 c 0,0 45250,-2830 87680,5660 39600,5660 48090,2830 87690,2830 42420,0 56570,2830 33940,73540 -19800,67880 -48090,200830 -48090,282850 l -79200,22630 28290,-240420 c 0,0 -76370,31110 -166880,0 l 56570,-147090 z m -3332030,359230 c 0,0 25460,-186690 11320,-209320 -16980,-22620 5650,-22620 -31120,-31110 -39600,-8490 -99000,11310 -121630,-2830 0,0 42430,-101830 50920,-155570 0,0 45260,14140 90510,14140 45260,0 31120,-2820 76370,-2820 48090,0 39600,59390 39600,96170 0,39600 0,39600 0,70710 0,59400 -5650,130110 -22630,149910 -22620,25460 -93340,70720 -93340,70720 z m 1756530,-387510 -67890,147080 c 0,0 36770,19800 115970,36770 53750,14140 -33940,130110 -50910,141430 -14140,11310 -25460,70710 -25460,110310 0,39600 -8480,461050 -8480,461050 0,0 825930,-107480 882500,-118790 39600,-8490 39600,-14150 65060,-33950 22630,-19800 172540,-158400 183850,-175370 11320,-14140 28290,-87680 31120,-127280 2830,-39600 33940,-393170 33940,-393170 l -132940,-2830 -45260,158400 96170,5660 c 0,0 -14140,265880 -33940,311140 -16970,48080 -121630,147080 -155570,161220 -36770,16980 -421450,67890 -421450,67890 0,0 214970,-667540 217790,-698650 l -178190,0 -59400,115970 132940,0 c 0,0 -217800,560050 -246080,585510 0,0 -223460,36770 -237600,5660 -22630,-50920 -16970,-350740 2830,-418630 22620,-73540 62220,-231940 82020,-271540 16980,-28280 -25450,-42430 -59400,-42430 -31110,0 -48080,-19800 -121620,-25450 z"
         style="fill:#ffffff"
         inkscape:connector-curvature="0" /></g><path
       d="m 966702.68,12666868 c 479.28,-325 961.16,-618 1452.13,-881 7798.37,-4187 17072.25,-788 25366.79,-3906 3306.91,-1473 4775.92,-5525 8818,-5525 -735.2,-3315 3305.6,-3682 3673.2,-6260 1102.7,-4420 -733.9,-8471 -1101.5,-12890 16164.4,368 30861,18046 25717.5,32777 -1837.9,5156 -5143.5,9576 -9920.7,13995 -5509.8,5156 -6980.1,13627 -8816.7,21361 -4408.3,17678 9184.3,33146 6612.5,50824 -1101.4,6260 -2204.1,12153 -7347.6,16572 -3305.6,2578 -7715.3,2578 -11020.9,737 -7347.66,-3315 -17634.65,1841 -22044.29,-8471 10286.99,-2209 20206.41,-6260 23880.89,-16572 4040.8,-10312 3306.9,-21362 735.2,-31674 -3306.95,-13257 1836.6,-27621 -5511.12,-37565 -5878.65,-7366 -19104.97,-6629 -29024.39,-10681 -1101.43,-367 -4040.76,-2945 -2571.75,-5523 367.58,-368 1470.32,0 2571.75,0 l -1469.01,3682 z m -304932.75,-6260 c 735.15,-3683 -1836.59,-9208 -4408.34,-6998 -5878.66,6261 -11022.15,10312 -19472.56,13258 -2939.32,737 -8449.1,4052 -5143.49,8840 3306.9,4419 10286.99,4788 13226.32,9575 4408.34,6997 9184.26,15100 4040.76,23571 -1469.01,2945 -3673.18,4788 -4775.92,8101 367.58,0 735.16,0 1470.31,0 -1102.73,0 -2204.17,-368 -2571.74,0 -4775.92,13627 -1470.32,32409 -15430.5,40880 367.58,14363 18002.24,9207 26818.93,7366 1837.89,-26147 7715.24,-51928 2571.74,-79181 -1469.01,-9576 1102.74,-18046 3674.49,-26886 0,369 0,1106 0,1474 z m -15062.92,164992 c 590.99,55 1200.15,95 1813.22,123 739.05,32 1488.49,50 2245.73,47 7171.02,-38 14846,-1918 17616.48,-7167 4408.34,-9207 735.16,-20993 1102.73,-31672 -1837.89,367 -3674.48,-2578 -4775.92,-737 -5511.07,6260 -2204.17,16941 -8450.4,21728 -5511.07,4421 -12858.74,6999 -16165.65,11787 -3422.5,5148 6876.19,2298 10672.76,6061 275.36,274 516.95,584 716.97,936 l -4775.92,-1106 z m 18736.1,81392 c 12124.89,-1472 16165.65,-15468 12124.89,-25043 -1102.74,-2578 -735.16,-7734 -5511.08,-7734 733.86,-2578 -1837.89,-3683 -2939.32,-5157 -2204.17,-2578 -6246.24,-3315 -9919.42,-2578 -735.16,369 -1836.59,1842 -1102.74,2210 3674.49,2210 8817.99,5156 7347.67,10312 -1469.01,5525 -9551.84,2210 -8816.68,11786 -2939.33,-1842 -2571.75,3314 -5143.5,2578 -1102.73,8470 7347.67,6629 12858.75,10311 733.85,737 1101.43,3315 1101.43,3315 z m -3673.18,33515 c 13226.32,8838 29758.25,-2578 39310.08,-12891 1470.32,-1472 2571.75,-4050 1470.32,-6261 -1837.89,-2945 -5511.08,-1841 -7347.67,-736 -11022.15,6629 -22411.88,9944 -33065.15,16204 -1102.74,737 733.85,2578 -367.58,3684 z m 34534.17,34250 c -3673.19,1105 -7715.25,-367 -11388.43,737 -2939.33,737 -5511.08,2946 -3674.49,5893 1836.59,2578 6246.23,4787 7715.25,5156 11756.01,3682 18737.39,-9208 26452.64,-18046 1101.44,-1474 -1102.73,-2210 -1102.73,-3684 -4040.77,369 -6980.09,2947 -9919.42,4421 -3306.91,1841 -4775.92,4050 -8082.82,5523 z m 11022.15,20993 c -3674.49,1841 -11389.73,4419 -8817.98,8102 2204.17,2947 6613.81,7366 11389.73,4051 4408.34,-3314 8816.68,-5156 11388.43,-9944 1836.59,-3315 3674.48,-7365 2939.32,-11416 -5878.65,2946 -11388.43,6997 -16899.5,9207 z m 21307.84,40511 c 2939.33,2578 3674.49,8103 8450.41,6262 5143.49,-2211 5143.49,-9577 9184.25,-11786 2204.18,-736 5511.08,-1841 6981.39,-3682 1101.44,-1106 1101.44,-4421 0,-5525 -3306.9,-3315 -7715.24,-4419 -10286.99,-9207 -1837.89,-3315 -6981.39,-2210 -9185.56,368 -1101.44,737 0,4052 -733.86,5524 -2205.47,4052 -7715.24,1841 -11022.15,3315 -1836.59,1104 -4040.76,2947 -2571.75,5893 2204.17,3682 5143.5,6629 9919.42,5155 -367.58,1474 -1469.01,3315 -735.16,3683 z m 41515.56,36829 c 16899.5,-1104 20941.57,-18782 30125.83,-30567 2571.74,-3315 -1836.6,-8103 -4042.07,-6630 -7347.66,5156 -12123.58,17678 -21675.42,13996 -3306.91,-1474 1102.73,-6630 -735.16,-9208 -2204.17,-2947 -6244.93,-4420 -10286.99,-736 -1469.02,1841 -1469.02,3682 -2204.17,5523 -733.86,1843 -3305.61,369 -3673.19,2578 -367.57,2211 733.86,4788 -367.57,5893 -2939.33,2578 -4775.92,4788 -3306.91,8103 2939.33,6260 9551.84,11416 16165.65,11048 z m 37473.49,24676 c -1102.73,-15468 17634.67,-20624 18737.4,-33146 1101.44,-14731 -16900.8,0 -26820.22,0 -6244.93,0 -9184.26,7366 -10654.57,15100 -366.28,1472 -1836.6,4050 -4408.34,4050 -367.58,7734 8817.98,12522 15430.49,14732 2204.17,737 8082.82,2578 7715.24,-736 z m 12491.17,9207 c 8082.82,5156 15798.07,11417 24614.75,15836 28656.81,14363 59885.37,16573 91480.21,21729 13226.33,1841 26085.07,-1473 39310.09,-736 -733.86,-1474 2571.75,-2211 1102.74,-3683 -4040.77,-4419 -9919.42,-3315 -15062.92,-4419 -13593.9,-3684 -27186.5,0 -40412.82,-2947 -23145.74,-5156 -44821.16,-10312 -65395.15,-22465 -3306.9,-1843 -6246.23,-4419 -8817.98,-7366 -4775.92,-6998 -5143.5,-15100 -10653.27,-21361 -1102.74,-1473 -3674.49,737 -4409.64,1474 -6980.09,5523 -6980.09,14731 -12491.17,21728 -991.03,994 49.36,1556 1389.78,2210 555.92,271 1161.19,557 1696.32,895 572.8,364 1061.17,788 1323.54,1314 l -3674.48,-2209 z m 191409.49,41984 c 926.1,104 1852.2,190 2777,266 15605.8,1281 31193.5,-1207 46453.8,-4685 29390.7,-7366 57312.4,-13259 85601.6,-22097 11388.4,-3315 27554.1,-6262 29390.7,-19519 735.1,-3683 -4408.4,-12522 -11022.2,-9576 -10287,4051 -21307.8,5156 -29758.2,13258 -1836.6,1474 -5143.5,737 -7347.7,1841 -9551.8,4789 -17634.7,12155 -27186.5,15101 -18369.8,6261 -36372.1,12154 -55843.3,15467 -14327.8,2211 -28656.8,-367 -41881.8,5156 -367.6,0 -367.6,1843 0,1843 5509.7,2209 11388.4,4787 17634.6,4419 l -8818,-1474 z m 185898.5,-73289 c -3305.6,-1104 -5143.5,-5524 -6980.1,-4051 -2571.7,2210 1470.3,9575 -5511.1,8471 -5143.5,-737 -4775.9,-5893 -7715.2,-7734 -1101.4,-368 -2571.8,-368 -3673.2,0 -1102.7,368 -2204.2,1473 -1470.3,2210 7349,9575 10287,22465 22044.3,26516 5877.3,2211 10287,-4419 12123.6,-9944 2204.2,-6260 -2939.3,-13626 -8818,-15468 z m 41148,-8470 c 166.2,-539 267.5,-1063 319.5,-1565 410.4,-3944 -2447.1,-6663 -4727.9,-7643 -8082.8,-3682 -18369.8,2211 -26820.2,-5892 -1469,-1105 -4775.9,-368 -7347.7,-368 8082.9,9943 12491.2,22097 22411.9,30199 1836.6,1106 8081.6,2578 8816.7,-737 1102.7,-6628 5511.1,-11416 5878.7,-18046 l 1469,4052 z m 45923.9,-69239 c -2204.2,-368 -4775.9,-2209 -6246.3,-737 -3673.1,3684 1837.9,9577 -733.8,13259 -3306.9,4788 -8818,-368 -13593.9,737 -735.2,368 -3673.2,1841 -2204.2,3315 6244.9,5523 9551.9,12522 16531.9,16204 4776,2209 6613.9,-6260 9185.6,-9207 3673.2,-3315 9551.8,-6630 9919.4,-10681 367.6,-5893 -7347.7,-10680 -12858.7,-13994 0,367 0,736 0,1104 z m 26451.3,-19887 c -9184.2,-1841 -22778.1,-5525 -29023.1,2209 4040.8,2579 4408.4,8472 8816.7,9576 4042.1,1105 6981.4,3315 8450.4,5893 1102.7,2578 3306.9,3683 4408.3,6261 4776,-3683 2939.4,-9576 5143.5,-13995 2204.2,2209 2571.8,-1473 3307,-1842 2571.7,-1473 2939.3,-7734 -1102.8,-8102 z m 5143.5,-40143 c 735.2,-737 735.2,-2947 0,-3684 -3305.6,-3682 -13592.6,-8838 -8081.5,-11048 10287,-4052 24982.3,11785 18000.9,23570 -4775.9,7367 -13592.6,9208 -20940.2,4789 -2204.2,-1474 -6613.8,-1843 -6613.8,-5893 0,-1841 -733.9,-4052 367.5,-4788 4775.9,-4787 12123.6,1473 17267.1,-2946 z m 1470.3,-50824 c 11756,-2947 22410.6,1841 30125.9,10312 4040.7,4419 2939.3,12153 1469,15837 -2571.8,6628 -12123.6,8838 -21675.5,6260 -5511,-1841 -9919.4,-6997 -6613.8,-10312 3674.5,-2947 11022.2,-6260 7715.3,-11785 -1101.5,-1841 -733.9,-4788 -3305.6,-5525 -2571.8,-368 -5878.7,1841 -7715.3,-1472 -367.6,-737 -367.6,-2947 0,-3315 z m 38208.7,-38671 c -1837.9,0 -3674.5,-368 -4775.9,369 -4777.3,4052 -4409.7,12153 -8818,15468 -5511.1,4419 -14327.8,1105 -22043,2578 -1102.8,368 733.8,3315 1469,4419 5143.5,5525 13961.5,4052 20574,8840 2571.7,1841 6246.2,-737 6612.5,-2210 1837.9,-9208 7715.2,-13627 11389.7,-20624 1101.5,-2210 2571.8,-6262 -735.1,-8471 -735.2,-737 -2204.2,-369 -3673.2,-369 z m -2571.8,-35724 c -8450.4,1474 -16165.6,-3682 -23880.9,369 -367.5,0 -1101.4,1473 -1469,2209 -735.1,4052 4040.8,5525 6245,5525 10286.9,368 18737.4,6261 28289.2,6630 2204.2,0 3306.9,-4421 1836.6,-6999 -2204.2,-4050 -5143.5,-8838 -11020.9,-7734 z m 2571.8,-29463 c 4775.9,-2209 5877.3,-6997 8081.5,-11416 1470.3,-2946 5143.5,-1105 5143.5,0 1837.9,11048 1837.9,22834 -3305.6,32778 -1470.3,2578 -4775.9,-1106 -5511.1,-1474 -6246.2,-5525 -15062.9,-3682 -22043,-8470 -2939.3,-1842 -6246.2,-7367 -2571.7,-7734 8081.5,-737 13225,-5525 21675.4,-6262 -735.2,737 -1101.4,1841 -1469,2578 z m 10287,-21360 c -5143.5,0 -18737.4,-4420 -13961.5,2578 2939.3,4420 11389.7,1105 17634.7,-368 1836.5,-737 2204.1,-2578 1102.7,-3683 -1470.3,-2210 -2939.3,1105 -4775.9,1473 z m -12491.2,-38670 c -4777.2,-11049 -2205.5,-23203 -5878.6,-32778 -3674.5,-9943 -18369.9,-15100 -21309.2,-26517 -4408.3,-19151 23513.3,-16204 37107.2,-13994 5877.4,736 13960.2,6260 11020.9,14362 -5511.1,16941 -18368.5,34252 -11756,52297 4040.7,10312 10654.5,23202 4408.3,32410 -4408.3,6629 -13960.2,8838 -22778.2,3314 -2204.1,-1104 -1836.5,-4051 -1101.4,-5892 4040.8,-7734 14695.3,-12890 10287,-23202 z m -114993.5,38302 c -197.4,695 -292.3,1443 -268.9,2165 62.4,1957 963.8,3727 2840.6,3727 7715.3,0 15430.5,-1104 22778.2,-4788 4408.3,-2209 5511.1,-8470 5143.5,-11048 -2204.2,-18414 -5143.5,-36092 -2939.3,-53770 367.5,-5525 -1101.5,-10681 735.1,-15468 1836.6,-5525 6612.5,-9944 8082.8,-15469 1101.5,-4787 1836.6,-10680 0,-15099 -1470.3,-3683 -5878.6,-5893 -9553.1,-3683 -3673.2,2210 -4775.9,7366 -7713.9,11048 -1837.9,2210 -5143.5,2210 -6981.4,2947 -6245,2209 -13592.6,2209 -21307.9,3683 -4408.3,736 -6613.8,5892 -2204.2,6997 5509.8,1841 12491.2,1473 16899.6,4051 11022.1,6630 10286.9,22097 6612.5,33515 -1469.1,4050 -4776,7734 -9551.9,6628 4040.8,9944 6980.1,20256 4408.4,31674 -367.6,2946 -1101.5,6260 -2204.2,8838 -1469,3315 -6980.1,2947 -6244.9,7734 l 1469,-3682 z m 13961.5,40880 c 0,-1504 -98.8,-3057 -204,-4618 -310.4,-4564 -704,-9220 937.8,-13060 367.6,-1105 367.6,-3315 1837.9,-3683 2571.8,-1473 5877.4,0 6980.1,1472 9919.4,12155 7715.2,29464 -2571.8,39777 -2204.1,2209 -8450.4,1841 -11757.3,0 -11506.6,-6490 1270.3,-16156 4573.3,-24506 71.5,-180 141.6,-358 204,-538 l 0,5156 z m -24248.5,39775 c 116.9,-586 305.2,-1138 501.3,-1673 415.7,-1147 850.8,-2228 601.4,-3483 10287,-737 21307.9,1104 29390.7,7734 -3673.2,9944 -2571.8,22097 -9919.4,29831 -3306.9,3315 -11022.2,737 -15062.9,-2578 -2571.8,-2210 -4408.4,-6997 -1102.8,-8471 7349,-3682 12491.2,-8838 8818,-16204 -3306.9,-6630 -12123.6,1841 -16531.9,-3315 -1102.8,-1105 -2571.8,-4788 -367.6,-6997 367.6,-369 1469,0 2204.2,0 l 1469,5156 z m 19838.8,53402 c 735.2,-737 -1101.4,-2947 -2204.2,-3315 -10654.5,-3315 -22043,-11785 -32697.5,-6262 -1836.6,1106 1836.6,2211 2571.7,2947 6246.2,4052 13961.5,3315 20574,7366 2939.3,1842 8816.7,2578 11756,-736 z m -14695.3,10679 c -4775.9,-367 -11388.5,-10679 -12858.8,-3682 -1469,5156 -9184.2,4788 -6980.1,9575 1836.6,3684 8082.9,3315 11756.1,7366 5143.5,5893 10654.5,-1473 13961.4,-7366 1469,-2946 -2939.3,-5893 -5878.6,-5893 z m -35636.9,33146 c -3305.6,2578 -7347.7,1474 -9919.4,2947 -5143.5,3315 367.5,5893 2939.3,9208 1836.6,2209 6980.1,3314 8818,5892 1101.4,2209 4040.7,2209 5143.5,4787 366.2,1106 3673.2,-735 5142.2,-1472 2571.7,-1842 2571.7,-6262 4777.2,-8103 3305.6,-2947 9184.2,-2578 11388.4,-6260 2204.2,-2947 2204.2,-8471 -735.1,-11786 -4776,-5525 -11020.9,-11048 -18736.1,-9944 -6246.3,737 -367.6,8840 -3306.9,11418 -1313.2,1127 -3296.6,1964 -5511.1,2516 -2121.1,529 -4455.1,797 -6612.5,797 l 6612.5,0 z m -24247.2,16574 c -735.2,736 -1470.3,1473 -2571.7,1104 -735.2,2947 3306.9,5893 -367.6,7366 -2571.8,737 -5511.1,1474 -6980.1,3315 -1470.3,1474 735.1,3315 2204.2,4419 1102.7,737 2571.7,0 3674.4,368 5509.8,3684 9184.3,12154 16532,9944 1102.7,-368 2204.1,-1473 2571.7,-2210 1101.5,-3682 -1102.7,-6260 -3306.9,-9206 -1101.4,-1106 0,-3315 -733.8,-4788 -2939.4,-5156 -5878.7,-13996 -12492.5,-11417 -733.9,368 0,1473 1470.3,1105 z m -16899.5,41984 c -4777.2,1474 -10654.6,-4419 -12858.7,-1472 -4409.7,5156 1469,16204 8816.6,13258 5143.5,-1842 12858.8,-1842 15063,-6998 3306.9,-8103 -3673.2,-16204 -9551.9,-22466 -1836.6,6630 5143.5,14363 -5143.5,15100 l 3674.5,2578 z m -158711.96,47142 c -3674.48,-368 -10286.99,-2211 -7715.24,-3683 19838.8,-11785 43350.8,-369 64292.4,-7735 6246.2,-2209 12123.6,-2946 18002.3,-5524 37841,-14731 43352.1,-23570 51434.9,-25781 2571.8,-735 14695.4,13259 11388.5,15100 -16899.6,8103 -29390.7,13996 -56578.5,24308 -25348.6,9575 -36003.2,9575 -62823.4,8103 -2571.8,0 -8449.1,-3684 -18000.96,-4788 z m -121238.46,-37934 c 8449.1,5156 32697.57,22834 75314.56,29094 3305.61,369 13960.18,737 14327.76,2947 367.58,1841 -3306.9,3315 -4775.92,3315 -45188.74,-4052 -59884.07,-11786 -87438.15,-24676 -2571.75,-1104 -6981.39,-4788 -6246.23,-8102 735.15,-2578 5878.65,-4052 8817.98,-2578 z m -23513.32,-12890 c -4040.76,736 -7347.67,3314 -5878.65,7366 1470.31,4787 6246.23,12521 10286.99,7365 7347.67,-9575 9551.84,-21729 14695.34,-32777 -10287,-737 -15796.77,11785 -22778.16,18046 l 3674.48,0 z m -26818.92,-15468 c -1470.31,1472 -2939.33,2578 -3674.48,4051 -1469.02,4787 2939.32,11417 7347.66,9208 4408.35,-2211 7715.25,-5525 9551.84,-11787 367.58,-736 2571.75,-2209 2939.33,-2946 1102.73,-3314 4775.92,-7734 3674.48,-9207 -7347.67,-7734 -13226.32,5525 -19838.83,10681 z m -16533.23,-31674 c -6244.93,-368 -9551.83,5893 -8816.68,11418 366.28,2210 3305.61,2578 4040.76,2947 5511.08,2578 20573.99,-16574 16165.65,-19152 -3306.9,-1473 -8817.98,2209 -13961.47,3315 735.15,368 1836.59,737 2571.74,1472 z m -34534.16,-30935 c -2939.33,1473 -6613.81,1473 -8450.41,4051 -1836.59,2946 1836.6,5524 3306.91,5524 6244.93,369 13226.32,-4420 15430.49,-10680 -3306.9,-1106 -6981.39,-2210 -10286.99,-1106 0,0 367.57,1843 0,2211 z m -5143.5,-26886 c -5143.5,1841 -10287,3684 -15062.91,6630 -367.58,736 -735.16,2946 0,3314 2204.17,1474 4775.91,3684 7347.66,2578 5143.5,-1841 14695.34,-5892 10287,-12153 -367.58,-369 -1470.32,-369 -2571.75,-369 z m -7715.25,-15836 c -1102.73,-368 -2939.32,2210 -2204.17,4420 1101.44,2945 5511.08,3682 6980.09,2210 2939.33,-3684 -1102.73,-6630 -4775.92,-6630 z m 8082.83,-55612 c -1102.74,-5156 -5143.5,-14731 -10654.58,-9207 -2939.32,2947 -1836.59,10313 -8450.4,12154 -3305.6,1105 -1101.43,5893 1102.74,6630 8449.1,2945 20206.41,735 18002.24,-9577 z m -27187.8,-44931 c 8082.82,1106 16533.22,-2578 24248.47,1841 367.58,369 735.16,2578 0,3315 -5878.65,6262 -14327.76,1474 -21676.72,3315 -6612.51,1473 -14695.34,3315 -20206.41,-3315 -366.28,-737 -366.28,-3315 0,-3315 5712.4,-2290 11652.1,-2134 17634.66,-1949 1714.5,52 3425.1,108 5143.5,108 l -5143.5,0 z m -18736.1,-112695 c 12123.59,735 17634.66,-1843 29390.67,-2210 1470.31,0 7715.25,3314 8817.98,3314 -2571.75,7365 -2939.33,17678 -3674.48,25043 -1469.02,13259 -1101.44,26149 1102.73,39776 1469.02,10680 -1470.31,20992 -1102.73,31672 -367.58,0 -1101.44,0 -1101.44,369 -1470.31,8103 0,0 -4409.64,7366 -1101.43,2209 -4408.34,2578 -6612.51,1841 -3306.9,-1473 -6246.23,-5524 -5143.5,-9207 4408.34,-15837 7347.67,-14731 5511.08,-30937 -735.16,-5891 -4408.34,-11784 -9184.26,-15468 -1470.31,-1104 -3306.91,-2578 -4042.06,-4419 -3673.19,-8103 0,-17678 -3306.91,-25780 -2204.17,-4788 -8081.52,-6629 -10653.27,-11048 -2204.17,-4052 366.28,-7734 2571.75,-10681 366.28,-737 1836.59,-368 2571.75,-368 -367.58,368 -367.58,368 -735.16,737 z m 400453.77,8102 c 16165.6,-3315 31228.5,-368 47025.3,-2578 5878.6,-737 4042.1,3682 4042.1,4419 -735.2,9576 -11022.2,19519 -5878.7,29463 8082.8,15837 3306.9,31305 6980.1,47877 1102.7,5525 -1836.6,10681 -4408.4,13259 -8082.8,7734 -20941.5,3683 -29390.6,-2578 -4042.1,-2947 -1102.8,-7734 4408.3,-8840 3674.5,-735 7347.7,0 9919.4,-1104 8082.9,-4419 8818,-15099 6980.1,-22097 -1836.6,-6261 -9919.4,-6261 -16899.5,-5524 5878.7,-2210 14327.8,-10312 8450.4,-14363 -4409.6,-2947 -11022.1,-3684 -15430.5,-6999 -2939.3,-1472 -2571.7,-6997 -5143.5,-10312 -3306.9,-4787 -9184.2,-7365 -13226.3,-12153 -2204.2,-2578 -1836.6,-7366 2571.8,-8470 z m 45923.9,107171 c -7715.3,737 -11389.8,-1841 -19105,-1104 -4040.8,5156 12124.9,7734 23880.9,12153 2571.7,369 5511.1,-11049 3306.9,-15836 -3306.9,-6261 -5878.7,1105 -8082.8,4787 z m 0,33146 c -7715.3,0 -13961.5,-5524 -21675.5,-6628 -1102.7,-369 -5511,-369 -3674.5,-3315 2939.4,-4419 8450.5,-5156 12123.6,-8103 3306.9,-3315 11757.3,1841 12491.2,9208 0,367 2204.2,1841 2939.3,2945 735.2,1106 367.6,2947 367.6,4788 -1470.3,-367 -2204.2,1105 -2571.7,1105 z m -32330,28727 c -1102.8,736 -3674.5,4788 -1470.4,5524 4409.7,2210 11022.2,5156 13961.5,6261 8816.7,3315 17634.7,-15837 17267.1,-26149 0,-4050 -7715.2,-2209 -11756,-5156 -3674.5,1106 -2939.3,6630 -4777.2,10681 -2938,5524 -8449.1,4419 -13225,8839 z m -4776,44194 c -367.5,-1841 -2571.7,-4050 -2204.1,-4419 5509.7,-4788 12491.1,-5156 17634.6,-10681 4408.4,7366 -367.5,13259 -4409.6,18784 -2204.2,2946 -7347.7,2946 -9184.3,0 -735.1,-737 -1836.6,-2210 -1836.6,-3684 z m -41147.9,16942 c -367.6,-1842 1102.7,-3315 1836.6,-3683 3306.9,-1106 8082.8,737 10654.5,-737 4040.8,-2578 6980.1,-6997 10287,-10312 4408.4,-4051 11388.5,1105 14327.8,6998 1470.3,2945 0,6629 -1469,8470 -2571.8,2947 -4042.1,7366 -7347.7,9208 -3306.9,1473 -6246.2,3314 -9185.6,4788 -9184.2,3682 -16899.5,-6262 -19103.6,-14732 z m -99929.36,43089 c 1478.11,-44 2938.03,-110 4387.56,-188 l 1752.17,-108 c 21201.33,-1377 39464.63,-6460 59255.43,-15540 4408.3,-2209 9184.3,-6261 13592.6,-8471 3306.9,-1841 6613.8,-6628 11022.1,-4787 6612.6,2946 8450.4,12521 4408.4,15468 -14695.3,11785 -31962.4,15837 -50332.3,20256 -19103.6,4419 -59148.87,6997 -57312.28,-8840 3416.01,0 8523.14,848 13226.32,1492 1528.77,211 3014.66,399 4387.56,530 1215.74,115 2343.15,188 3327.7,188 l -7715.26,0 z m -91847.79,-30935 c 13960.18,20991 38943.81,19519 59150.22,30199 733.86,369 733.86,3314 -1102.74,3314 -17634.66,737 -34901.74,-5156 -50699.81,-13258 -12123.59,-5893 -25717.49,-15836 -18002.24,-29095 3306.9,-5892 7347.67,4052 10654.57,8840 z m -17267.08,-31674 c 5143.49,-4419 9184.26,-8838 15062.91,-4419 1101.44,737 735.16,3684 367.58,5893 -1837.89,6629 -9185.56,5523 -13226.32,9944 -1836.6,2209 -6612.51,2578 -7715.25,1104 -2939.33,-3682 1102.74,-9207 5511.08,-12522 z m -19104.98,-6629 c -2571.75,737 -3673.18,4051 -4775.92,3683 -4040.76,-1473 367.58,-4419 -733.85,-7734 2204.17,368 1836.59,-5157 4408.34,-4420 -735.16,-9943 8082.82,-17309 16164.35,-14362 2939.32,737 6613.81,4787 5143.49,8838 -3673.18,8102 -11388.43,12154 -20206.41,13995 z m -26818.92,-32777 c 424.73,-522 713.08,-1040 892.32,-1552 125.99,-356 200.02,-706 232.5,-1057 288.34,-3055 -2479.53,-5930 -757.24,-8809 1101.43,-2209 4040.76,-2946 6244.93,-3682 8450.4,-2946 17634.66,-2578 26452.64,-1105 3306.91,737 7715.25,3315 4775.92,5156 -10286.99,6630 -23513.31,-2210 -33065.15,8102 -277.96,279 -2235.34,1188 -3651.1,338 -454.61,-274 -857.25,-726 -1124.82,-1443 l 0,4052 z m 2571.75,-30568 c 6612.51,368 15798.07,-10312 16899.5,-2578 367.58,5524 -11020.85,6260 -16899.5,7365 0,-736 0,-4050 0,-4787 z m -1102.74,-38671 c 8082.83,1106 16533.23,-2578 23880.9,1841 735.15,369 735.15,2578 0,3315 -5878.66,6262 -13960.18,1474 -21675.43,3315 -6613.81,1473 -14329.05,3315 -19840.13,-3315 -733.86,-737 -733.86,-3315 0,-3315 5440.94,-2294 11552.09,-2132 17634.66,-1948 1723.6,53 3441.99,107 5143.5,107 l -5143.5,0 z m 5878.66,-45299 c -6244.94,-6629 -9184.26,-13994 -13592.6,-20993 -4042.06,-6997 1836.59,-15100 -2939.33,-21360 -3306.9,-4419 -9919.42,-5524 -13226.32,-9575 -3674.48,-4421 -735.16,-10312 3673.18,-11786 11389.73,-4419 24248.48,-3682 36739.64,-1104 3673.18,368 7715.25,735 11388.43,1841 6246.23,1841 11022.15,7365 8450.4,13627 -3674.48,8470 -10654.57,15100 -14327.75,23569 -4775.92,11050 1469.01,23203 -367.58,35356 -1836.59,11418 -9551.84,19152 -20573.99,21730 -3674.48,736 -7715.25,736 -9551.84,-2578 -7347.67,-12153 9919.42,-13627 14327.76,-21730 1102.73,-2209 1470.31,-5892 0,-6997 z m 207942.76,624248 c 3673.2,-1841 6612.5,-2578 10653.3,-1841 3674.5,737 5511,4419 7348.9,7734 12123.6,20624 17267.1,42721 24614.8,64818 -10654.6,2578 -21309.2,2578 -31963.7,2210 -2204.2,-367 -4408.4,-3314 -4775.9,-5892 -3305.7,-13259 -7347.7,-32777 -12491.2,-53770 -733.9,-2578 3306.9,-11785 6613.8,-13259 z m -32697.6,58190 c -735.1,-16204 -2204.1,-26517 -735.1,-39775 367.5,-3315 2204.1,-6262 5878.6,-7366 5143.5,-1474 11388.4,369 12123.6,5156 3673.2,19519 4775.9,34619 8082.8,51928 -2939.3,737 -9185.5,369 -11022.1,-1472 -4040.8,-5525 -9919.4,-8103 -14327.8,-12522 l 0,4051 z m -28289.21,-16941 c -1470.32,-9207 -2571.75,-18047 735.15,-26518 2204.17,-4787 9919.46,-6260 12857.46,-1104 7715.2,12890 1837.9,28727 3306.9,43090 -8449.1,0 -8816.7,-8840 -12858.75,-13996 -1101.44,-1104 -3305.61,1843 -4040.76,-1472 z m -11389.73,-2578 c 1102.73,-6998 4042.06,-14732 -366.28,-21362 -2571.75,-3682 -7715.25,-4050 -12124.89,-1472 -1469.01,737 -2571.75,2209 -2571.75,3683 367.58,6997 -3305.6,17678 2571.75,19519 3306.91,737 7715.25,737 11389.73,1841 367.58,369 2204.17,-1104 2204.17,-2209 367.58,-6998 -735.15,-6998 -1102.73,0 z m -22778.16,-77709 c -733.86,-3315 2571.75,-3683 4042.06,-4787 2939.33,-1843 9184.26,367 9184.26,3313 0,5156 2204.17,13259 -3306.9,16206 -2938.03,1472 -7347.67,0 -9919.42,3315 -366.28,735 -366.28,2578 0,3313 3306.9,4052 8817.98,4421 12124.88,2210 7715.25,-5892 733.86,-18782 7715.25,-23938 6612.51,-5156 12123.59,2946 14327.76,10312 1836.59,5892 -2939.33,7734 -7347.67,6629 0,2209 0,4052 0,6261 4408.34,-368 10654.57,4419 13226.32,-368 2571.76,-5156 2571.76,-12154 1836.59,-18784 6612.47,-735 12858.77,2210 14695.37,6630 2571.7,6998 -4776,8470 -10654.6,9944 1836.6,7366 13593.9,7366 16899.5,3314 2571.7,-3682 -733.9,-11417 1837.9,-15468 1101.4,-2577 5511.1,0 7715.2,2210 2571.8,3314 -4042,6998 -1837.9,9576 5878.7,6997 17634.7,1472 26452.7,2946 -5878.7,-12154 -5511.1,-26149 -5143.5,-39776 -18737.4,-2578 -37841.1,2211 -55843.32,-2578 -11756.01,-3314 -25349.91,-7366 -34901.75,-736 -4408.34,2947 -6246.23,13626 -1102.73,20256 z m 72744.1,-29464 c 818.3,-204 1482,-131 2043.1,123 567.6,256 1027.4,698 1428.8,1218 l 111.7,150 c 1270.3,1746 1973,4259 3764.1,4034 6612.5,-369 12858.7,-4051 19471.2,-4051 4040.8,369 9919.5,4051 11388.5,1473 5511,-8838 -5143.5,-18415 -14327.8,-19888 -5511.1,-1105 -12123.6,5157 -17267.1,1842 -9551.8,-5524 -19838.8,-9576 -30861,-6629 -4775.9,1105 -5143.5,6629 -8816.64,9207 -1470.31,1105 0,4052 1101.44,4420 4775.9,1841 9919.4,367 14695.3,-2211 6982.7,-4135 12865.3,4642 19311.5,10435 472.8,424 949.5,832 1428.8,1218 353.3,286 705.3,556 1061.1,813 201.4,147 407.9,289 610.5,424 l -1245.6,-623 -3897.9,-1955 z m -61354.37,-62608 c -2204.17,737 -6612.51,1474 -4775.92,4787 2204.17,3684 6244.93,1474 8082.82,-368 2938.03,-2578 -2939.32,-2210 -3306.9,-4419 z m 73845.57,-15469 c 4775.9,-368 6244.9,-6260 7347.6,-10312 1836.6,-6997 0,-14363 -4042,-19887 -1101.4,-1473 -5511.1,-3315 -8081.5,-1473 -2205.5,1473 -5878.7,2210 -5143.5,6260 -4042.1,0 -6246.3,2947 -8818,5157 -1102.8,1105 -1836.6,4052 -2939.3,4419 -23145.78,5524 -45923.94,-736 -68702.1,2946 1470.31,4052 -4040.76,8471 367.58,11049 1470.31,1106 6613.81,2578 7347.67,-1841 4775.92,1104 9553.13,4419 9919.41,9944 3306.91,-1105 5143.5,-5156 8082.83,-5893 5511.07,-1473 8817.98,3315 9551.84,8471 0,736 367.57,-368 367.57,-1105 0,2209 735.16,5156 -367.57,5893 -2204.17,1472 -6612.52,-737 -8081.53,1104 -2571.75,2211 0,5893 3305.61,6630 4042.06,1104 9185.56,1841 10654.57,-369 4408.34,-4787 0,-13627 4042.06,-19519 1469.01,-2209 6612.56,-2578 7713.96,0 2571.7,5524 2571.7,11417 -4408.4,15469 -367.5,367 0,2209 0,3682 11389.8,-369 23880.9,2209 33800.4,-3682 4408.3,-2947 367.5,-16206 8082.8,-16943 z m -66130.33,-144737 c 19103.68,1842 38208.63,3683 57312.33,2946 -1836.6,11050 5878.7,27255 -6612.5,34252 -6246.2,3682 -13961.5,2578 -19838.8,368 -8818.02,-3315 -7347.7,-15836 -11022.19,-24307 -735.16,-2578 -4040.77,-3683 -6246.24,-4788 -6244.93,-2947 -14327.75,-2947 -18736.09,-9575 1836.59,0 3306.9,1104 5143.49,1104 z m -6613.81,-97227 c 20206.41,-5525 40412.84,7365 58782.64,-1106 2571.8,11049 2939.3,22466 367.6,33146 -2204.2,9575 -16899.5,15468 -24982.3,9208 -11389.78,-8839 -12491.21,-25780 -25349.96,-33883 -2939.32,-1841 -7347.66,-1841 -11022.15,-2578 -1836.59,0 -5877.35,-1841 -3673.18,-4050 1101.43,-1106 4040.76,0 5877.35,-737 z m 29391.97,-86548 c 277.97,-1020 459.77,-2055 579.27,-3091 832.6,-7210 -1446.91,-14730 2726.3,-20847 1837.9,-2579 7349,-2947 10654.6,-2579 1837.9,368 3306.9,4051 3306.9,5892 1102.8,12522 6980.1,26886 -735.1,35724 -7715.3,9208 -26083.8,5156 -39310.13,1841 -4408.34,-1104 -5511.07,-9575 -2204.17,-11047 8081.53,-3315 16899.51,-6630 24982.33,-11050 l 0,5157 z m 10286.97,-46037 c 5511.1,-5523 -3306.9,-9206 -367.6,-11784 7715.3,-6262 14695.4,12521 10654.6,18414 -6246.2,9207 -19838.8,5156 -30493.38,4051 -3306.91,-369 -5878.66,-6260 -2571.75,-7366 6980.09,-2578 15062.93,-368 22778.13,-1105 0,0 -367.6,-1841 0,-2210 z"
       id="path29"
       style="fill:#ffffff"
       inkscape:connector-curvature="0" /><path
       d="m 802684.87,13649049 35.07,18 3.89,0 c 228.6,115 470.19,248 707.88,391 211.72,126 450.71,280 698.79,445 1371.6,925 2574.35,2221 2574.35,2872 l -2.6,0 5.19,201 0,10 c 74.04,3288 -759.83,6755 -1587.21,10203 -1636.56,6822 -3260.14,13580 3180.92,17588 l 31.17,21 c 3803.07,2542 8799.8,2183 13427.65,1851 1587.21,-114 3138.05,-226 4600.57,-226 l 16.89,0 0,4 c 3642.01,-1 7578.86,-854 11284.52,-2479 898.81,-395 1791.13,-840 2663.96,-1332 4447.31,-2503 8320.52,-6197 10596.13,-10931 l 2310.68,1117 c -2519.8,5245 -6777.47,9315 -11650.81,12058 -937.77,528 -1906.73,1012 -2895.16,1446 -4022.58,1764 -8317.92,2687 -12309.32,2691 l 0,4 -16.89,0 c -1400.17,0 -2892.57,107 -4417.43,217 -5038.29,361 -10474.03,752 -14997.97,-2255 -8008.79,-4983 -6170.9,-12641 -4314.83,-20368 787.12,-3278 1579.42,-6577 1514.48,-9550 l -7.79,-234 -3.9,-36 c 0,-126 -667.62,-225 -1428.75,-738 -171.45,-112 -366.28,-237 -577.99,-363 l -5.2,-4 c -184.44,-111 -372.77,-216 -550.72,-306 l 1.3,-1 -32.47,-17 1145.6,-2297 z m -67992.88,-7735 c 68.84,1825 326.01,3587 762.43,5214 716.97,2675 1926.22,4953 3604.35,6513 1617.08,1504 3712.15,2355 6264.41,2258 872.84,-34 1811.92,-182 2818.54,-453 l 66.24,-15 33.77,-6 0,-1 c 666.31,-145 1336.53,-344 1997.65,-586 678.01,-250 1348.22,-547 1993.75,-881 3284.83,-1705 6151.42,-4462 7119.07,-7523 l 35.07,-138 2.6,0 c 305.23,-1261 532.53,-2673 765.03,-4114 880.63,-5451 1830.1,-11307 7302.21,-13566 l 50.65,-18 c 4735.66,-1726 8465.99,700 12367.77,3243 3253.66,2120 6652.78,4334 10646.78,3693 l 401.35,2537 c -4966.85,797 -8786.81,-1691 -12445.7,-4075 -3340.68,-2178 -6534.58,-4258 -10058.4,-2996 -4134.28,1717 -4965.55,6828 -5733.18,11585 -240.29,1494 -477.98,2960 -809.19,4324 l 0,10 -35.07,139 -19.48,65 c -1159.89,3779 -4552.52,7116 -8415.33,9120 -750.75,388 -1518.38,730 -2282.11,1010 -778.02,285 -1565.13,519 -2339.25,687 l -3.9,0 c -1171.57,313 -2296.38,487 -3369.25,528 -3284.82,125 -5992.95,-985 -8101,-2944 -2045.71,-1904 -3499.14,-4603 -4339.5,-7732 -481.88,-1797 -766.33,-3755 -842.97,-5789 l 2562.66,-89 z m 44222.39,5936 -10.4,14 -19.48,35 c -302.63,406 -588.38,815 -837.76,1211 -268.87,426 -518.25,857 -733.86,1280 l 5.19,4 c -1013.11,1996 -1476.8,4104 -315.62,5462 l 70.14,79 25.98,41 c 722.16,1087 1632.67,2067 2527.58,3033 1858.68,2006 3691.37,3977 4258.97,6931 103.91,386 194.83,781 270.17,1188 749.44,3942 -167.56,7527 -2197.68,10382 -2004.14,2820 -5098.04,4913 -8732.25,5905 -476.69,131 -933.89,237 -1365.11,320 l -5.19,0 c -6047.51,1136 -11801.47,948 -17403.47,-42 -5552.64,-980 -10957.21,-2756 -16350.09,-4807 l -6554.06,-2492 7006.07,0 1102.73,0 0,326 c 5042.19,1894 10084.38,3524 15238.26,4436 5324.04,942 10777.97,1122 16482.57,52 l 0,-1 c 428.63,-82 824.78,-174 1175.48,-269 3060.12,-836 5655.24,-2578 7316.49,-4919 1636.57,-2300 2373.02,-5209 1763.86,-8419 -58.45,-315 -138.98,-651 -233.8,-1002 l -19.48,-106 c -409.14,-2259 -2009.34,-3981 -3630.32,-5731 -981.94,-1059 -1979.47,-2133 -2792.56,-3356 -1887.25,-2328 -1343.02,-5393 70.14,-8180 l 5.19,0 c 262.37,-516 548.12,-1013 845.56,-1483 316.93,-502 636.45,-965 946.88,-1382 l 575.39,430 1514.48,1060 z m 23318.48,-10853 c 2999.08,285 5968.28,-971 8851.75,-2193 4300.54,-1822 8443.91,-3576 12963.95,-964 5147.4,2889 6490.42,7408 5929.31,12224 -413.04,3539 -1885.95,7219 -3595.25,10473 1080.65,-232 2160.01,-422 3238.07,-613 3969.32,-709 7899.68,-1408 10571.44,-3864 l 19.48,-19 c 1054.68,-925 2130.14,-1697 3184.82,-2455 l -2.6,-1 c 1891.14,-1358 3730.33,-2679 5047.38,-4659 l 2128.84,1430 c -1582.02,2380 -3601.75,3831 -5679.93,5323 l -3.9,0 c -1007.92,723 -2034.02,1461 -2987.38,2295 l -1.3,-1 c -3230.27,2952 -7510.03,3716 -11835.24,4488 -1974.27,350 -3964.13,705 -5755.26,1253 l 1.3,2 -137.68,43 -3215.99,1007 1732.69,-2893 c 2128.83,-3559 4260.27,-7994 4738.25,-12100 446.81,-3836 -598.78,-7424 -4633.05,-9690 l -15.58,-9 c -3422.51,-1986 -6990.48,-474 -10697.44,1098 -3175.72,1343 -6447.55,2731 -10086.97,2382 l 240.29,-2557 z"
       id="path31"
       style="fill:#ffffff;fill-rule:nonzero"
       inkscape:connector-curvature="0" /><path
       d="m 990987.52,13645915 25.98,60 m 63719.6,6489 1.3,-5 m -103680.42,-21529 c 1131.31,-304 2243.14,-538 3319.89,-699 1467.72,-219 2913.35,-314 4318.72,-293 7239.86,112 13249.7,3346 17445.03,8390 l -929.99,775 c 1188.46,9 2393.81,131 3577.07,336 3192.61,553 6274.81,1742 8523.14,3070 -103.91,-905 -80.53,-1771 84.43,-2599 439.01,-2203 1830.1,-4060 4371.97,-5548 4849.95,-3125 10312.96,-3389 14922.66,-1526 901.4,365 1771.6,812 2596.4,1335 830,523 1615.8,1123 2338,1787 l 37.6,34 40.3,35 c 1098.8,1102 2601.6,2809 3794,4693 l -2.6,1 c 241.6,382 467.6,763 667.6,1136 l 2.6,-2 c 209.1,387 405.2,784 576.7,1184 l 0,6 7.8,20 6.5,10 c 993.6,2392 1292.3,4686 1243,6826 -3.9,203 -16.9,399 -27.3,600 1336.5,177 2701.6,527 4003.1,857 l 5.2,0 c 2391.2,609 4542.1,1154 4965.5,410 l 11.7,-20 1.3,1 c 937.8,-1657 1309.3,-3968 1682.1,-6298 759.8,-4736 1535.2,-9553 6733.3,-11209 3151,-1086 6454,-1129 9515.4,-363 2723.8,681 5268.2,2014 7354.2,3831 2104.2,1830 3749.8,4154 4661.6,6807 893.6,2598 1085.9,5507 322.1,8571 l -3.9,16 c -1337.8,5031 -5427.9,6986 -9233.6,8805 -836.4,400 -1662.5,792 -2348.3,1162 l -16.9,11 -5.2,3 -10.4,8 c -1346.9,913 -2732.8,1724 -4139.5,2410 -1419.6,694 -2901.6,1284 -4427.8,1754 -7639.9,2349 -16081.2,1511 -23962.7,-4259 -3005.6,3536 -7050.2,6057 -11554.7,7825 -6955.41,2732 -15009.66,3674 -21928.7,3862 l -61.05,-2570 c 6672.26,-180 14421.27,-1081 21055.85,-3686 6445,-2533 11840.5,-6689 14103.1,-13396 349.4,-1582 700.1,-3336 742.9,-5182 41.6,-1816 -213,-3765 -1053.4,-5789 l 1.3,0 -2.6,-6 -1.3,1 c -136.3,-319 -297.4,-646 -474,-973 l 0,-5 c -181.9,-341 -376.7,-668 -574.1,-979 l -5.2,0 c -1067.7,-1687 -2436.7,-3239 -3443.3,-4249 l 1.3,-1 c -614.4,-565 -1274.2,-1071 -1962.6,-1505 -692.3,-438 -1427.5,-815 -2186,-1122 -3890.1,-1573 -8510.14,-1341 -12613.25,1321 l -55.85,34 c -1854.77,1085 -2856.2,2367 -3148.44,3837 -306.53,1538 105.21,3380 1072.86,5500 l 31.17,70 -2336.65,1069 -3.9,-10 0,-1 -23.38,-54 c -316.92,-633 -1236.52,-1414 -2541.87,-2198 -2015.84,-1212 -4827.88,-2307 -7759.41,-2815 -2866.59,-496 -5826.7,-427 -8199.72,653 l -1.3,-2 c -1385.89,634 -2586.04,1629 -3451.08,3074 l -674.11,1125 -1105.33,-691 c -1027.4,-643 -1897.64,-1421 -2771.78,-2200 -1607.99,-1438 -3251.05,-2905 -5805.91,-3131 -2367.83,-19 -2727.61,-1024 -3218.58,-2428 l -2.6,0 c -172.75,-495 -383.17,-1087 -923.49,-1630 -1055.98,-1059 -1676.84,-2031 -2218.46,-2885 -826.08,-1298 -1428.75,-2242 -4043.36,-2645 l -285.75,-44 -236.4,-158 -25.97,-17 2.6,-2 -909.21,-595 -1.3,1 -955.96,-599 c -1571.62,-966 -3079.6,-1824 -4083.63,-2332 -3392.63,-1071 -7130.75,-2140 -10657.17,-2228 -3392.63,-83 -6650.17,747 -9301.15,3403 -3903.09,3912 -4831.77,9087 -4357.69,14538 492.27,5651 2484.73,11643 4296.64,16909 l -2430.17,836 c -1861.27,-5414 -3913.48,-11581 -4429.13,-17525 -535.13,-6148 558.52,-12028 5101.94,-16582 3226.37,-3236 7134.65,-4248 11180.61,-4147 3891.39,93 7851.63,1227 11423.5,2358 l 75.33,22 111.71,57 c 1104.03,553 2767.87,1482 4413.53,2496 l 6.5,5 961.16,603 20.78,16 729.96,478 c 2440.56,414 3597.85,1186 4465.49,2221 z m 66632.92,22127 c -144.1,901 -322.1,1760 -502.6,2574 l -11.7,52 -24.7,74 c -636.4,1914 -1495,3639 -2530.2,5195 7142.5,5212 14770.7,5970 21667.7,3848 1365.1,-418 2723.7,-964 4053.7,-1613 1337.8,-654 2625,-1404 3843.4,-2231 l 15.5,-10 55.9,-35 89.6,-56 c 865.1,-472 1696.3,-871 2536.7,-1271 3287.4,-1570 6820.3,-3262 7854.2,-7125 633.9,-2545 475.4,-4959 -263.7,-7107 -761.1,-2214 -2141.8,-4163 -3909.5,-5700 -1782.1,-1551 -3961.6,-2692 -6298.2,-3277 -2602.9,-651 -5404.6,-613 -8075.1,310 l -29.8,9 c -3707,1173 -4355.1,5202 -4990.3,9161 -411.7,2566 -822.1,5113 -1984.6,7168 l 0,4 -11.7,21 c -1392.4,2441 -4440.8,1669 -7829.6,807 l 0,-1 c -1211.8,-308 -2483.4,-635 -3655,-797 z m -85324.86,-408 c 198.73,-2008 -514.35,-4156 -1249.5,-6382 -500.07,-1508 -1013.12,-3052 -1307.96,-4683 l -224.7,-1243 1233.92,-246 c 2109.35,-422 3423.8,-404 4657.72,127 l 6.49,0 c 1192.36,513 2089.88,1411 3478.36,2802 l 18.18,26 31.18,33 5.19,4 c 1932.71,2061 4740.85,3575 7491.84,5057 4470.69,2409 8815.39,4751 10051.9,9461 l -2482.12,655 c -953.37,-3632 -4812.29,-5710 -8784.21,-7850 -2936.73,-1582 -5931.91,-3198 -8146.47,-5560 l 1.3,-1 -3.9,-3 -2.6,3 c -1180.66,-1183 -1941.8,-1946 -2674.36,-2261 l 1.3,-2 c -474.08,-202 -1039.09,-262 -1849.58,-175 261.07,1029 597.48,2051 928.69,3050 824.78,2494 1623.58,4899 1370.3,7441 l -2550.97,-253 z m -15683.77,27271 c 4483.68,-1585 8054.25,-4631 11672.88,-7719 1278.08,-1090 2565.26,-2188 3757.61,-3128 l 25.98,-14 11.69,-9 3.9,-6 c 235.09,-174 552.01,-380 924.79,-596 350.69,-203 753.34,-414 1172.87,-611 2424.98,-1136 5829.3,-1957 7369.75,-26 1375.5,1726 3023.75,2362 4652.53,2987 l 1.3,-4 c 1643.06,632 3274.43,1262 4808.39,2798 l -1819.71,1825 c -1155.99,-1159 -2523.69,-1687 -3901.78,-2215 l 0,-7 c -1953.49,-751 -3931.66,-1515 -5739.68,-3782 -566.3,-708 -2683.45,0 -4286.25,751 -363.68,171 -700.09,347 -981.94,508 -253.28,146 -475.38,292 -654.63,424 l 1.3,2 c -1350.81,1064 -2524.99,2066 -3688.77,3057 -3808.26,3251 -7564.57,6454 -12476.87,8192 l -853.36,-2427 z m 56794.08,-40746 c -3687.47,-4030 -8764.72,-6574 -14808.33,-6667 -1249.51,-19 -2561.36,70 -3919.97,273 -706.58,105 -1422.26,240 -2144.42,408 363.68,537 806.59,1119 1419.65,1735 945.58,948 1262.5,1848 1526.17,2598 l 0,4 c 142.87,408 246.78,704 870.24,704 l 105.2,4 c 3425.1,285 5400.68,2049 7335.98,3778 475.38,424 950.77,842 1436.54,1226 1050.78,-1326 2347.05,-2285 3800.48,-2949 l 3.89,-6 c 1353.42,-617 2836.72,-967 4374.57,-1108 z"
       id="path33"
       style="fill:#ffffff;fill-rule:nonzero"
       inkscape:connector-curvature="0" /><path
       d="m 1218569.1,13629899 35.1,16 3.9,0 c 228.6,115 471.4,250 707.8,392 213,127 450.7,280 698.8,446 1372.9,923 2574.4,2221 2574.4,2872 l -2.6,0 5.2,201 0,9 c 74,3289 -758.6,6756 -1585.9,10204 -1637.9,6820 -3260.2,13580 3179.6,17588 l 35,26 c 3769.3,2519 8528.4,2182 13179.6,1851 1637.9,-116 3266.6,-232 4844.8,-232 l 18.1,0 0,4 c 3631.7,-1 7562,-907 11244.3,-2579 904,-410 1792.4,-866 2643.2,-1359 4399.2,-2547 8184.1,-6234 10277.9,-10785 l 2331.4,1079 c -2328.8,5060 -6494.3,9135 -11322.1,11931 -940.4,543 -1904.2,1039 -2874.4,1480 -3999.2,1815 -8299.8,2800 -12300.3,2802 l 0,6 -18.1,0 c -1521,0 -3087.4,110 -4661.7,222 -5066.8,360 -10248,728 -14752.4,-2263 l -1.3,3 c -8008.8,-4983 -6170.9,-12642 -4314.9,-20369 787.1,-3279 1579.5,-6577 1514.5,-9549 l -7.8,-235 -3.9,-35 c 0,-126 -666.3,-227 -1428.7,-738 -171.5,-114 -366.3,-239 -578,-365 l -5.2,-4 c -183.2,-109 -372.8,-216 -550.7,-306 l 1.3,-1 -32.5,-16 1145.6,-2296 z m -93406.4,8708 c 1415.7,129 2627.6,259 3822.5,386 6550.2,701 12957.5,1387 21059.8,-712 l 0,-2 41.5,-11 c 683.2,-198 1370.3,-433 2040.6,-706 674.1,-272 1350.8,-587 2010.6,-934 3269.2,-1732 6069.6,-4314 6764.5,-7341 l 20.8,-76 c 437.7,-1492 755.9,-3151 1071.5,-4804 1028.7,-5382 2061.3,-10764 7386.6,-12964 l 6.5,0 c 4804.5,-1970 8573.8,536 12528.9,3166 3221.2,2143 6590.4,4382 10529.9,3752 l 401.3,2538 c -4930.5,790 -8724.5,-1732 -12349.6,-4145 -3377,-2246 -6596.9,-4386 -10142.8,-2934 l 1.3,1 c -4039.5,1668 -4940.9,6370 -5839.7,11070 -320.8,1690 -649.4,3387 -1123.5,5011 -897.5,3823 -4214.8,6965 -8060.8,9001 -731.2,388 -1488.5,739 -2250.9,1046 -770.2,311 -1540.4,579 -2292.5,796 l -40.2,11 -31.2,6 c -8573.8,2226 -15214.9,1516 -22004.1,790 -1315.7,-141 -2637.9,-283 -3782.2,-387 l 231.2,-2558 z m 55649.7,-7895 c -1035.2,1384 -2070.3,2933 -2565.2,4421 -422.1,1273 -441.6,2528 348.1,3597 l 2.6,-2 29.9,39 -2.6,1 c 748.1,957 1637.8,1862 2508.1,2747 2088.5,2121 4094,4160 4681.1,7297 l 1.3,0 c 53.2,241 103.9,483 145.4,717 l 0,6 c 749.5,4130 -172.7,7894 -2305.4,10860 -2113.3,2941 -5412.4,5084 -9429.8,5998 l 0,2 -6.5,0 c -237.7,56 -507.8,109 -807.9,164 l 0,2 c -6046.2,1136 -11800.2,950 -17403.4,-41 -5552.7,-981 -10957.3,-2757 -16350.1,-4807 l -6555.4,-2492 7007.4,0 1470.3,0 0,467 c 4917.5,1836 9844.1,3406 14869.4,4294 5327.9,943 10781.8,1122 16490.3,51 l 9.1,0 c 205.2,-37 442.9,-87 704,-146 l 5.2,0 c 3397.8,-773 6167,-2555 7917.9,-4991 1732.7,-2411 2479.5,-5498 1863.8,-8903 l -1.3,0 c -36.3,-204 -79.2,-414 -125.9,-618 l -10.4,-56 c -430,-2378 -2178.2,-4153 -3997.9,-6000 -910.5,-926 -1841.8,-1873 -2700.4,-2973 l -3.9,0 -29.8,-39 -10.4,-19 c -1400.2,-1873 -1417.1,-3930 -741.7,-5961 605.3,-1823 1779.5,-3595 2945.8,-5155 l 2048.3,1540 z m 37364.4,-13830 c 3048.5,436 6069.6,-793 9001.2,-1987 4226.5,-1720 8304.9,-3377 12754.8,-806 l 0,-1 c 5147.4,2890 6491.7,7410 5929.3,12226 -413,3538 -1892.4,7219 -3600.5,10471 1079.4,-230 2165.3,-422 3243.3,-613 3970.6,-707 7899.7,-1408 10571.5,-3862 l 20.7,-21 c 1053.4,-923 2128.9,-1696 3183.5,-2453 l -1.3,-1 c 1889.9,-1360 3730.4,-2680 5046.1,-4659 l 2128.9,1430 c -1582,2379 -3601.8,3830 -5680,5322 l -3.9,0 c -1006.6,722 -2034,1460 -2987.3,2296 l -1.3,-1 c -3230.3,2953 -7508.8,3716 -11835.3,4486 -1974.3,352 -3964.1,705 -5755.2,1253 l 2.6,4 -139,43 -3217.3,1006 1734,-2894 c 2128.8,-3559 4260.2,-7992 4738.2,-12100 449.4,-3836 -600,-7425 -4631.7,-9688 l -16.9,-11 c -3364.1,-1952 -6877.5,-522 -10519.5,960 -3245.9,1321 -6593,2683 -10326,2149 l 361.1,-2549 z"
       id="path35"
       style="fill:#428ece;fill-opacity:1;fill-rule:nonzero"
       inkscape:connector-curvature="0" /><path
       d="m 973971.12,13523605 -46.76,-17 -10.39,0 c -1109.23,-426 -2266.52,-939 -3431.6,-1527 -1158.59,-586 -2317.17,-1242 -3430.3,-1957 -5934.5,-3814 -10867.58,-9432 -9693.41,-15617 l 10.39,-51 c 270.16,-1177 802.7,-2055 1511.88,-2674 679.3,-596 1496.29,-933 2378.22,-1060 810.49,-114 1679.42,-52 2545.77,147 2121.04,493 4339.5,1845 5683.82,3378 l 55.85,61 c 2096.37,2290 4342.1,4217 6687.85,5801 2352.24,1586 4818.78,2845 7354.16,3794 13101.63,4912 28172.3,1759 39750.4,-5465 l 1422.3,2141 -66.3,47 -3.9,2 c -2444.4,1755 -4875.9,3852 -6502.1,6254 -1558.6,2303 -2384.7,4925 -1737.9,7841 l -2502.9,553 c -820.9,-3707 189.7,-6985 2121.1,-9836 137.6,-203 277.9,-406 423.4,-605 -10642.9,4404 -22841.81,5583 -33797.72,1475 -2722.42,-1021 -5368.2,-2369 -7886.69,-4067 -2524.99,-1703 -4923.99,-3759 -7150.25,-6193 l -5.19,-5 -59.75,-68 -16.88,-19 c -1015.71,-1166 -2714.63,-2205 -4342.1,-2580 -570.2,-132 -1124.82,-175 -1610.59,-108 -413.04,59 -776.72,202 -1054.68,446 -307.83,269 -550.72,694 -692.29,1302 -906.61,4911 3409.51,9630 8563.4,12939 1045.59,672 2124.94,1287 3197.8,1827 1065.07,538 2143.12,1014 3192.61,1417 l -1.3,2 37.66,16 -893.61,2406 z m -57039.57,2620 c -189.63,-1719 -380.57,-3733 -183.14,-5611 218.21,-2083 911.8,-3977 2552.27,-5152 971.55,-776 2147.02,-1588 3321.19,-2403 1163.78,-808 2334.06,-1621 3183.51,-2297 l -1.3,-2 c 1098.84,-979 1227.43,-2955 1359.91,-5005 200.03,-3140 414.34,-6426 3596.55,-8390 l 1.3,4 c 2131.44,-1402 4808.39,-1503 7404.82,-1600 1796.33,-65 3557.59,-136 4795.4,-658 1689.82,-1005 3097.79,-2701 4505.76,-4401 2093.77,-2524 4197.92,-5063 7494.44,-6007 l 14.29,0 31.17,-8 6.49,-7 c 620.86,-166 1274.19,-282 1947,-346 654.62,-62 1314.45,-75 1965.18,-47 l 6.49,0 c 3316,158 6734.61,1439 9529.76,3121 l 31.17,20 c 6511.2,4170 13647.15,7977 20879.22,9778 7099.59,1768 14321.27,1600 21158.47,-2085 1953.5,-1117 3716.1,-2480 5450,-3822 2806.9,-2168 5554,-4294 9101.2,-5479 l 64.9,-20 c 2099,-573 4204.4,-1053 6216.4,-1198 2114.5,-151 4157.6,61 6028,895 l 89.6,40 c 4977.3,2688 6289.1,7332 7723.1,12416 l 251.9,891 10.4,36 c 418.3,1680 2013.3,2701 4075.9,3313 2330.1,691 5244.8,866 7904.8,866 l 0,2578 c -2848.4,0 -5999.4,-196 -8628.3,-977 -2891.3,-859 -5160.4,-2420 -5842.3,-5153 l -242.9,-857 c -1278.1,-4531 -2448.3,-8670 -6456.6,-10841 -1415.8,-610 -3023.8,-759 -4730.5,-638 -1834,130 -3762.8,570 -5690.3,1095 -3106.9,1044 -5679.9,3037 -8307.5,5065 -1811.9,1402 -3656.3,2828 -5759.2,4033 l -26,14 c -7481.4,4038 -15322.65,4238 -23004.13,2325 -7539.9,-1877 -14909.65,-5800 -21613.08,-10089 l 0,1 c -2475.63,-1489 -5472.11,-2623 -8336.1,-2758 l 0,-2 c -548.12,-24 -1088.45,-13 -1609.29,36 -505.26,48 -1017.01,141 -1524.87,278 l -1.3,-4 -11.69,2 1.3,4 c -2543.17,728 -4390.15,2957 -6226.75,5172 -1569.02,1894 -3140.65,3789 -5237.01,5014 l -33.77,20 -92.22,41 c -1702.81,758 -3736.83,835 -5818.91,913 -2254.82,83 -4583.68,171 -6109.85,1191 l -40.26,30 c -2050.91,1266 -2221.06,3869 -2379.52,6357 -167.55,2588 -328.61,5084 -2215.86,6765 l -55.85,42 c -981.94,786 -2180.79,1621 -3375.75,2448 -1189.75,827 -2384.71,1656 -3236.76,2340 l -54.56,44 c -928.68,665 -1341.72,1907 -1488.49,3319 -168.85,1619 6.49,3475 183.14,5069 l -2550.97,281 z m 126045.55,-26710 -1.3,-4 m 9041.4,20463 c -2237.9,-518 -4190.1,-1531 -6078.7,-2513 -2201.6,-1143 -4316.1,-2241 -6493,-2241 l 0,-4 c -3718.6,0 -5828,4062 -7746.4,7760 l -5.2,0 c -483.2,930 -959.9,1848 -1426.2,2649 l -2218.4,-1291 c 472.8,-815 919.6,-1673 1372.9,-2545 l -2.6,-2 c 2260,-4356 4743.4,-9140 10025.9,-9140 l 0,-5 c 2788.7,0 5179.9,1241 7667.2,2534 1745.7,907 3549.8,1842 5477.3,2289 l -572.8,2509 z m -121278.74,4867 c 2196.38,-587 3440.69,-2478 4679.81,-4366 1617.08,-2463 3238.06,-4930 6800.84,-5599 l 14.29,-4 49.36,-9 5.19,0 c 929.99,-160 1883.35,-247 2836.72,-256 962.46,-9 1905.43,57 2806.84,195 l 0,7 c 4788.91,742 9095.94,3522 11129.96,8184 l -2352.24,1027 c -1653.45,-3790 -5204.55,-6061 -9167.38,-6674 l -1.3,5 c -802.69,-123 -1607.99,-182 -2395.1,-175 -792.3,7 -1605.39,83 -2419.78,224 l 0,1 -49.36,9 0,-1 c -2486.02,474 -3805.67,2476 -5117.52,4475 -1511.87,2302 -3026.35,4606 -6165.7,5445 l -654.63,-2488 z"
       id="path37"
       style="fill:#ffffff;fill-rule:nonzero"
       inkscape:connector-curvature="0" /><path
       d="m 1159018.8,13523670 c -5717.6,-894 -11370.2,-622 -16941,369 -5609.8,997 -11145.6,2726 -16587.8,4726 l -885.9,-2415 c 5576.1,-2048 11254.7,-3820 17030.7,-4849 5812.4,-1033 11737.9,-1314 17775,-368 l -391,2537 z m -33866.5,-7709 105.2,9 c 541.6,39 1100.1,36 1654.7,-9 562.4,-44 1118.3,-132 1652.2,-255 2709.4,-620 5090.2,-2155 5967,-4136 l 24.6,-54 c 475.4,-955 602.7,-1772 468.9,-2448 -146.7,-732 -624.7,-1354 -1309.2,-1840 -783.2,-557 -1830.1,-945 -2987.4,-1151 -2179.5,-388 -4669.4,-120 -6547.6,884 l -1206.6,-2264 c 2397.7,-1281 5511,-1635 8197.1,-1158 1513.2,269 2925,808 4031.7,1595 1205.3,857 2061.3,2007 2344.4,3430 236.4,1194 55.9,2553 -676.7,4045 l 1.3,0 -9.1,17 -15.6,38 -1.3,-1 c -1232.6,2716 -4290.1,4768 -7708.7,5552 -667.6,153 -1350.8,260 -2026.2,316 -680.7,55 -1372.9,59 -2054.8,8 l -10.4,0 -103.9,-8 210.4,-2570 z m 57963,15413 -72.7,-20 0,-2 c -1469,-410 -3027.7,-797 -4583.7,-1186 -8038.7,-1997 -16117.6,-4010 -20675.3,-11463 -300,-444 -596.2,-910 -878,-1397 l -1.3,1 c -2425,-4169 -3810.9,-9410 -3596.6,-14286 37.7,-868 131.2,-1719 272.8,-2558 -639.1,-155 -1300.2,-335 -1963.9,-533 l -6.5,0 c -1192.4,-357 -2410.7,-786 -3606.9,-1289 l -5.2,0 c -5667,-2384 -10867.6,-6420 -11653.4,-12473 -1111.9,550 -2254.9,1076 -3414.7,1604 -5441,2475 -11244.3,5115 -13291.3,10761 l -2409.4,-876 c 2418.5,-6668 8728.4,-9540 14644.7,-12232 1770.3,-803 3508.2,-1595 5014.9,-2433 l 26,-14 1996.3,-1112 -90.9,2285 c -235.1,5876 4718.8,9818 10172.7,12113 l -1.3,1 c 1104,466 2239.2,864 3353.7,1198 l 0,1 c 614.3,184 1232.6,352 1840.5,497 950.7,-2986 2693.8,-5607 5399.3,-7456 258.5,-177 535.2,-352 822.2,-520 l 63.6,-38 52,-23 48.1,-21 c 611.7,-276 1281.9,-530 1984.6,-750 l 5.2,0 c 705.3,-219 1444.4,-405 2188.6,-545 3978.4,-745 8560.8,-305 11540.4,2682 l 14.3,14 -2.6,4 c 913.1,870 1780.7,1853 2574.3,2919 793.6,1069 1518.4,2232 2149.7,3452 3274.4,6324 4084.9,14311 -193.6,20312 l -2088.5,-1491 c 3649.8,-5120 2884.7,-12077 2.5,-17644 -566.3,-1094 -1217,-2137 -1930.1,-3098 -705.2,-950 -1480.7,-1829 -2301.5,-2605 l -29.9,-25 -14.3,-14 c -2283.4,-2288 -5985.2,-2589 -9249.2,-1978 -662.4,125 -1304.1,287 -1901.5,471 l 0,2 c -598.8,187 -1170.3,403 -1692.5,639 l -13,7 c -194.8,117 -389.6,243 -583.1,375 -3410.9,2332 -4972.1,6251 -5160.4,10502 -192.3,4386 1061.1,9109 3252.3,12876 l 0,4 c 245.5,421 507.9,841 784.5,1246 l 35.1,54 c 4004.4,6596 11587.2,8483 19129.7,10358 1543,384 3087.4,770 4659,1207 l 6.5,0 71.4,21 -693.6,2476 z m -15140.8,-27763 c 980.6,1375 1771.6,2668 2273,4026 l 0,4 c 526,1429 739,2916 529.9,4605 l -2552.2,-312 c 157.1,-1254 0,-2352 -385.8,-3401 l -1.3,0 c -416.9,-1125 -1098.8,-2235 -1952.2,-3432 l 2088.6,-1490 z"
       id="path39"
       style="fill:#428ece;fill-opacity:1;fill-rule:nonzero"
       inkscape:connector-curvature="0" /><path
       d="m 834032.92,13528838 c 5981.27,-1094 11859.92,-809 17678.83,264 5830.59,1075 11583.26,2935 17324.23,4977 l -853.35,2427 c -5644.86,-2009 -11287.12,-3835 -16934.58,-4875 -5595.5,-1031 -11229.97,-1302 -16937.17,-231 l -444.21,-2377 c -4913.6,5367 -11983.31,7127 -18993.27,8867 -1571.63,392 -3145.85,782 -4626.55,1196 l 0,2 -72.74,21 -693.59,-2477 72.73,-21 5.2,0 c 1583.31,-442 3143.25,-830 4701.88,-1217 7551.59,-1876 15177.22,-3772 19475.15,-10377 l 1.3,1 c 205.22,-324 418.24,-686 636.45,-1078 2122.34,-3798 3422.5,-8602 3231.57,-13057 -187.04,-4301 -1787.24,-8267 -5429.25,-10588 l -3.9,-6 c -177.94,-114 -368.87,-229 -561.11,-335 l -29.87,-19 -72.74,-44 -14.28,-9 c -457.2,-264 -967.66,-500 -1509.28,-694 -549.42,-197 -1162.48,-363 -1815.81,-488 -3225.08,-621 -7064.52,-141 -9349.22,2148 l -12.99,13 -2.59,-3 c -778.02,782 -1520.97,1664 -2204.18,2618 -687.09,958 -1327.43,2007 -1895.04,3113 -2856.2,5571 -3801.77,12533 -158.46,17645 l -2088.57,1491 c -4283.65,-6009 -3271.83,-13993 -32.47,-20313 620.86,-1209 1326.14,-2366 2095.07,-3435 771.52,-1077 1601.49,-2065 2466.54,-2934 l 0,-6 12.98,-13 c 2949.72,-2956 7711.35,-3612 11650.81,-2853 749.44,143 1493.69,348 2198.97,602 709.18,254 1369,556 1945.7,894 l 14.28,9 57.15,33 c 232.5,129 465,267 685.8,410 2810.74,1793 4621.36,4344 5630.57,7263 590.99,-120 1198.86,-263 1801.53,-425 1120.92,-298 2250.93,-665 3338.08,-1099 5438.33,-2161 10381.81,-6096 10146.71,-11973 l -84.42,-2172 1936.6,971 1.3,-1 c 1220.93,578 2515.9,1134 3836.84,1699 6502.11,2781 13622.48,5832 15916.27,13060 l -2441.86,774 c -1932.71,-6097 -8491.97,-8907 -14478.43,-11468 -744.25,-319 -1480.7,-638 -2198.97,-956 -737.76,6115 -5976.07,10181 -11691.07,12453 -1214.44,484 -2437.97,884 -3627.72,1200 -606.57,163 -1207.95,306 -1801.53,430 177.95,947 289.65,1914 331.21,2898 213.02,4939 -1219.63,10244 -3554.99,14426 -216.91,387 -458.49,793 -722.16,1208 l -5.2,9 c -572.8,880 -1193.65,1684 -1852.18,2422 z m 34577.03,-2569 c -5220.13,0 -10072.68,-2074 -12154.76,-6216 l -2.59,1 c -750.75,-1420 -945.58,-2731 -720.87,-3894 262.37,-1359 1084.55,-2466 2248.33,-3298 1059.87,-757 2415.88,-1284 3879.7,-1564 l 5.2,0 c 2744.5,-522 5981.26,-187 8450.4,1133 l -1206.64,2264 c -1940.5,-1036 -4536.93,-1293 -6765.78,-870 l 0,2 c -1120.92,215 -2130.14,597 -2875.68,1129 -641.64,457 -1084.55,1028 -1211.84,1688 -118.2,608 10.39,1347 467.59,2213 l 10.39,24 c 1598.9,3206 5557.83,4810 9876.55,4810 l 0,2578 z m -41264.87,-13359 c -806.6,970 -1375.5,2029 -1739.18,3164 -366.28,1147 -531.23,2400 -531.23,3750 l -2571.75,0 c 0,-1595 205.22,-3108 662.42,-4536 459.79,-1440 1183.26,-2784 2209.36,-4018 l 1970.38,1640 z"
       id="path41"
       style="fill:#ffffff;fill-rule:nonzero"
       inkscape:connector-curvature="0" /><g
       id="_46912696"
       transform="matrix(0.12988629,0,0,0.13020414,226345.61,12360499)"><path
         id="_46918952"
         d="m 4353650,9084930 0,-636430 0,-25450 25460,0 492170,0 0,50910 -466710,0 0,610970 -50920,0 z m -118800,79190 0,-845730 0,-25460 25460,0 707140,0 0,50920 -681680,0 0,820270 -50920,0 z"
         style="fill:#ffffff;fill-rule:nonzero"
         inkscape:connector-curvature="0" /><path
         id="_46917864"
         d="m 3694600,10272900 0,-715620 0,-25450 25460,0 924930,0 0,50910 -899470,0 0,690160 -50920,0 z m -115970,79200 0,-922100 0,-25360 25460,0 1100300,0 0,50710 -1074840,0 0,896750 -50920,0 z"
         style="fill:#ffffff;fill-rule:nonzero"
         inkscape:connector-curvature="0" /><path
         id="_46916776"
         d="m 5100390,10253100 0,-794820 0,-25450 25450,0 1080510,0 0,50910 -1055050,0 0,769360 -50910,0 z m -118800,79200 0,-1001300 0,-25460 25460,0 1298300,0 0,50920 -1272850,0 0,975840 -50910,0 z"
         style="fill:#ffffff;fill-rule:nonzero"
         inkscape:connector-curvature="0" /><path
         id="_46915528"
         d="m 5188070,9084930 0,-636430 10,-25450 25450,0 1080500,0 0,50910 -1055040,0 0,610970 -50920,0 z m -115970,79190 0,-845730 0,-25360 25460,0 1295470,0 0,50720 -1270010,0 0,820370 -50920,0 z"
         style="fill:#ffffff;fill-rule:nonzero"
         inkscape:connector-curvature="0" /><path
         id="_46914736"
         d="m 6612240,9084930 0,-636430 0,-15550 15560,0 885340,0 15550,0 0,15550 0,636430 0,15550 -15550,0 -885340,0 -15560,0 0,-15550 z m 31120,-620870 0,605310 854220,0 0,-605310 -854220,0 z"
         style="fill:#428ece;fill-opacity:1;fill-rule:nonzero"
         inkscape:connector-curvature="0" /><path
         id="_25245768"
         d="m 6745240,10190900 0,-712800 -10,-15570 15510,20 1405790,0 15490,-20 10,15570 0,712800 -10,15550 -15490,0 -1405790,0 -15510,0 10,-15550 z m 31000,-697240 0,681680 1374790,0 0,-681680 -1374790,0 z"
         style="fill:#428ece;fill-opacity:1;fill-rule:nonzero"
         inkscape:connector-curvature="0" /></g></g></svg>