<?xml version="1.0" encoding="UTF-8" standalone="no"?>
<svg
   xmlns:dc="http://purl.org/dc/elements/1.1/"
   xmlns:cc="http://creativecommons.org/ns#"
   xmlns:rdf="http://www.w3.org/1999/02/22-rdf-syntax-ns#"
   xmlns:svg="http://www.w3.org/2000/svg"
   xmlns="http://www.w3.org/2000/svg"
   xmlns:sodipodi="http://sodipodi.sourceforge.net/DTD/sodipodi-0.dtd"
   xmlns:inkscape="http://www.inkscape.org/namespaces/inkscape"
   width="52.880001"
   height="65"
   shape-rendering="geometricPrecision"
   text-rendering="geometricPrecision"
   image-rendering="optimizeQuality"
   clip-rule="evenodd"
   viewBox="0 0 982522.31 1207715"
   version="1.1"
   style="fill-rule:evenodd"
   id="svg2"
   inkscape:version="0.48.4 r9939"
   sodipodi:docname="Emblem_of_Israel.svg">
  <defs
     id="defs40" />
  <sodipodi:namedview
     pagecolor="#ffffff"
     bordercolor="#666666"
     borderopacity="1"
     objecttolerance="10"
     gridtolerance="10"
     guidetolerance="10"
     inkscape:pageopacity="0"
     inkscape:pageshadow="2"
     inkscape:window-width="1081"
     inkscape:window-height="686"
     id="namedview38"
     showgrid="false"
     fit-margin-top="0"
     fit-margin-left="0"
     fit-margin-right="0"
     fit-margin-bottom="0"
     inkscape:zoom="3.5589067"
     inkscape:cx="82.756035"
     inkscape:cy="62.153558"
     inkscape:window-x="1942"
     inkscape:window-y="172"
     inkscape:window-maximized="0"
     inkscape:current-layer="svg2"
     borderlayer="false"
     inkscape:showpageshadow="true"
     showborder="true" />
  <metadata
     id="metadata4">
    <rdf:RDF>
      <cc:Work
         rdf:about="">
        <dc:format>image/svg+xml</dc:format>
        <dc:type
           rdf:resource="http://purl.org/dc/dcmitype/StillImage" />
      </cc:Work>
    </rdf:RDF>
  </metadata>
  <g
     id="Layer_x0020_1"
     transform="matrix(0.05577825,0,0,0.05577825,34686.534,28714.879)">
    <path
       d="m 16106544,291084.44 0,14600110.56 c 0,0 83383,3482248 -4248584,3962690 -262058,27795 -2977970.9,-27794 -3672839.9,1012516 C 7490251.1,18826091 4774337.9,18881680 4512281,18853885 180313.12,18373443 263697.4,14891195 263697.4,14891195 l 0,-14600110.56 z"
       id="path8"
       style="fill:#ffffff;stroke:#0077b9;stroke-width:1770901.375;stroke-miterlimit:4;stroke-opacity:1;stroke-dasharray:none"
       sodipodi:nodetypes="cccccccc"
       inkscape:connector-curvature="0" />
    <path
       d="m 15781007,759622.69 0,13925034.31 c 0,0 79411,3319454 -4054020,3776087 -246180,27795 -2839010.4,-27794 -3502098,964858 -659128.8,-992652 -3251958.9,-937063 -3502111.8,-964858 C 593303.96,18004111 668756.91,14684657 668756.91,14684657 l 0,-13925034.31 15112208.09,0 z"
       id="path10"
       style="fill:#0077b9;stroke:none"
       inkscape:connector-curvature="0" />
    <g
       transform="matrix(1.4037758,0,0,1.4037758,-86432.361,-97536.849)"
       id="g9">
      <polygon
         points="3457000,9263120 3457000,10431300 8395640,10431300 8395640,9263120 7747900,9263120 7747900,8210910 4113230,8210910 4113230,9263120 "
         id="polygon12"
         style="fill:#ffffff;stroke:#ffffff;stroke-width:637524.375" />
      <polygon
         points="6500520,9175440 7660220,9175440 7660220,8318390 6500520,8318390 "
         id="polygon14"
         style="fill:#0077b9" />
      <polygon
         points="6588200,10332300 8316440,10332300 8316440,9350810 6588200,9350810 "
         id="polygon16"
         style="fill:#0077b9" />
    </g>
    <path
       d="m 9054717.1,8441462.9 0,382528.9 c 0,0 -182645.3,39712.9 -182645.3,138973.8 0,95288.3 0,135001.2 -67507.6,150877.9 0,0 -55589.5,39712.7 -11904,138973.8 0,0 39698.7,55589.6 39698.7,135001 0,0 138973.9,55589.6 138973.9,250152.9 l 95302.3,0 0,289865.7 -178686.6,0 c 0,0 -15876.7,27794.1 -15876.7,67492.9 0,43671.2 -39712.9,206481.2 -11918,250153.2 27794.7,39698 83384.2,95288 111179,135002 27794.8,43672 341482.5,170740 397072,802076 15876.7,150877 99261,190589 305728.3,246179 l -2866790.9,0 c 178672.5,-55590 369263.2,-95302 385139.9,-246179 55589.6,-631336 373250,-758404 397072.1,-802076 27794.7,-39714 83384.2,-95304 111178.9,-135002 27794.9,-43672 -11918,-206482 -11918,-250153.2 0,-39698.8 -15876.7,-67492.9 -15876.7,-67492.9 l -178686.6,0 0,-289865.7 95302.4,0 c 0,-194563.3 138973.8,-250152.9 138973.8,-250152.9 0,-79411.4 43671.5,-135001 43671.5,-135001 39712.7,-99261.1 -15876.8,-138973.8 -15876.8,-138973.8 -67507.6,-15876.7 -67507.6,-55589.6 -67507.6,-150877.9 0,-99260.9 -178672.6,-138973.8 -178672.6,-138973.8 l 0,-375173.1 c -193819.3,-19470.4 -333537.1,-37775.5 -333537.1,-37775.5 -83384.3,11917.9 -412948.7,-123083.1 -412948.7,-123083.1 -95288.3,0 -206467.4,-83384.4 -206467.4,-83384.4 l -35740.2,-15890.7 c -349413.7,0 -289851.5,-158823.2 -289851.5,-158823.2 -198536,-3972.6 -357359.2,-218385.3 -357359.2,-218385.3 -186618,-35740.1 -301769.8,-234262.1 -301769.8,-234262.1 -186617.9,-27794.8 -250152.8,-262071.1 -250152.8,-262071.1 -75438.8,-15876.6 -198535.9,-250138.7 -198535.9,-250138.7 -55589.6,7931.3 -178672.6,-198536 -178672.6,-198536 -178686.6,-138973.8 -254125.5,-428825.5 -254125.5,-428825.5 -158823.3,-123097.1 -214412.8,-440743.4 -250153,-488401.6 -91315.5,-127055.7 -119110.4,-218385.4 -142932.4,-254111.5 -63534.9,-83384.4 -55589.5,-373250 -83384.4,-484415 -27794.6,-103247.6 -19863.2,-79425.7 -55589.4,-329564.5 -43685.5,-289865.6 -63534.9,-516182.4 -63534.9,-516182.4 7945.4,-194563.2 0,-401044.6 0,-401044.6 0,0 7945.4,-142932.5 7945.4,-254111.5 0,-111179.1 55589.5,-289865.7 -55589.5,-456634.3 -111179.1,-162795.8 -55589.6,-345441 138973.8,-412934.7 186617.8,-67507.6 401030.7,-55589.5 508237,0 111179,55575.5 166768.5,281906.3 55589.5,393085.3 -111179,111179 -23822,424866.9 -47644.2,536031.9 -19863.4,99274.9 35726.1,408976.1 35726.1,408976.1 39712.9,55589.4 19863.5,123097.1 55589.6,166768.5 67507.5,79411.5 19863.5,150891.8 19863.5,150891.8 0,0 -19863.5,111179.1 -7945.5,190590.6 15876.8,83384.3 83384.4,178672.6 83384.4,178672.6 -15890.8,127069.8 11903.9,277947.7 11903.9,277947.7 0,0 103247.8,234262.1 166768.6,385153.9 39712.8,95288.4 7945.3,123083 119124.4,277947.7 0,0 39712.8,254111.4 59562.3,281906.2 0,0 95288.2,170741.2 178672.5,293838.3 0,0 111179.1,103233.8 174713.9,210440.2 0,0 186618,150877.7 281906.3,309714.9 0,0 218385.4,59548.2 270016.3,186618 19849.4,51616.9 293824.3,162795.9 480442.3,321619.1 27794.8,23822.1 262056.9,146905.2 309715,150877.8 0,0 178672.6,47658.2 250138.8,119124.5 0,0 329564.6,67507.5 385153.9,95288.3 0,0 163680.4,36989.4 262857,50634.1 5502.9,-129793 38912.9,-340485.8 38912.9,-340485.8 -9953,-13939.5 -18417.7,-45875.4 -25675.2,-88353.7 -106209.7,-12802.4 -160942.9,-26798.1 -160942.9,-26798.1 -107206.4,3972.8 -397057.9,-127055.7 -397057.9,-127055.7 -277947.6,-23822 -357359.3,-150877.8 -357359.3,-150877.8 -186618,-27794.8 -262070.8,-150891.9 -262070.8,-150891.9 -79411.7,-11904 -242207.6,-138973.8 -242207.6,-138973.8 -103233.7,-11904 -222358,-226330.8 -222358,-226330.8 -27794.9,-19849.3 -158823.2,-111165 -158823.2,-111165 -142946.5,-67507.5 -281906.3,-412948.6 -317646.5,-460606.8 -87356.9,-127055.8 -115151.6,-218385.5 -142946.5,-254111.6 -63534.9,-83384.3 -178672.5,-333537.2 -206467.3,-440743.5 -27794.8,-107206.4 -59562.2,-150891.8 -95302.3,-401030.6 -43671.4,-289865.7 -79411.6,-599566.7 -79411.6,-599566.7 7945.3,-194563.4 -11904.1,-305742.4 -11904.1,-305742.4 0,0 -7945.3,-182645.3 -7945.3,-293824.3 0,-111179.1 -67507.5,-373250 -178686.6,-540018.6 -111179.1,-162795.9 27794.7,-301769.6 222358,-369263.1 186618,-67507.7 440743.6,-15876.8 551922.6,39712.7 107206.5,55575.5 162795.8,281906.3 51616.9,393085.3 -107206.4,111179 -23822.1,424866.9 -47644.3,536031.9 -19849.3,99274.9 -19849.3,393099.3 -19849.3,393099.3 43671.5,55589.5 27794.8,71466.2 27794.8,127055.7 0,55589.6 35726,162795.9 35726,162795.9 0,0 19863.5,111179 3972.8,194563.3 -15876.8,99275.1 27794.7,178686.6 27794.7,178686.6 111179.1,27794.8 83384.2,373236.1 83384.2,373236.1 0,0 142946.6,178672.5 206467.4,329564.3 43685.4,95288.4 131042.4,194563.3 242221.5,345441.2 0,0 166754.5,170741.2 186618,198536 0,0 83384.3,75439 166768.5,202508.6 0,0 206467.4,75438.9 266029.7,178672.6 0,0 222358,27794.8 297796.9,103233.8 0,0 273975,131028.3 365290.6,170741.2 32455.2,16227.7 90641.8,35192.7 140546,48135.5 19737.2,-99569.8 57990.1,-172103 57990.1,-199027.4 0,-39698.7 -27794.9,-95288.3 -55589.6,-138959.8 -6134.6,-10247.5 -6190.7,-40807.7 -3172.6,-84549.4 -430467.8,-29872.3 -728966.7,-274424.2 -834629,-383988.8 -111178.9,-111179 -55589.4,-135001.1 -138973.8,-162795.8 -83384.2,-27794.8 -178672.5,-234276.2 -262056.8,-317660.6 -75452.9,-75438.8 -55589.5,-234262.1 -138973.8,-412934.6 -123097.1,-273974.9 -150891.9,-623402.8 -150891.9,-623402.8 -111179.1,-135001.1 -27794.7,-329564.4 -27794.7,-329564.4 0,0 -27794.8,-250138.8 -27794.8,-357345.2 0,-111179 -67493.5,-373249.9 -178672.6,-540018.5 -111179.1,-162795.9 27794.8,-301769.7 222358.1,-369263.3 186617.9,-67507.6 702800.3,0 810006.7,51617 111179,55589.4 138973.9,250152.8 27794.8,361331.7 -107206.4,107206.4 -246180.1,357359.2 -273975,468538.3 -27794.7,111179.1 -27794.7,480442.3 -27794.7,480442.3 39712.8,55589.5 27794.7,71466.2 27794.7,127055.8 0,51616.8 -39698.7,107206.3 -39698.7,107206.3 0,0 51616.8,289865.7 135001.1,345455.2 83384.3,55589.5 55589.6,194563.3 55589.6,194563.3 111165,27794.7 166754.5,289851.7 166754.5,289851.7 0,0 83384.3,27794.7 178686.5,162795.8 111179.1,162796 329564.5,210440.1 496333.1,234262.1 l 4197.2,687.9 c -10051,-165392.9 -20087.9,-288672.5 -20087.9,-342156.3 0,-71466.2 43685.4,-166768.6 43685.4,-166768.6 -15890.7,-55589.5 67493.5,-83384.3 67493.5,-83384.3 0,0 -95288.2,-95288.3 -95288.2,-178672.5 0,-83384.4 55589.6,-138973.9 55589.6,-138973.9 -43685.6,-55589.5 55589.3,-111178.9 0,-123097.1 -55589.6,-15876.7 -71480.3,-111178.9 -83384.4,-166768.5 -11918,-55589.6 67493.7,-150877.9 67493.7,-150877.9 0,0 43685.4,0 15890.7,-55589.5 -27794.9,-55589.5 -83384.4,-95302.2 -83384.4,-138973.8 0,-39712.9 95288.3,-95288.3 95288.3,-95288.3 -27794.6,-39712.8 -11903.9,-111179 -11903.9,-190590.6 0,-83384.3 27794.7,-154864.6 27794.7,-234276.2 0,-83384.2 -262070.9,-277947.6 -262070.9,-361331.9 0,-83384.3 -55589.5,-289851.6 83384.2,-357359.2 135001.3,-67493.5 329564.5,-250138.8 742513.3,-111165 412948.6,138959.8 357359.2,305728.4 305742.3,385139.9 -55589.5,83384.3 -210454.1,333537.1 -250152.9,416921.5 -39712.7,79411.6 -11918,234276.1 15876.8,301769.7 23822,67507.5 39712.7,273974.9 11918,385153.9 0,0 27794.7,111179.1 27794.7,194563.3 0,83384.4 27794.9,301769.7 0,345441.2 0,0 55589.6,39712.8 55589.6,95302.4 0,55589.6 -55589.6,83384.2 -55589.6,83384.2 l -55589.5,123083.1 c 0,0 55589.5,11918 55589.5,123097.1 0,111165 -15890.7,222344 -15890.7,222344 0,0 -2582.9,88044.9 5011.4,211956.2 43264.4,-9138.7 80675.1,-17112.2 106167.7,-21365.6 166768.6,-23822 222358.1,-11903.9 385154,-123083 75438.8,-47644.1 250152.8,-234262.1 250152.8,-234262.1 0,0 55589.5,-262070.8 166768.5,-289865.7 0,0 -27794.7,-138973.8 55589.6,-190590.6 79411.6,-55589.6 123083,-416921.4 123083,-416921.4 0,0 0,-39698.8 0,-95288.2 0,-55589.6 -55589.5,-83384.4 -15876.7,-138973.9 0,0 -27794.7,-313673.7 -55589.5,-424852.8 -27794.7,-111179.1 -162795.9,-361331.9 -273974.9,-468538.3 -111179,-111178.9 138973.8,-373249.9 246180.2,-428825.4 111179,-55589.5 408975.3,-51630.9 595593.8,15876.7 190591,67493.6 182645,178672.7 135001,369263.3 -39699,178686.6 -51616,484429 -51616,595608 0,107206.4 -27794,357345.3 -27794,357345.3 0,0 135000,218385.3 27794,357359.2 0,0 0,266043.5 -127056,540018.4 -79413,178672.5 -103234,321619.1 -178687.3,397058 -83383.7,83384.4 -178672.1,333537.2 -262056.5,361331.9 -83384.3,23822.1 -27794.8,51616.8 -135001.1,162795.9 -105255.2,105255.1 -456086.8,285275.3 -870537.6,347939.9 16620.8,150105.8 26124.3,309181.5 23064.1,468636.5 21814.6,-1951.3 43166.1,-6387.2 65261.6,-14515.1 55589.5,-19849.4 408976,-202494.7 408976,-202494.7 75438.9,-75438.8 293824.3,-115151.7 293824.3,-115151.7 63520.8,-103233.6 285879,-194563.2 285879,-194563.2 79411.2,-190590.8 329563.5,-321619.1 329563.5,-321619.1 19864,-27794.8 115152,-63535 115152,-63535 79412,-150877.8 146919,-226316.7 174714,-329564.4 39699,-154850.6 206468,-401030.7 206468,-401030.7 0,0 -55590,-289851.7 55589,-317646.4 0,0 -11918,-107206.3 -27794,-206481.4 -15878,-83384.3 7945,-194563.3 7945,-194563.3 0,0 31767,-107206.3 31767,-162795.9 0,-55589.5 0,-166768.5 43672,-222344 0,0 -15876,-198536.1 -35740,-297811 -23823,-111165 -19850,-341468.5 -131029,-452647.5 -111179,-111179.2 27796,-365304.6 138975,-420894.2 111177,-55575.5 206466,-150877.8 452646,-138959.7 206482,11904 389128,206467.3 277949,373235.8 -111179,166768.7 -138975,468538.3 -138975,579717.4 0,111179 35740,242207.5 35740,242207.5 0,0 -19849,107206.2 -15876,301769.6 0,0 -19864,365290.6 -59562,655156.3 -35741,250138.8 -71480,293824.2 -99276,401030.6 -27794,107206.3 -142931,496333.1 -206466,575744.6 -23823,35726.1 -51617,131028.5 -142947,258084.2 -35740,47658.2 -158823,309715 -305742,377222.7 0,0 -107207,111164.9 -135002,135001 0,0 -99261,202494.8 -202494,218385.5 0,0 -178687.3,83370.1 -254125.5,95288.3 0,0 -7945.5,83384.3 -194563.7,111178.9 0,0 -166768.6,170741.4 -508237.1,206467.5 0,0 -345441,142946.4 -456620.1,138973.8 l -13658.8,-631.8 c -547.3,63773.6 -5039.5,113383 -18108.6,131660.3 0,0 17771.8,139605.4 24902.9,258491.1 79706.5,-16466.2 165687.7,-40105.7 165687.7,-40105.7 55589.5,-27780.8 389126.6,-95288.3 389126.6,-95288.3 67493.6,-71466.3 301755.6,-91329.8 301755.6,-91329.8 47658.3,-3972.7 325606.3,-115137.7 353387,-135001 182659,-158823.3 444716,-242207.6 468537,-297797.1 47660,-123083 349415,-242207.4 349415,-242207.4 95302,-158823.2 146919,-226330.9 146919,-226330.9 59562,-103233.6 198535,-289851.5 198535,-289851.5 83386,-123083.2 234263,-270002.2 234263,-270002.2 27795,-87357 75439,-281920.4 75439,-281920.4 111179,-150877.8 47658,-194563.4 91329,-289851.5 63536,-150892 123098,-385154.1 123098,-385154.1 0,0 39699,-138973.7 27794,-262056.8 0,0 0,-138973.9 11905,-222358.2 15890,-79411.5 35740,-135001 35740,-135001 0,0 -35740,-127069.9 35740,-206481.4 35726,-43671.4 -27795,-250153 11904,-305728.4 0,0 43672,-170741.3 19849,-270016.2 -23822,-111165 35740,-397058 -75439,-508237.1 -111180,-111179 -27794,-365304.6 83385,-420880.1 111178,-55589.5 321618,-107220.4 512209,-39712.7 190591,67493.5 246180,289851.6 135001,452647.4 -111179,166768.6 -55589,345455.2 -55589,456634.3 0,111179 7944,254111.5 7944,254111.5 0,0 35741,194563.3 43672,385153.9 0,0 -23821,230303.5 -63520,516182.4 -35740,250152.9 -27795,230303.4 -55590,333537.3 -27794,111178.9 -63535,412948.5 -123097,496332.9 -23821,27794.7 -31753,210440 -131028,349413.8 -35740,51616.8 -19849,214412.7 -178673,337509.8 0,0 -75452,373236 -258098,512209.8 0,0 -79411,206467.3 -135001,198536 0,0 -166768,234262.1 -242207,250138.8 0,0 -79412,222358.1 -234262,246180.1 0,0 -174715,218385.5 -412950,262070.9 0,0 -91329,214412.7 -289866,222358.2 0,0 -7931,115137.6 -345440,115137.6 -103233.8,0 -91330.3,55589.5 -186618.3,83384.4 -95302.3,27794.6 -206481.4,55589.4 -289851.6,67507.5 -62046.9,11819.7 -260344.2,67577.7 -397072,101886 z"
       id="path18"
       style="fill:#ffffff;stroke:#ffffff;stroke-width:191773.15625"
       inkscape:connector-curvature="0" />
    <g
       id="_24599736"
       transform="matrix(1.4037758,0,0,1.4037758,-86432.361,-97536.849)">
      <path
         id="_46086368"
         d="m 1742910,1297940 c 206750,357630 191540,699420 172540,1103140 0,0 96170,-302660 121630,-557230 25450,-257390 -127290,-506310 -166890,-565710 -39600,-59390 -138600,-359220 -138600,-359220 0,0 -14140,141430 -135770,367710 -124450,226280 -144250,438420 -147080,579850 -8490,217800 203650,738250 220620,766540 22630,48080 8490,687330 8490,687330 -226280,-186680 -328110,-282850 -401650,-398820 -127290,-195170 -178200,-557220 -178200,-557220 0,0 132940,149910 212140,229110 79200,79200 268710,398820 268710,398820 39600,-432770 -627940,-987160 -627940,-987160 0,0 -53740,735420 178200,1088990 155570,240430 568540,412970 568540,412970 l 0,274370 -99000,-62230 c 0,0 31120,-90520 -8480,-158400 0,0 -99000,-79200 -178200,-39600 -76370,39600 -56570,138600 -19800,198000 39600,59400 130110,39600 130110,39600 0,0 132940,118800 166880,200820 19800,48090 8490,746740 8490,746740 -226280,-186680 -299830,-308310 -373370,-424280 -127280,-195170 -206480,-520450 -206480,-520450 0,0 158400,127280 237600,206480 76370,79200 223450,364880 223450,364880 39600,-432770 -627940,-1052220 -627940,-1052220 0,0 -39590,726940 178200,1091820 178200,299830 568540,466710 568540,466710 l 0,268710 -147080,-107480 c 0,0 28280,-87690 -8490,-158400 0,0 -99000,-76370 -178200,-39600 -79200,39600 -59400,138600 -19800,198000 39600,59400 127290,39600 127290,39600 0,0 183850,192340 217790,274370 19800,48080 8490,746730 8490,746730 -226280,-186680 -299830,-308310 -373370,-421450 -127280,-198000 -206480,-520450 -206480,-520450 0,0 158400,127280 237600,203650 76370,79200 223450,364880 223450,364880 39600,-432760 -627940,-1052210 -627940,-1052210 0,0 -39590,726930 178200,1091810 178200,302660 574200,469540 574200,469540 l -5660,285680 -147080,-107480 c 0,0 28280,-87680 -8490,-158400 0,0 -99000,-76370 -178200,-36770 -79200,36770 -59400,135770 -19800,195170 39600,59400 127290,39600 127290,39600 0,0 183850,192340 217790,274370 19800,48080 8490,746730 8490,746730 -226280,-186680 -299830,-308310 -373370,-421450 -127280,-198000 -206480,-520450 -206480,-520450 0,0 158400,127280 237600,206480 76370,76370 223450,362060 223450,362060 39600,-432770 -627940,-1052220 -627940,-1052220 0,0 -39590,726930 178200,1091820 178200,302650 568540,472360 568540,472360 l 0,362060 -147080,-107490 c 0,0 28280,-87680 -8490,-158400 0,0 -99000,-76370 -178200,-39600 -79200,39600 -59400,138600 -19800,198000 39600,59400 127290,39600 127290,39600 0,0 183850,192340 217790,274370 19800,48090 8490,746740 8490,746740 -226280,-186690 -299830,-308320 -373370,-421460 -127280,-198000 -206480,-520450 -206480,-520450 0,0 158400,127290 237600,203660 76370,79190 223450,364880 223450,364880 39600,-432770 -627940,-1052220 -627940,-1052220 0,0 -39590,726940 178200,1091820 178200,302650 568540,461050 568540,461050 l 0,362050 -147080,-107480 c 0,0 28280,-87690 -8490,-155570 0,0 -99000,-79200 -178200,-39600 -79200,39600 -59400,135770 -19800,195170 39600,59400 127290,39600 127290,39600 0,0 183850,195170 217790,274370 19800,50910 8490,746730 8490,746730 -226280,-186680 -299830,-308310 -373370,-421450 -127280,-195170 -206480,-520450 -206480,-520450 0,0 158400,127280 237600,206480 76370,79200 223450,362060 223450,362060 39600,-429940 -627940,-1049390 -627940,-1049390 0,0 -39590,726930 178200,1088980 178200,302660 588340,472370 588340,472370 19800,195170 59400,452570 59400,452570 -178200,-99000 -138600,-178200 -138600,-178200 0,0 19800,-79200 -39600,-138600 -56570,-56570 -115970,-96170 -195170,-56570 -79200,39600 -39600,115970 -19800,175370 19800,59400 118800,99000 118800,99000 59400,79200 342250,294170 342250,294170 246090,698650 893820,865530 893820,865530 l -124450,-427110 c 0,0 -523280,-132940 -565710,-407310 0,0 -25460,-189510 73540,-373370 0,0 152740,-31110 166890,-90510 11310,-59400 5650,-141430 -79200,-172540 -82030,-31110 -115970,-16970 -169720,48080 -50910,65060 -22620,110320 -22620,110320 0,0 96170,124450 -70720,240420 0,0 -104650,-296990 -104650,-494990 0,0 135770,-407310 319620,-707140 76370,-124450 243260,-367710 243260,-367710 0,540250 -373370,1021110 -373370,1021110 520450,-305490 560050,-1021110 560050,-1131420 0,-107490 -62230,-398830 -62230,-398830 0,0 -356390,478030 -463880,693000 -107480,212140 -149910,325280 -229110,557220 0,0 -14140,-438420 0,-489340 25460,-84850 217800,-305480 217800,-305480 0,0 87680,11310 121620,-53740 33950,-62230 42430,-161230 -39600,-192340 -82020,-31120 -172540,56570 -172540,56570 -31110,73540 8490,158400 8490,158400 l -135770,121620 5660,-444080 c 0,0 135770,-367710 319620,-667530 76370,-124460 243260,-370540 243260,-370540 0,540250 -373370,1021100 -373370,1021100 520450,-302650 531760,-1040900 531760,-1148390 0,-107480 -33940,-379020 -33940,-379020 0,0 -376190,449740 -483680,661880 -107480,212140 -130110,316790 -209310,545910 0,0 -14140,-396000 0,-446910 25460,-84860 217800,-305490 217800,-305490 0,0 87680,8490 121620,-53740 33950,-62230 42430,-161230 -39600,-192340 -82020,-31110 -172540,56570 -172540,56570 -31110,73540 8490,158400 8490,158400 l -135770,121630 5660,-455400 c 0,0 135770,-367710 319620,-667540 76370,-124450 243260,-370530 243260,-370530 0,540250 -373370,1021100 -373370,1021100 520450,-302650 560050,-1021100 560050,-1128590 0,-107480 -62230,-398820 -62230,-398820 0,0 -356390,429930 -463880,642080 -107480,212140 -149910,336590 -229110,565700 0,0 -14140,-395990 0,-446910 25460,-84850 217800,-305480 217800,-305480 0,0 87680,8490 121620,-53740 33950,-62230 42430,-161230 -39600,-192340 -82020,-31120 -172540,56570 -172540,56570 -31110,73540 8490,158400 8490,158400 l -135770,121620 5660,-387510 c 0,0 107480,-379020 291340,-676020 76370,-124450 183850,-299820 183850,-299820 0,537420 -305480,910790 -305480,910790 520450,-302660 500650,-862710 500650,-970190 0,-110320 -14140,-469540 -14140,-469540 0,0 -362060,381850 -472370,593990 -107480,212140 -110310,345090 -189510,577030 0,0 -14140,-387510 0,-438430 25460,-84850 138600,-277200 138600,-277200 0,0 96170,33950 132940,-22620 48080,-73550 62230,-130120 -31120,-183860 -76370,-45260 -161220,28290 -161220,28290 -31120,73540 5660,138600 5660,138600 l -84860,101820 5660,-316790 c 0,0 67880,-379030 251740,-678850 76370,-124460 223450,-359230 223450,-359230 0,540250 -285680,874020 -285680,874020 452570,-325280 531760,-905130 531760,-1012620 0,-107480 -33940,-432770 -33940,-432770 0,0 -412970,435600 -523280,647740 -107480,212140 -141430,396000 -169710,625110 0,0 -14140,-435600 0,-486510 25460,-84860 107480,-237600 107480,-237600 0,0 70720,19800 104660,-42430 33940,-62220 2830,-132940 -59400,-164050 -79200,-42430 -113140,16970 -113140,16970 -31120,73540 5660,158400 5660,158400 l -65060,53740 -5660,-319630 c 0,0 104660,-356390 288510,-656220 76370,-124450 271540,-370540 271540,-370540 0,540260 -294170,854220 -294170,854220 520460,-302650 480860,-786330 480860,-893820 0,-288510 -33950,-373360 -33950,-373360 0,0 -444080,398820 -551560,613790 -107490,212140 -147090,427110 -223460,659050 -1880,-656220 -3760,-1312440 -5650,-1968670 z"
         style="fill:#ffffff"
         inkscape:connector-curvature="0" />
      <path
         id="_24599776"
         d="m 2189820,11452400 c 0,0 226280,166880 282850,178190 59400,8490 70710,0 59400,56580 -8490,59390 -19800,70710 -79200,31110 -56570,-39600 -183850,-118800 -263050,-265880 z"
         style="fill:#0077b9"
         inkscape:connector-curvature="0" />
    </g>
    <g
       id="_24600528"
       transform="matrix(1.4037758,0,0,1.4037758,-86432.361,-97536.849)">
      <path
         id="_24598960"
         d="m 10138080,10417170 c 0,0 -18726,221506 -73550,506310 178200,-99000 138600,-178200 138600,-178200 0,0 -19800,-79200 39600,-138600 59400,-56570 118800,-96170 195170,-56570 79200,39600 39600,115970 19800,175370 -19800,59400 -115970,99000 -115970,99000 -59400,79200 -345080,294170 -345080,294170 -246090,698650 -893820,865530 -893820,865530 l 127280,-427110 c 0,0 520450,-132940 562880,-407310 0,0 28290,-189510 -73540,-373370 0,0 -152740,-31110 -164060,-90510 -14140,-59400 -5650,-141430 76370,-172540 82030,-31110 115970,-16970 169720,48080 50910,65060 25450,110320 25450,110320 0,0 -96170,124450 67890,240420 81816.3,-158176 94215.4,-434396 94215.4,-434396 0,0 -382725.4,-176564 -563755.4,-479224 -214970,-362050 -175370,-1088980 -175370,-1088980 0,0 667540,619450 627940,1049390 0,0 -147080,-282860 -226280,-362060 -79200,-79200 -234770,-206480 -234770,-206480 0,0 79200,325280 206480,520450 73540,113140 147090,234770 373370,421450 0,0 8480,-695820 -11310,-746730 -31120,-79200 -214970,-274370 -214970,-274370 0,0 -87690,19800 -127290,-39600 -39600,-59400 -59400,-155570 19800,-195170 76370,-39600 175370,39600 175370,39600 39600,67880 11310,155570 11310,155570 l 147090,107480 0,-362050 c 0,0 -390340,-158400 -571370,-461050 -214970,-364880 -175370,-1091820 -175370,-1091820 0,0 667540,619450 627940,1052220 0,0 -147080,-285690 -226280,-364880 -79200,-76370 -234770,-203660 -234770,-203660 0,0 79200,322450 206480,520450 73540,113140 147090,234770 373370,421460 0,0 8480,-698650 -11310,-746740 -31120,-82030 -214970,-274370 -214970,-274370 0,0 -87690,19800 -127290,-39600 -39600,-59400 -59400,-158400 19800,-198000 76370,-36770 175370,39600 175370,39600 39600,70720 11310,158400 11310,158400 l 147090,107490 0,-362060 c 0,0 -390340,-169710 -571370,-472360 -214970,-364890 -175370,-1091820 -175370,-1091820 0,0 667540,619450 627940,1052220 0,0 -147080,-285690 -226280,-362060 -79200,-79200 -234770,-206480 -234770,-206480 0,0 79200,322450 206480,520450 73540,113140 147090,234770 373370,421450 0,0 8480,-698650 -11310,-746730 -31120,-82030 -214970,-274370 -214970,-274370 0,0 -87690,19800 -127290,-39600 -39600,-59400 -59400,-158400 19800,-195170 76370,-39600 175370,36770 175370,36770 39600,70720 11310,158400 11310,158400 l 147090,107480 5660,-285680 c 0,0 -396000,-166880 -577030,-469540 -214970,-364880 -175370,-1091810 -175370,-1091810 0,0 667540,619450 627940,1052210 0,0 -147080,-285680 -226280,-364880 -79200,-76370 -234770,-203650 -234770,-203650 0,0 79200,322450 206480,520450 73540,113140 147090,234770 373370,421450 0,0 8480,-698650 -11310,-746730 -31120,-82030 -214970,-274370 -214970,-274370 0,0 -87690,19800 -127290,-39600 -39600,-59400 -59400,-158400 19800,-198000 76370,-36770 175370,39600 175370,39600 39600,70710 11310,158400 11310,158400 l 147090,107480 0,-268710 c 0,0 -390340,-166880 -571370,-466710 -214970,-364880 -175370,-1091820 -175370,-1091820 0,0 667540,619450 627940,1052220 0,0 -147080,-285680 -226280,-364880 -79200,-79200 -234770,-206480 -234770,-206480 0,0 79200,325280 206480,520450 73540,115970 147090,237600 373370,424280 0,0 8480,-698650 -11310,-746740 -31120,-82020 -166890,-200820 -166890,-200820 0,0 -87680,19800 -127280,-39600 -39600,-59400 -59400,-158400 19800,-198000 79200,-39600 178190,39600 178190,39600 36780,67880 8490,158400 8490,158400 l 99000,62230 0,-274370 c 0,0 -412970,-172540 -571370,-412970 -229110,-353570 -175370,-1088990 -175370,-1088990 0,0 667540,554390 627940,987160 0,0 -192340,-319620 -268710,-398820 -79200,-79200 -212140,-229110 -212140,-229110 0,0 48080,362050 175370,557220 76370,115970 178200,212140 404480,398820 0,0 14140,-639250 -11310,-687330 -14150,-28290 -226290,-548740 -220630,-766540 5660,-141430 25460,-353570 147080,-579850 124460,-226280 138600,-367710 138600,-367710 0,0 99000,299830 138600,359220 36770,59400 189510,308320 166880,565710 -25450,254570 -124450,557230 -124450,557230 21320,-402830 35830,-747500 -172540,-1103140 l 0,0 c 1890,656230 3770,1312450 5650,1968670 79200,-231940 115970,-446910 226290,-659050 107480,-214970 551560,-613790 551560,-613790 0,0 33950,84850 33950,373360 0,107490 36770,591170 -483680,893820 0,0 296990,-313960 296990,-854220 0,0 -198000,246090 -274370,370540 -183850,299830 -285680,656220 -285680,656220 l 2830,319630 67880,-53740 c 0,0 -39600,-84860 -5650,-158400 0,0 33940,-59400 113140,-16970 62230,31110 90510,101830 59400,164050 -33940,62230 -104660,42430 -104660,42430 0,0 -84850,152740 -107480,237600 -14140,50910 0,486510 0,486510 28280,-229110 59400,-412970 169710,-625110 107490,-212140 520450,-647740 520450,-647740 0,0 33940,325290 33940,432770 0,107490 -76370,687340 -528930,1012620 0,0 285680,-333770 285680,-874020 0,0 -149910,234770 -223450,359230 -186690,299820 -254570,678850 -254570,678850 l -5660,316790 87680,-101820 c 0,0 -39600,-65060 -5650,-138600 0,0 84850,-73550 161220,-28290 90520,53740 76370,110310 28290,183860 -36770,56570 -130110,22620 -130110,22620 0,0 -115970,192350 -138600,277200 -14140,50920 0,438430 0,438430 76370,-231940 79200,-364890 189510,-577030 107480,-212140 472370,-593990 472370,-593990 0,0 14140,359220 14140,469540 0,107480 19800,667530 -500650,970190 0,0 305480,-373370 305480,-910790 0,0 -110310,175370 -186680,299820 -181030,297000 -291340,676020 -291340,676020 l -5660,387510 135770,-121620 c 0,0 -36770,-84860 -5660,-158400 0,0 90520,-87690 172540,-56570 82030,31110 70720,130110 39600,192340 -33940,62230 -124450,53740 -124450,53740 0,0 -192340,220630 -214970,305480 -14140,50920 0,446910 0,446910 76370,-229110 118800,-353560 229110,-565700 107480,-212150 461050,-642080 461050,-642080 0,0 65060,291340 65060,398820 0,107490 -39600,825940 -560050,1128590 0,0 373370,-480850 373370,-1021100 0,0 -166890,246080 -243260,370530 -183850,299830 -322450,667540 -322450,667540 l -5660,455400 135770,-121630 c 0,0 -36770,-84860 -5660,-158400 0,0 90520,-87680 172540,-56570 82030,31110 70720,130110 39600,192340 -33940,62230 -124450,53740 -124450,53740 0,0 -192340,220630 -214970,305490 -14140,50910 0,446910 0,446910 76370,-229120 99000,-333770 209310,-545910 107480,-212140 480850,-661880 480850,-661880 0,0 33940,271540 33940,379020 0,107490 -8480,845740 -528930,1148390 0,0 373370,-480850 373370,-1021100 0,0 -166890,246080 -243260,370540 -183850,299820 -322450,667530 -322450,667530 l -5660,444080 135770,-121620 c 0,0 -36770,-84860 -5660,-158400 0,0 90520,-87690 172540,-56570 82030,31110 70720,130110 39600,192340 -33940,65050 -124450,53740 -124450,53740 0,0 -192340,220630 -214970,305480 -14140,50920 0,489340 0,489340 76370,-231940 118800,-345080 229110,-557220 107480,-214970 461050,-693000 461050,-693000 0,0 65060,291340 65060,398830 0,110310 -39600,825930 -560050,1131420 0,0 373370,-480860 373370,-1021110 0,0 -166890,243260 -243260,367710 -183850,299830 -322450,707140 -322450,707140 z"
         sodipodi:nodetypes="cccccscccccccscccccccscccccsccccccccccccccsccccccccccccccsccccccccccccccsccccccccscccccsscccccccccccccccccccccccsccccccccccccccscccccccsccccccscccccccsccccccscccccccsccccccscccccccsccccccscccc"
         style="fill:#ffffff"
         inkscape:connector-curvature="0" />
      <path
         id="_25242176"
         d="m 9654340,11452400 c 0,0 -226280,166880 -285680,178190 -59400,8490 -67890,0 -59400,56580 11310,59390 19800,70710 79200,31110 59400,-39600 186680,-118800 265880,-265880 z"
         style="fill:#0077b9"
         inkscape:connector-curvature="0" />
    </g>
    <g
       id="_25243192"
       transform="matrix(1.4037758,0,0,1.4037758,-86432.361,-97536.849)">
      <path
         id="_24600336"
         d="m 5841470,11472200 -107490,364880 c 0,0 5660,101830 124460,101830 115970,0 528940,0 528940,0 l 0,760870 c 0,0 299820,-118790 313960,-127280 14150,-11310 25460,-14140 25460,-79200 0,-62230 0,-840080 0,-840080 0,0 14140,-96170 -79200,-96170 -93340,0 -619450,0 -642080,0 -25460,0 -124450,-31110 -164050,-84850 z m 1199300,28280 -141430,325280 c 0,0 33940,65060 132940,84860 96170,19800 16970,93340 0,107480 -19800,14150 -39600,59400 -39600,107490 0,48080 -11310,574190 -11310,574190 0,0 989990,-132940 1060700,-147080 50920,-8490 50920,-19800 79200,-45260 28290,-22630 186690,-214970 200830,-234770 14140,-19800 14140,-25450 19800,-73540 5660,-48080 39600,-642080 39600,-642080 l -274370,0 -99000,336600 107490,19800 c 0,0 14140,147080 -8490,206480 -25460,59400 -50910,104660 -93340,124460 -45260,19800 -274370,56570 -274370,56570 0,0 200830,-707140 203650,-743910 l -356390,0 -118800,316800 113140,31110 c 0,0 -161230,393170 -195170,427110 0,0 -118800,-152740 -50910,-384680 28280,-90510 76370,-288510 104650,-336600 19800,-33940 -36770,-53740 -73540,-53740 -39600,0 -144250,22630 -325280,-56570 z m 1581150,-36770 c 0,0 79200,36770 138600,48090 56570,8480 195170,-11320 254570,-11320 59400,0 99000,50920 67890,149910 -28290,96170 -127290,401660 -96170,509140 l -325290,87690 39600,-322460 c 0,0 -197990,19800 -237590,-19800 l 158390,-441250 z m -3716700,907960 -127290,319630 -497820,0 c 0,0 70710,-364880 59400,-483680 -8490,-115970 -67890,-390340 -67890,-390340 0,0 147090,-206490 155570,-237600 11320,-28280 50920,-39600 90520,-8480 39600,28280 528940,469530 715620,548730 0,0 19800,-147080 0,-175370 -19800,-31110 11310,-31110 -39600,-39600 -48090,-11310 -107480,-11310 -135770,-31110 0,0 115970,-294170 127280,-362050 0,0 59400,19800 115970,19800 59400,0 198000,0 257400,8480 59400,11320 48090,31120 48090,79200 0,48090 0,305480 0,345080 0,73540 -25460,96170 -53750,127290 -28280,28280 -121620,87680 -121620,87680 0,0 -39600,67890 0,87690 36770,19800 135770,90510 186680,107480 l -149910,305480 c 0,0 -8490,19800 -56570,-8480 -50920,-31120 -758050,-560050 -758050,-560050 0,0 -19800,0 -19800,39600 0,39600 0,220620 0,220620 l 271540,0 z m -1954530,-1798950 -65050,339420 c 0,0 206480,-19800 39600,118800 0,0 11310,48090 11310,226290 0,175370 0,588330 -39600,667530 l 834420,0 c 39600,8490 48090,28290 48090,96170 0,70720 50910,237600 -87690,285690 -138600,50910 -214970,59400 -274370,59400 l -59390,333760 c 0,0 373360,-118790 472360,-186680 96170,-67880 234770,-118800 234770,-322450 0,-206490 0,-571370 48090,-639250 l -823110,0 0,-50920 c 0,0 0,-514790 2830,-540250 25460,-124460 36770,-248910 104650,-294170 28290,-19800 33950,-76370 -39590,-67880 -39600,5650 -347920,25450 -407320,-25460 z"
         style="fill:#ffffff"
         inkscape:connector-curvature="0" />
      <path
         id="_25243232"
         d="m 3035550,10657600 14140,209310 c 0,0 214970,-28290 73550,87680 0,0 -8490,175370 -8490,325290 0,149910 0,478020 -31110,545900 l 760870,0 c 31120,8490 39600,25460 39600,82030 0,59400 45260,396000 -67880,444080 -124460,48090 -198000,82030 -248910,99000 l -31120,104660 c 0,0 308310,-118800 384690,-183860 50910,-39600 53740,-84850 53740,-257390 0,-175370 -25460,-330940 16970,-387520 l -783510,0 0,-42420 c 0,0 5660,-735420 11320,-758050 19800,-107490 0,-147090 56570,-183860 25450,-16970 28280,-67880 -33950,-59400 -31110,5660 -192340,11320 -206480,-25450 z m 2466490,1767840 -67880,124450 c 0,0 -22630,-22630 -59400,-45260 -39600,-22620 -814620,-562880 -814620,-562880 0,0 -5660,56580 -5660,87690 0,31110 8480,424280 8480,424280 l 220630,0 -67880,110310 -265890,0 c 0,0 33950,-254560 28290,-345080 -8490,-101830 -31120,-364880 -31120,-364880 0,0 36780,-42430 45260,-65060 8490,-25450 39600,-33940 67890,-8480 65050,59400 540250,511960 941900,644910 z m 458230,-786340 -22630,99000 c 0,0 2830,84860 96170,84860 96170,0 480850,0 480850,0 l 0,667530 c 0,0 82030,-16970 93340,-25460 11320,-5650 19800,-11310 19800,-62220 0,-50920 0,-630770 0,-630770 0,0 5660,-65050 -67880,-65050 -76370,0 -452570,0 -469540,0 -19800,0 -99000,-22630 -130110,-67890 z m 2774800,56570 c 0,0 45250,-2830 87680,5660 39600,5660 48090,2830 87690,2830 42420,0 56570,2830 33940,73540 -19800,67880 -48090,200830 -48090,282850 l -79200,22630 28290,-240420 c 0,0 -76370,31110 -166880,0 l 56570,-147090 z m -3332030,359230 c 0,0 25460,-186690 11320,-209320 -16980,-22620 5650,-22620 -31120,-31110 -39600,-8490 -99000,11310 -121630,-2830 0,0 42430,-101830 50920,-155570 0,0 45260,14140 90510,14140 45260,0 31120,-2820 76370,-2820 48090,0 39600,59390 39600,96170 0,39600 0,39600 0,70710 0,59400 -5650,130110 -22630,149910 -22620,25460 -93340,70720 -93340,70720 z m 1756530,-387510 -67890,147080 c 0,0 36770,19800 115970,36770 53750,14140 -33940,130110 -50910,141430 -14140,11310 -25460,70710 -25460,110310 0,39600 -8480,461050 -8480,461050 0,0 825930,-107480 882500,-118790 39600,-8490 39600,-14150 65060,-33950 22630,-19800 172540,-158400 183850,-175370 11320,-14140 28290,-87680 31120,-127280 2830,-39600 33940,-393170 33940,-393170 l -132940,-2830 -45260,158400 96170,5660 c 0,0 -14140,265880 -33940,311140 -16970,48080 -121630,147080 -155570,161220 -36770,16980 -421450,67890 -421450,67890 0,0 214970,-667540 217790,-698650 l -178190,0 -59400,115970 132940,0 c 0,0 -217800,560050 -246080,585510 0,0 -223460,36770 -237600,5660 -22630,-50920 -16970,-350740 2830,-418630 22620,-73540 62220,-231940 82020,-271540 16980,-28280 -25450,-42430 -59400,-42430 -31110,0 -48080,-19800 -121620,-25450 z"
         style="fill:#0077b9"
         inkscape:connector-curvature="0" />
    </g>
    <path
       d="m 7915145.8,3205533.5 c 5180,-3509.4 10388,-6667.8 15694.3,-9503.5 84282.7,-45145.4 184512.3,-8492.8 274157.4,-42113.3 35740.1,-15876.6 51616.8,-59562.2 95302.3,-59562.2 -7945.4,-35740.1 35726.2,-39698.8 39698.9,-67493.5 11918,-47658.2 -7931.4,-91329.7 -11904.1,-138973.8 174700,3972.7 333537.2,194563.4 277947.6,353386.5 -19863.4,55589.6 -55589.4,103233.6 -107220.4,150877.9 -59548.2,55589.5 -75438.9,146919.1 -95288.3,230303.5 -47644.1,190590.6 99261.1,357359.2 71466.2,547949.8 -11903.9,67493.5 -23822,131028.5 -79411.5,178672.5 -35726.1,27794.9 -83384.3,27794.9 -119110.4,7945.4 -79411.6,-35740.1 -190590.6,19849.5 -238248.8,-91329.6 111178.9,-23822.2 218385.3,-67493.6 258098.2,-178672.6 43671.5,-111179.1 35740.1,-230303.4 7945.4,-341482.6 -35740.1,-142932.4 19849.4,-297796.9 -59562.2,-405003.3 -63534.9,-79411.6 -206481.4,-71466.3 -313687.7,-115151.7 -11904.1,-3958.6 -43671.5,-31753.4 -27794.9,-59548.2 3972.7,-3972.7 15890.8,0 27794.9,0 l -15876.9,39698.7 z m -3295630.3,-67493.4 c 7945.3,-39712.8 -19849.4,-99275.1 -47644.3,-75453 -63534.7,67507.5 -119124.3,111179.1 -210454,142946.4 -31767.4,7945.5 -91315.6,43685.6 -55589.5,95302.5 35740.2,47644.1 111179.1,51616.8 142946.4,103233.6 47644.3,75438.9 99261.1,162795.9 43671.6,254125.6 -15876.7,31753.4 -39698.8,51616.8 -51616.9,87342.8 3972.8,0 7945.3,0 15890.8,0 -11918,0 -23822.1,-3972.6 -27794.8,0 -51616.8,146919.3 -15890.7,349413.8 -166768.5,440743.6 3972.7,154850.5 194563.3,99260.9 289851.7,79411.6 19863.2,-281906.4 83384.2,-559853.9 27794.6,-853678.2 -15876.7,-103247.7 11918.1,-194563.4 39712.9,-289865.7 0,3972.7 0,11918.1 0,15890.8 z m -162795.9,1778836.6 c 6387.2,589.6 12970.9,1024.8 19596.7,1319.5 7987.5,351 16087.3,547.5 24271.3,505.3 77502.5,-407 160451.6,-20677.5 190394.2,-77263.6 47644,-99261.1 7945.3,-226331 11917.9,-341468.5 -19863.4,3958.5 -39712.8,-27794.9 -51616.8,-7945.4 -59562.2,67493.4 -23822.1,182645.2 -91329.6,234262.1 -59562.2,47658.1 -138973.8,75452.9 -174713.9,127069.7 -36989.6,55505.4 74315.9,24776.6 115348.2,65345.7 2976,2962 5587,6303 7748.9,10093.3 l -51616.9,-11918.1 z m 202494.7,877514.2 c 131042.4,-15876.6 174713.9,-166768.5 131042.4,-270002.2 -11918,-27794.8 -7945.3,-83384.2 -59562.2,-83384.2 7931.3,-27794.8 -19863.4,-39698.9 -31767.4,-55589.6 -23822,-27794.7 -67507.7,-35740.1 -107206.4,-27794.7 -7945.3,3972.6 -19849.5,19849.4 -11918.1,23822.1 39712.9,23822 95302.5,55589.4 79411.7,111179 -15876.8,59562.2 -103233.8,23822.1 -95288.4,127069.7 -31767.4,-19863.4 -27794.8,35726.2 -55589.4,27794.8 -11918.1,91315.7 79411.6,71466.2 138973.7,111165 7931.4,7945.4 11904.1,35740.1 11904.1,35740.1 z m -39698.8,361332 c 142946.5,95288.3 321619.1,-27794.7 424852.7,-138973.8 15890.7,-15876.7 27794.7,-43671.5 15890.7,-67507.6 -19863.4,-31753.5 -59562.2,-19849.3 -79411.6,-7931.4 -119124.4,71466.3 -242221.5,107206.4 -357359.1,174699.9 -11918.1,7945.4 7931.2,27794.8 -3972.7,39712.9 z m 373235.9,369263.1 c -39698.8,11918.2 -83384.2,-3958.5 -123083.1,7945.4 -31767.4,7945.4 -59562.2,31767.5 -39712.8,63534.9 19849.4,27794.8 67507.6,51616.8 83384.2,55589.6 127055.8,39698.7 202508.8,-99275 285893,-194563.4 11904.1,-15890.7 -11918,-23822.1 -11918,-39712.8 -43671.5,3972.7 -75439,31767.5 -107206.3,47658.2 -35740.2,19849.5 -51616.9,43671.5 -87357,59548.1 z m 119124.3,226330.9 c -39712.8,19849.4 -123097.1,47644.1 -95302.2,87356.9 23822,31767.5 71480.2,79411.6 123097.1,43671.4 47644.1,-35726.1 95288.2,-55589.3 123083,-107206.3 19849.5,-35740 39712.9,-79411.5 31767.4,-123083 -63534.7,31767.4 -123082.9,75438.9 -182645.3,99261 z m 230289.5,436770.7 c 31767.5,27794.9 39712.8,87357 91329.6,67507.6 55589.6,-23836.1 55589.6,-103247.7 99261.1,-127069.7 23822,-7931.4 59562.1,-19849.4 75452.8,-39698.8 11904.2,-11918 11904.2,-47658.2 0,-59562.3 -35740.1,-35740.1 -83384.2,-47644 -111178.9,-99260.9 -19863.5,-35740.1 -75453,-23836.2 -99275.1,3958.7 -11904,7945.3 0,43685.4 -7931.2,59562.1 -23836.2,43685.6 -83384.4,19849.4 -119124.6,35740.1 -19849.4,11904.1 -43671.4,31767.5 -27794.7,63535 23822.2,39698.7 55589.6,71466.2 107206.4,55575.5 -3972.8,15890.7 -15876.7,35740.2 -7945.4,39712.7 z m 448688.8,397058 c 182645.3,-11903.9 226330.9,-202494.6 325591.8,-329550.4 27794.8,-35740 -19849.4,-87357 -43685.4,-71480.1 -79411.7,55589.3 -131028.5,190590.6 -234262.1,150891.7 -35740.2,-15890.7 11918,-71480.3 -7945.4,-99274.9 -23822.1,-31767.5 -67493.5,-47644.3 -111179.2,-7931.4 -15876.6,19849.3 -15876.6,39698.8 -23821.9,59548.2 -7931.4,19863.5 -35726.1,3972.7 -39698.8,27794.6 -3972.8,23836.3 7931.3,51617 -3972.8,63535 -31767.3,27794.8 -51616.8,51616.8 -35740.1,87357 31767.5,67493.5 103233.6,123083 174713.9,119110.3 z m 405003.5,266043.6 c -11918.2,-166768.5 190590.6,-222358 202508.6,-357359.2 11904.1,-158823.2 -182659.2,0 -289865.6,0 -67493.6,0 -99261.1,79411.7 -115151.8,162795.9 -3958.6,15876.7 -19849.4,43671.5 -47644,43671.5 -3972.8,83384.3 95302.2,135001.1 166768.4,158823.2 23822.2,7945.3 87356.9,27794.7 83384.4,-7931.4 z m 135001,99261.1 c 87357,55589.5 170741.3,123097.1 266029.6,170741.2 309715.1,154850.5 647224.9,178672.5 988693.3,234262.1 142946.6,19849.4 281920.3,-15876.7 424852.7,-7931.4 -7931.2,-15890.7 27794.9,-23836 11918.2,-39712.7 -43671.5,-47644.2 -107206.5,-35740.1 -162795.9,-47644.2 -146919.2,-39712.7 -293824.3,0 -436770.8,-31767.4 -250152.8,-55589.6 -484415,-111179.2 -706773,-242207.5 -35740.2,-19863.4 -67507.7,-47644.2 -95302.4,-79411.6 -51616.8,-75453 -55589.6,-162796 -115137.8,-230303.5 -11917.9,-15876.7 -39712.7,7945.4 -47658.1,15890.7 -75439,59548.2 -75439,158823.2 -135001.1,234262.1 -10710.9,10710.8 533.4,16775.1 15020.4,23822.2 6008.1,2919.8 12549.8,6008.2 18333.3,9657.9 6190.6,3916.5 11468.8,8492.9 14304.5,14164.1 l -39712.9,-23822 z m 2068702.3,452647.4 c 10009,1123.1 20017.9,2049.6 30012.8,2863.8 168663.6,13813.1 337130.8,-13013.1 502060.5,-50507.9 317646.3,-79411.6 619416,-142946.5 925158.2,-238234.9 123083.3,-35740.1 297796.7,-67507.5 317646.7,-210439.9 7946,-39712.9 -47644,-135001.1 -119125,-103247.8 -111178.8,43685.5 -230288.8,55589.6 -321618.6,142946.6 -19849.4,15890.7 -55589.6,7945.3 -79411.7,19849.4 -103233.6,51630.8 -190590.5,131042.4 -293824.2,162809.9 -198536.1,67493.5 -393099.3,131028.4 -603539.5,166754.5 -154850.4,23836.1 -309715,-3958.7 -452647.4,55589.4 -3972.8,0 -3972.8,19863.5 0,19863.5 59548.2,23822.2 123083.1,51616.8 190590.6,47644.2 l -95302.4,-15890.8 z M 10408701,7612940.4 c -35725,-11904 -55590,-59548.2 -75439,-43671.5 -27795,23822.2 15890,103233.7 -59563,91329.7 -55588,-7945.4 -51615,-63534.9 -83383,-83384.2 -11904,-3972.7 -27795,-3972.7 -39699,0 -11919,3972.6 -23822,15876.7 -15891,23822 79426,103233.6 111179,242207.5 238250,285878.9 63520,23836.1 111177,-47644.1 131027,-107206.4 23822,-67493.5 -31767,-146905.1 -95302,-166768.5 z m 444716,-91315.5 c 1797,-5811.7 2892,-11455 3454,-16873.5 4435,-42520.4 -26448,-71831.2 -51098,-82401.7 -87357,-39698.7 -198536,23836.3 -289865,-63520.7 -15878,-11918.2 -51617,-3972.8 -79412,-3972.8 87357,107206.4 135000,238234.9 242222,325591.9 19849,11917.9 87343,27794.6 95287,-7945.5 11918,-71466.2 59562,-123083 63535,-194563.3 l 15877,43685.6 z m 496333,-746486 c -23822,-3972.6 -51617,-23822 -67507,-7945.4 -39699,39712.9 19863,103247.8 -7932,142946.6 -35740,51616.8 -95302,-3972.8 -146919,7945.3 -7946,3972.7 -39699,19849.4 -23821,35740.1 67492,59548.2 103233,135001.2 178672,174700 51616,23822 71480,-67493.6 99274,-99261.1 39699,-35740.1 103234,-71480.3 107207,-115151.6 3973,-63535 -79412,-115151.8 -138974,-150877.9 0,3958.6 0,7931.4 0,11904 z m 285879,-214412.7 c -99261,-19849.4 -246180,-59562.2 -313674,23822.1 43672,27794.8 47644,91329.7 95288,103233.6 43687,11918.1 75454,35740.1 91331,63535 11917,27794.7 35740,39712.8 47644,67507.6 51616,-39712.9 31767,-103247.8 55589,-150891.9 23822,23822 27795,-15876.7 35741,-19849.5 27794,-15890.7 31767,-83384.2 -11919,-87356.9 z m 55590,-432798 c 7945,-7945.4 7945,-31767.6 0,-39712.9 -35727,-39698.8 -146905,-95288.4 -87343,-119110.4 111179,-43685.5 270002,127055.7 194550,254111.5 -51618,79425.7 -146906,99275.1 -226318,51630.8 -23822,-15890.7 -71480,-19863.3 -71480,-63534.8 0,-19849.4 -7931,-43685.6 3973,-51616.9 51617,-51616.8 131028,15876.7 186618,-31767.3 z m 15891,-547949.9 c 127055,-31767.5 242207,19849.3 325591,111179 43671,47644.2 31767,131028.5 15877,170741.2 -27795,71466.2 -131029,95288.3 -234263,67493.7 -59561,-19849.5 -107205,-75439 -71480,-111179.2 39713,-31767.4 119125,-67493.5 83385,-127055.7 -11905,-19849.4 -7932,-51616.8 -35726,-59562.2 -27794,-3972.7 -63535,19849.3 -83384,-15876.7 -3973,-7945.3 -3973,-31767.5 0,-35740.1 z m 412948,-416921.4 c -19863,0 -39713,-3972.7 -51617,3972.6 -51631,43685.5 -47658,131028.4 -95302,166768.6 -59562,47644.2 -154851,11918 -238235,27794.7 -11918,3972.7 7931,35740.2 15877,47644.2 55589,59562.2 150892,43685.4 222358,95302.3 27795,19849.4 67508,-7945.4 71467,-23822 19862,-99275 83384,-146919.2 123096,-222358.1 11904,-23822.1 27795,-67507.6 -7945,-91329.7 -7946,-7945.3 -23823,-3972.6 -39699,-3972.6 z m -27794,-385154 c -91330,15890.7 -174715,-39698.9 -258099,3972.6 -3972,0 -11904,15890.8 -15877,23822.2 -7946,43685.5 43672,59562.1 67494,59562.1 111179,3972.7 202509,67507.6 305743,71480.3 23821,0 35739,-47658.2 19848,-75453 -23821,-43671.4 -55589,-95288.2 -119109,-83384.2 z m 27794,-317646.4 c 51616,-23822.1 63521,-75438.9 87343,-123083 15891,-31767.6 55589,-11918.2 55589,0 19864,119110.3 19864,246180.1 -35726,353386.5 -15891,27794.7 -51617,-11918.1 -59562,-15890.8 -67507,-59562.3 -162795,-39698.8 -238235,-91315.6 -31767,-19863.5 -67507,-79425.7 -27794,-83384.2 87343,-7945.4 142933,-59562.3 234261,-67507.7 -7944,7945.4 -11903,19849.4 -15876,27794.8 z m 111179,-230289.4 c -55590,0 -202509,-47658.3 -150892,27794.7 31767,47644.1 123097,11904 190591,-3972.7 19849,-7945.3 23822,-27794.7 11918,-39712.7 -15891,-23822.2 -31767,11918 -51617,15890.7 z m -135001,-416921.4 c -51630,-119124.5 -23836,-250152.9 -63535,-353386.6 -39713,-107206.3 -198536,-162795.8 -230303,-285892.9 -47644,-206467.4 254125,-174700 401044,-150877.9 63521,7945.5 150877,67493.6 119110,154850.6 -59562,182645.2 -198521,369277.2 -127055,563826.5 43672,111179 115152,250152.8 47645,349427.8 -47645,71466.3 -150878,95288.4 -246181,35726.2 -23822,-11904.1 -19849,-43671.5 -11905,-63520.9 43672,-83384.2 158824,-138973.8 111180,-250152.8 z m -1242819,412948.7 c -2133,7496.2 -3159,15553.7 -2906,23344.8 674,21098.7 10416,40176 30701,40176 83384,0 166768,-11904 246180,-51616.8 47644,-23822 59562,-91315.7 55589,-119110.3 -23821,-198536.1 -55589,-389126.7 -31767,-579717.4 3973,-59562.2 -11904,-115151.7 7946,-166768.5 19849,-59562.3 71465,-107206.3 87357,-166768.7 11903,-51616.8 19849,-115151.6 0,-162795.8 -15892,-39698.8 -63536,-63534.9 -103248,-39698.8 -39698,23822.1 -51617,79411.7 -83370,119110.4 -19864,23822 -55590,23822 -75454,31767.4 -67492,23822.2 -146905,23822.2 -230289,39712.9 -47644,7931.3 -71481,63520.8 -23821,75438.8 59547,19849.5 135000,15876.8 182645,43671.5 119123,71480.3 111178,238234.9 71465,361332 -15876,43671.4 -51617,83384.2 -103233,71466.1 43671,107206.4 75439,218385.5 47643,341482.6 -3972,31767.5 -11902,67493.5 -23821,95288.2 -15877,35740.2 -75439,31767.6 -67494,83384.4 l 15877,-39698.8 z m 150892,440743.5 c 0,-16213.7 -1067,-32960.6 -2204,-49792 -3355,-49202.4 -7609,-99401.4 10136,-140798.6 3972,-11918.1 3972,-35740.2 19862,-39712.9 27796,-15876.7 63522,0 75439,15876.7 107208,131042.5 83385,317660.4 -27795,428839.4 -23821,23822.1 -91329,19849.5 -127068,0 -124361,-69964.1 13728,-174180.5 49426,-264204.6 772,-1937.1 1531,-3860.3 2204,-5797.6 l 0,55589.6 z m -262071,428825.3 c 1263,-6316.9 3299,-12268.9 5418,-18038.4 4492,-12367.3 9195,-24018.6 6500,-37551 111179,-7945.3 230289,11904 317647,83384.3 -39700,107206.4 -27795,238234.7 -107207,321619 -35741,35740.2 -119124,7945.3 -162796,-27794.8 -27795,-23822 -47644,-75438.8 -11918,-91329.6 79426,-39698.7 135001,-95288.2 95303,-174699.9 -35740,-71480.3 -131029,19849.4 -178673,-35740.1 -11918,-11918.1 -27794,-51616.9 -3973,-75438.9 3973,-3972.7 15877,0 23823,0 l 15876,55589.4 z m 214413,575744.7 c 7945,-7945.3 -11904,-31767.4 -23823,-35740.2 -115151,-35740.1 -238234,-127055.7 -353386,-67507.5 -19850,11918.1 19850,23836.1 27795,31767.4 67508,43685.6 150892,35740.1 222358,79411.6 31768,19863.5 95288,27794.8 127056,-7931.3 z m -158823,115137.7 c -51618,-3958.6 -123083,-115137.7 -138974,-39698.7 -15877,55589.4 -99262,51616.8 -75439,103233.6 19849,39712.8 87357,35740.1 127056,79411.7 55590,63534.7 115151,-15876.7 150892,-79411.7 15876,-31767.5 -31768,-63534.9 -63535,-63534.9 z m -385154,357359.2 c -35727,27794.8 -79412,15890.7 -107207,31767.4 -55589,35740.2 3973,63534.9 31768,99275 19849,23822.1 75439,35726.1 95303,63521 11903,23822.1 43671,23822.1 55588,51616.8 3959,11918 39699,-7931.4 55576,-15876.7 27794,-19849.4 27794,-67507.6 51630,-87356.9 35727,-31767.5 99262,-27794.9 123084,-67493.7 23822,-31767.4 23822,-91329.5 -7945,-127069.7 -51617,-59562.2 -119111,-119110.4 -202495,-107206.4 -67508,7945.3 -3973,95302.3 -35740,123097.1 -14193,12156.8 -35628,21183 -59562,27135 -22924,5699.3 -48150,8591.1 -71467,8591.1 l 71467,0 z m -262057,178686.7 c -7946,7931.3 -15891,15876.7 -27795,11903.9 -7945,31767.4 35740,63535 -3972,79411.7 -27796,7945.3 -59563,15890.7 -75439,35740.1 -15892,15890.7 7944,35740.2 23822,47644.1 11917,7945.5 27794,0 39712,3972.7 59548,39712.8 99261,131028.4 178673,107206.4 11918,-3972.7 23822,-15876.6 27795,-23822.1 11903,-39698.8 -11918,-67493.5 -35741,-99260.9 -11904,-11918.2 0,-35740.2 -7931,-51617 -31768,-55589.4 -63535,-150891.8 -135015,-123097.1 -7931,3972.7 0,15890.8 15891,11918.2 z m -182645,452647.4 c -51631,15890.8 -115152.4,-47644.1 -138974,-15876.7 -47658.9,55589.5 15876.1,174700 95288.4,142946.5 55589.2,-19863.5 138973.6,-19863.5 162794.6,-75452.8 35741,-87357 -39699,-174700 -103233.5,-242207.6 -19848.4,71480.2 55590.5,154850.6 -55588.5,162795.9 l 39713,27794.7 z M 8252655.8,7283390 c -39712.9,-3972.7 -111179.1,-23836.1 -83384.4,-39712.8 214412.8,-127055.8 468524.2,-3972.8 694854.9,-83384.3 67507.8,-23822.1 131028.5,-31767.4 194563.5,-59562.2 408976,-158823.2 468538.1,-254111.6 555895.1,-277947.6 27794.8,-7931.4 158823.4,142946.5 123083.2,162795.9 -182645.3,87356.9 -317646.5,150891.8 -611484.8,262070.8 -273960.9,103233.7 -389112.6,103233.7 -678978.3,87357 -27794.8,0 -91315.6,-39712.8 -194549.2,-51616.8 z M 6942343.3,6874414 c 91315.7,55589.5 353386.6,246180.1 813979.4,313673.6 35726,3972.8 150877.8,7945.4 154850.6,31767.6 3972.5,19849.2 -35740.2,35740 -51616.9,35740 -488387.6,-43685.5 -647210.9,-127069.7 -945007.9,-266043.6 -27794.7,-11904 -75452.9,-51616.8 -67507.6,-87342.9 7945.4,-27794.7 63535,-43685.4 95302.4,-27794.7 z m -254125.6,-138973.8 c -43671.5,7931.3 -79411.5,35726.1 -63534.8,79411.5 15890.8,51616.9 67507.6,135001.3 111179,79411.7 79411.6,-103233.7 103233.7,-234276.1 158823.3,-353386.6 -111179.1,-7945.4 -170727.3,127055.8 -246180.3,194563.4 l 39712.8,0 z m -289851.6,-166768.6 c -15890.8,15876.7 -31767.4,27794.7 -39712.7,43671.5 -15876.8,51616.8 31767.4,123097.1 79411.5,99275 47644.2,-23836.2 83384.2,-59562.2 103233.6,-127069.8 3972.8,-7945.4 27794.9,-23822.1 31767.6,-31767.4 11918,-35726.1 51616.8,-83384.2 39712.7,-99261.1 -79411.5,-83384.2 -142946.5,59562.3 -214412.7,115151.8 z M 6219679.5,6227189 c -67493.5,-3972.6 -103233.7,63534.9 -95288.3,123097.1 3958.7,23822.2 35726.1,27794.9 43671.5,31767.5 59562.2,27794.9 222358.1,-178686.6 174713.9,-206481.4 -35740.2,-15876.7 -95302.3,23822.2 -150891.9,35740.2 7945.3,3972.7 19849.5,7945.3 27794.8,15876.6 z m -373235.9,-333523 c -31767.4,15876.7 -71480.3,15876.7 -91329.7,43671.5 -19849.4,31767.4 19849.4,59562.2 35740.1,59562.2 67493.7,3972.7 142946.5,-47658.2 166768.6,-115151.8 -35740.1,-11918.1 -75452.9,-23822 -111179,-11918.1 0,0 3972.7,19863.5 0,23836.2 z M 5790854,5603800.3 c -55589.5,19849.5 -111179,39712.9 -162795.8,71480.3 -3972.6,7931.3 -7945.3,31753.4 0,35726.1 23822,15890.7 51616.8,39712.8 79411.6,27794.8 55589.6,-19849.5 158823.2,-63520.9 111179.1,-131028.4 -3972.7,-3972.8 -15890.8,-3972.8 -27794.9,-3972.8 z m -83384.2,-170741.1 c -11918,-3958.7 -31767.4,23836 -23822.1,47658.1 11904.1,31753.3 59562.3,39698.8 75438.9,23822 31767.4,-39712.7 -11918,-71480.1 -51616.8,-71480.1 z m 87357,-599566.9 c -11918.1,-55589.4 -55589.6,-158823.1 -115151.8,-99260.8 -31767.4,31767.4 -19849.3,111178.9 -91329.5,131028.3 -35726.1,11918.1 -11904.2,63535 11917.9,71480.3 91315.7,31753.4 218385.5,7931.4 194563.4,-103247.8 z m -293838.3,-484414.9 c 87357,11918.1 178686.5,-27794.7 262070.9,19849.5 3972.6,3972.6 7945.3,27794.7 0,35740.1 -63535,67507.5 -154850.7,15890.7 -234276.3,35740.1 -71466.1,15876.7 -158823.1,35740.2 -218385.4,-35740.1 -3958.6,-7945.4 -3958.6,-35740.1 0,-35740.1 61738.1,-24692.5 125932.8,-23007.9 190590.8,-21014.6 18529.8,561.5 37017.5,1165.1 55589.4,1165.1 l -55589.4,0 z m -202494.7,-1215010 c 131028.4,7931.4 190590.6,-19863.5 317646.3,-23822.2 15890.8,0 83384.3,35726.1 95302.5,35726.1 -27794.9,79411.7 -31767.6,190590.7 -39712.9,270002.3 -15876.7,142946.5 -11904,281920.3 11918,428839.5 15876.7,115137.7 -15890.8,226316.8 -11918,341468.5 -3972.8,0 -11904,0 -11904,3972.6 -15890.8,87357 0,0 -47658.3,79411.6 -11904,23822.1 -47644.1,27794.8 -71466.2,19849.4 -35740.1,-15876.7 -67507.5,-59548.1 -55589.6,-99261 47644.3,-170741.2 79411.7,-158823.1 59562.4,-333537 -7945.4,-63521 -47644.2,-127055.8 -99261.1,-166768.6 -15890.7,-11904 -35740.1,-27794.8 -43685.5,-47644.2 -39698.7,-87357 0,-190590.7 -35740.1,-277947.6 -23822.1,-51616.9 -87342.9,-71466.3 -115137.8,-119110.4 -23822,-43685.5 3958.7,-83384.3 27794.9,-115151.8 3958.7,-7945.3 19849.4,-3972.6 27794.7,-3972.6 -3972.6,3972.6 -3972.6,3972.6 -7945.3,7945.4 z m 4327995.2,87357 c 174713.6,-35740.2 337510.1,-3972.8 508237,-27794.8 63534,-7945.4 43686,39698.7 43686,47644.1 -7946,103233.6 -119125,210440 -63535,317646.4 87356,170741.3 35740,337509.8 75439,516182.4 11917,59562.2 -19850,115151.7 -47645,142946.5 -87357,83384.4 -226330,39712.8 -317645.8,-27794.8 -43686.1,-31767.4 -11918.1,-83384.2 47644.3,-95302.4 39712.4,-7931.2 79411.1,0 107206.1,-11903.9 87357.4,-47644.1 95302.4,-162795.9 75438.4,-238234.8 -19849,-67507.6 -107206.3,-67507.6 -182644.5,-59562.2 63534.9,-23822 154849.5,-111179 91329.6,-154850.5 -47658.1,-31767.5 -119125,-39712.9 -166769.2,-75453 -31767.1,-15876.7 -27794.3,-75438.9 -55589.2,-111179 -35740.1,-51616.8 -99261,-79411.6 -142946.5,-131028.5 -23822,-27794.7 -19849.5,-79411.6 27794.8,-91315.5 z m 496333,1155447.9 c -83384,7945.3 -123097,-19849.5 -206481,-11904.2 -43671.5,55589.6 131041,83384.3 258098,131028.5 27794,3972.8 59561,-119124.3 35740,-170741.3 -35740,-67493.5 -63535,11918.2 -87357,51617 z m 0,357359.2 c -83384,0 -150891.1,-59562.3 -234261.7,-71466.4 -11918.2,-3972.5 -59562.3,-3972.5 -39713.5,-35740.1 31768.1,-47644.1 91330.4,-55589.4 131028.8,-87357 35739.4,-35740.1 127069.4,19849.4 135001.4,99275.1 0,3958.7 23821,19849.5 31767,31753.4 7945,11918 3973,31767.5 3973,51616.8 -15891,-3958.6 -23822,11918.2 -27795,11918.2 z m -349413.7,309714.9 c -11918.3,7931.4 -39712.9,51616.8 -15890.8,59548.2 47657.9,23836.1 119124.6,55589.6 150891.7,67507.6 95288.8,35740.2 190590.8,-170741.2 186617.8,-281920.3 0,-43671.5 -83384,-23822.1 -127055,-55589.6 -39713,11918.1 -31767.6,71480.3 -51631,115151.8 -31753.5,59562.2 -91315.8,47644.2 -142932.7,95302.3 z m -51617,476469.7 c -3972.6,-19849.4 -27794.8,-43671.5 -23822,-47644.2 59548.2,-51616.9 135001.3,-55589.6 190591,-115151.7 47644.1,79411.5 -3972.8,142946.5 -47658.9,202508.6 -23821.6,31767.5 -79411.4,31767.5 -99260.7,0 -7945.3,-7945.3 -19849.4,-23822 -19849.4,-39712.7 z m -444716.2,182659.3 c -3972.6,-19863.5 11918.2,-35740.2 19849.4,-39712.8 35740.2,-11918.2 87357,7945.3 115151.8,-7945.4 43671.3,-27794.8 75438.9,-75438.9 111179.1,-111179.1 47644,-43671.4 123083,11918.2 154850.4,75452.9 15890.7,31753.4 0,71466.3 -15876.6,91315.7 -27794.9,31767.4 -43685.6,79411.7 -79411.7,99274.9 -35740.1,15876.8 -67507.5,35726.2 -99275,51616.9 -99261,39698.8 -182645.3,-67507.6 -206467.4,-158823.1 z m -1080008.9,464551.4 c 15975,-477.2 31753.4,-1179.1 47419.5,-2021.3 l 18937,-1165.2 c 229138.2,-14851.9 426523.2,-69655.4 640416.5,-167540.6 47644.2,-23822.1 99261.1,-67507.5 146905.2,-91329.7 35740.1,-19849.4 71480.3,-71466.2 119124.3,-51616.8 71466.3,31767.4 91329.7,135001.1 47644.3,166768.6 -158823.2,127055.8 -345441.2,170741.2 -543977.3,218385.3 -206467.2,47644.3 -639265.3,75438.9 -619415.9,-95302.3 36919.2,0 92115.6,9138.7 142946.4,16087.2 16522.4,2274.2 32581.6,4295.7 47419.5,5713.5 13139.4,1235.3 25324.2,2021.3 35964.8,2021.3 l -83384.3,0 z m -992666.1,-333523 c 150877.9,226316.7 420894.2,210440 639279.6,325591.7 7931.3,3972.8 7931.3,35726.2 -11918.1,35726.2 -190590.6,7945.3 -377208.6,-55589.6 -547949.8,-142932.4 -131028.5,-63535 -277947.7,-170741.4 -194563.4,-313687.8 35740.2,-63520.9 79411.6,43685.5 115151.7,95302.3 z m -186617.8,-341482.5 c 55589.5,-47644.2 99260.9,-95288.3 162795.9,-47644.2 11903.9,7945.3 7945.3,39712.8 3972.5,63534.9 -19863.3,71466.3 -99274.9,59548.2 -142946.4,107206.4 -19849.4,23822.1 -71466.3,27794.8 -83384.3,11904 -31767.4,-39698.7 11918,-99261 59562.3,-135001.1 z M 6811300.8,5421155 c -27794.7,7945.5 -39698.8,43671.6 -51616.8,39698.8 -43671.4,-15876.7 3972.7,-47644.1 -7931.4,-83384.2 23822.1,3972.7 19849.4,-55589.6 47644.3,-47644.3 -7945.5,-107206.3 87356.9,-186617.8 174699.8,-154850.4 31767.4,7945.3 71480.2,51616.8 55589.5,95288.3 -39698.7,87357 -123083,131042.4 -218385.4,150891.8 z m -289851.7,-353386.4 c 4590.5,-5629.2 7706.8,-11216.2 9644.1,-16733.1 1361.6,-3832.3 2161.7,-7608.5 2512.8,-11398.6 3116.3,-32932.6 -26798.1,-63927.9 -8184.1,-94965.4 11904.1,-23822.2 43671.5,-31767.5 67493.6,-39698.9 91329.6,-31767.4 190590.6,-27794.7 285892.8,-11917.9 35740.2,7945.3 83384.4,35740.1 51617,55589.4 -111179.1,71480.2 -254125.5,-23822 -357359.2,87357 -3004.1,3004.1 -24159.1,12802.4 -39460.1,3635.8 -4913.3,-2947.9 -9265.1,-7819.1 -12156.9,-15553.9 l 0,43685.6 z m 27794.8,-329564.6 c 71466.3,3972.8 170741.3,-111179 182645.3,-27794.6 3972.7,59562.1 -119110.4,67493.5 -182645.3,79411.5 0,-7945.4 0,-43671.4 0,-51616.9 z M 6537326,4321282.7 c 87356.9,11918 178686.6,-27794.8 258098.1,19849.4 7945.4,3972.7 7945.4,27794.8 0,35740.2 -63534.9,67507.5 -150877.9,15890.7 -234262.1,35740 -71480.3,15876.8 -154864.5,35740.1 -214426.8,-35740 -7931.2,-7945.4 -7931.2,-35740.2 0,-35740.2 58804.3,-24734.5 124851.9,-22993.8 190590.8,-21000.5 18628,561.4 37199.9,1151.1 55589.5,1151.1 l -55589.5,0 z m 63534.8,-488387.7 c -67493.5,-71466.1 -99261,-150877.8 -146905.2,-226330.7 -43685.4,-75438.9 19849.4,-162795.9 -31767.4,-230289.5 -35740.1,-47644.2 -107206.4,-59562.1 -142946.5,-103233.6 -39712.8,-47658.2 -7945.4,-111179.1 39698.9,-127069.9 123097.1,-47644 262070.8,-39698.7 397072,-11903.9 39698.6,3972.7 83384.3,7931.4 123083,19849.3 67507.6,19849.5 119124.4,79411.6 91329.7,146919.3 -39712.9,91315.6 -115151.8,162795.8 -154850.6,254111.4 -51616.8,119124.5 15876.7,250152.9 -3972.7,381181.2 -19849.4,123097.1 -103233.6,206481.5 -222358.1,234276.3 -39712.7,7931.4 -83384.2,7931.4 -103233.6,-27794.8 -79411.6,-131028.4 107206.4,-146919.1 154850.5,-234276.1 11918,-23822.2 15890.8,-63520.9 0,-75439 z m 2247388.9,6730235 c 39698.8,-19850 71466.2,-27795 115137.7,-19850 39712.9,7945 59562.2,47644 79425.6,83385 131028.5,222358 186618,460592 266029.6,698827 -115151.7,27795 -230303.4,27795 -345455.2,23822 -23822.1,-3959 -47644.1,-35726 -51616.8,-63521 -35726.1,-142946 -79411.7,-353385 -135001.2,-579717 -7931.2,-27794 35740.1,-127056 71480.3,-142946 z m -353386.5,627361 c -7945.3,-174700 -23822.1,-285879 -7945.3,-428826 3972.5,-35739 23822,-67507 63534.9,-79411 55589.4,-15890 123082.9,3973 131028.4,55589 39698.8,210440 51616.9,373237 87357,559855 -31767.5,7945 -99275.1,3973 -119124.5,-15878 -43671.5,-59561 -107206.4,-87357 -154850.5,-135000 l 0,43671 z m -305742.4,-182645 c -15890.7,-99261 -27794.7,-194563 7945.4,-285893 23822,-51616 107206.4,-67494 138959.8,-11904 83384.2,138974 19863.4,309715 35740.1,464566 -91315.6,0 -95288.3,-95303 -138973.8,-150893 -11904.1,-11904 -35726.1,19863 -43671.5,-15876 z m -123097.1,-27795 c 11918.1,-75439 43685.6,-158823 -3958.6,-230303 -27794.7,-39699 -83384.3,-43672 -131042.4,-15877 -15876.9,7945 -27794.9,23822 -27794.9,39713 3972.7,75439 -35726.1,190591 27794.9,210440 35740.1,7945 83384.2,7945 123097.1,19849 3972.5,3973 23822,-11904 23822,-23822 3972.6,-75439 -7945.3,-75439 -11918.1,0 z m -246180.2,-837801 c -7931.3,-35741 27794.8,-39714 43685.5,-51616 31767.6,-19865 99261.1,3958 99261.1,35725 0,55590 23822.1,142947 -35740.2,174714 -31753.3,15877 -79411.6,0 -107206.4,35740 -3958.6,7931 -3958.6,27795 0,35726 35740.2,43686 95302.3,47658 131042.4,23822 83384.5,-63520 7931.4,-202494 83384.5,-258084 71466.2,-55589 131028.3,31767 154850.4,111178 19849.4,63522 -31767.4,83386 -79411.5,71467 0,23822 0,43686 0,67508 47644.1,-3972 115151.6,47644 142946.5,-3972 27794.7,-55590 27794.7,-131030 19849.3,-202509 71466.3,-7932 138973.9,23822 158823.2,71479 27794.8,75440 -51616.8,91316 -115151.8,107207 19849.5,79412 146919.3,79412 182645.3,35726 27794.8,-39699 -7931.4,-123082 19863.5,-166768 11904,-27782 59562.1,0 83384.3,23835 27794.7,35726 -43685.5,75440 -19863.5,103234 63535,75439 190590.7,15877 285893,31768 -63534.9,-131043 -59562.1,-281921 -55589.6,-428840 -202508.5,-27794 -408976,23836.1 -603539.3,-27794 -127055.8,-35726.1 -273975,-79412.3 -377208.6,-7931.8 -47644.1,31766.8 -67507.5,146904.8 -11918.1,218385.8 z m 786198.7,-317660.6 c 8843.8,-2204 16017.1,-1418.3 22081.3,1319.7 6134.7,2765.3 11104,7523.7 15441.7,13139.2 l 1207.2,1614.4 c 13728.9,18824.1 21323.4,45917.6 40681.4,43489 71466.2,-3972.7 138973.9,-43671.4 210440.1,-43671.4 43671.4,3972.6 107206.4,43671.4 123083.1,15876.2 59562.2,-95288.2 -55589.6,-198535.9 -154850.7,-214412.6 -59562.1,-11918 -131028.2,55589.6 -186617.8,19849.4 -103233.7,-59548.2 -214412.7,-103233.6 -333537.1,-71466.2 -51617,11918 -55589.5,71466.2 -95288.4,99261.1 -15890.7,11918 0,43685.4 11904.1,47658.2 51616.8,19849.3 107206.2,3958.6 158823.1,-23836.3 75467,-44583.8 139044.1,50044.7 208713.3,112499 5109.9,4576 10261.7,8969.3 15441.7,13139.2 3818.2,3073.7 7622.5,5994.2 11468.8,8759.5 2175.9,1586.2 4407.8,3116.6 6597.8,4575.9 l -13462.2,-6724.3 -42127.4,-21070 z m -663101.6,-675005.7 c -23822,7945.3 -71466.1,15890.7 -51616.8,51616.8 23822,39712.8 67493.5,15890.7 87357,-3972.8 31753.3,-27794.6 -31767.4,-23822.1 -35740.2,-47644 z M 8741043.4,8982815 c 51616.8,-3972.7 67493.6,-67493.5 79411.6,-111179 19849.3,-75439 0,-154850.5 -43685.6,-214412.8 -11904,-15876.7 -59562.2,-35740.1 -87342.9,-15876.7 -23836.1,15876.7 -63534.8,23822.2 -55589.5,67493.5 -43685.5,0 -67507.6,31767.6 -95302.3,55589.6 -11918.1,11918.1 -19849.4,43685.6 -31767.6,47644.3 -250152.8,59562.1 -496333,-7931.4 -742513,31767.4 15890.7,43685.4 -43671.5,91329.7 3972.6,119124.3 15890.8,11918.1 71480.3,27794.8 79411.6,-19849.3 51616.8,11904 103247.6,47644.1 107206.4,107206.3 35740.1,-11918 55589.4,-55589.5 87356.9,-63534.8 59562.2,-15876.8 95302.4,35740.1 103233.8,91329.6 0,7931.3 3972.5,-3972.6 3972.5,-11918.2 0,23822.2 7945.5,55589.6 -3972.5,63535 -23822.1,15876.7 -71466.3,-7945.4 -87343.1,11904 -27794.7,23836.2 0,63535 35726.2,71480.3 43685.5,11904.1 99275.1,19849.4 115151.7,-3972.7 47644.1,-51616.8 0,-146919.1 43685.6,-210440 15876.7,-23822.1 71466.2,-27794.8 83370.2,0 27794.8,59548.1 27794.8,123083 -47644.1,166768.6 -3972.8,3958.7 0,23821.9 0,39698.8 123097.1,-3972.7 258098.1,23822 365304.5,-39698.8 47644.2,-31767.5 3972.7,-174714 87357,-182659.4 z M 8026324.9,7422349.7 c 206467.4,19863.5 412948.7,39712.9 619416.2,31767.6 -19849.4,119124.4 63534.8,293838.3 -71466.3,369277.2 -67507.7,39698.8 -150891.9,27794.7 -214412.7,3972.7 -95302.4,-35740.1 -79411.6,-170741.3 -119124.5,-262070.9 -7945.3,-27794.8 -43671.4,-39698.9 -67507.5,-51616.9 -67493.5,-31767.4 -154850.5,-31767.4 -202494.7,-103233.6 19849.4,0 35740.1,11903.9 55589.5,11903.9 z m -71480.2,-1048241.4 c 218385.4,-59562.3 436770.8,79411.5 635306.8,-11918 27794.8,119124.3 31767.4,242207.4 3972.7,357359.2 -23822.1,103233.6 -182645.2,166768.5 -270002.2,99275 -123097.1,-95302.5 -135001.2,-277947.7 -273975,-365304.7 -31767.4,-19849.4 -79411.6,-19849.4 -119124.3,-27794.7 -19849.4,0 -63521,-19849.4 -39698.9,-43671.5 11904,-11918 43671.4,0 63520.9,-7945.3 z m 317660.4,-933103.8 c 3004.1,-10991.6 4969.3,-22151.7 6260.9,-33325.7 8998.2,-77727.1 -15638.1,-158809.1 29465.2,-224758.6 19863.4,-27794.6 79425.6,-31767.4 115151.7,-27794.6 19863.5,3958.6 35740.2,43671.5 35740.2,63520.7 11918,135001.2 75438.9,289865.7 -7945.4,385154 -83384.4,99275.1 -281906.3,55589.6 -424852.8,19849.5 -47644.1,-11904.2 -59562.1,-103233.7 -23822,-119110.5 87342.9,-35740.1 182645.2,-71480.1 270002.2,-119124.4 l 0,55589.6 z m 111179.1,-496333 c 59562.2,-59548.2 -35740.2,-99261.1 -3972.7,-127055.8 83384.3,-67507.6 158823.2,135001.1 115151.7,198536.1 -67507.5,99260.9 -214412.7,55589.4 -329564.5,43671.3 -35740,-3972.6 -63534.9,-67493.5 -27794.7,-79411.5 75438.9,-27794.8 162795.8,-3972.7 246180.2,-11918.1 0,0 -3972.7,-19849.4 0,-23822 z"
       id="path29"
       style="fill:#0077b9"
       inkscape:connector-curvature="0" />
    <path
       d="m 6142486,13794762 379,197 42,0 c 2470.7,1235 5081.7,2666 7650.6,4210 2288.1,1362 4871,3019 7552.3,4802 14823.9,9967 27822.8,23948 27822.8,30967 l -27.9,0 56,2162 0,111 c 800.2,35447 -8212.1,72829 -17154.1,110001 -17687.6,73543 -35234.8,146414 34378.4,189622 l 337,224 c 41102.5,27402 95105.8,23542 145122.3,19963 17154.2,-1236 33915.2,-2443 49721.7,-2443 l 182.6,0 0,41 c 39361.8,-13 81910.3,-9208 121960,-26727 9714.1,-4254 19358,-9054 28791.4,-14360 48065.3,-26981 89925.9,-66806 114520,-117847 l 24973.2,12044 c -27233.2,56544 -73249,100425 -125918.6,130003 -10135.4,5686 -20607.5,10908 -31290.2,15583 -43474.9,19021 -89897.9,28973 -133035.8,29015 l 0,43 -182.6,0 c -15132.7,0 -31262.1,1151 -47742.4,2344 -54452.4,3888 -113200.5,8099 -162094,-24313 -86556.8,-53724 -66693.3,-136293 -46633.5,-219593 8506.9,-35348 17070,-70919 16368.1,-102967 l -84.2,-2527 -42.1,-379 c 0,-1361 -7215.4,-2428 -15441.5,-7960 -1853.1,-1207 -3958.6,-2554 -6246.9,-3916 l -56.1,-41 c -1993.4,-1195 -4028.8,-2331 -5952,-3300 l 14,-14 -350.9,-182 12381.4,-24763 z m -734848.7,-83398 c 744.1,19681 3523.5,38673 8240.2,56220 7748.8,28835 20818,53400 38954.8,70217 17477,16215 40119.9,25396 67704.1,24342 9433.4,-365 19582.7,-1965 30462,-4885 l 715.8,-154 364.9,-71 0,-13 c 7201.5,-1559 14444.9,-3706 21590.1,-6318 7327.8,-2695 14571.3,-5895 21548,-9489 35501.5,-18389 66483,-48107 76941,-81110 l 379.1,-1489 28,0 c 3298.8,-13603 5755.5,-28819 8268.2,-44359 9517.7,-58762 19779.3,-121904 78920.3,-146259 l 547.5,-196 c 51181.7,-18601 91498,7552 133667.6,34967 35164.5,22854 71901.3,46732 115067.4,39811 l 4337.6,27361 c -53680.4,8590 -94965.4,-18237 -134509.7,-43938 -36105.1,-23486 -70624,-45905 -108708.4,-32301 -44682.2,18514 -53666.3,73613 -61962.7,124907 -2597,16101 -5165.9,31908 -8745.5,46620 l 0,98 -379,1502 -210.6,702 c -12535.7,40738 -49202.3,76716 -90950.6,98321 -8113.8,4182 -16410.2,7875 -24664.5,10893 -8408.5,3073 -16915.4,5601 -25281.8,7411 l -42.1,0 c -12662.1,3370 -24818.9,5251 -36414,5686 -35501.6,1347 -64770.2,-10613 -87553.5,-31740 -22109.4,-20524 -37817.8,-49623 -46900.1,-83355 -5208.1,-19373 -8282.3,-40486 -9110.6,-62413 l 27696.5,-968 z m 477943.6,63997 -112.3,155 -210.5,379 c -3270.9,4380 -6359.2,8788 -9054.5,13055 -2905.8,4590 -5601,9238 -7931.3,13799 l 56.1,42 c -10949.4,21520 -15960.9,44248 -3411.2,58889 l 758.1,856 280.7,436 c 7805.1,11721 17645.5,22291 27317.6,32707 20088,21618 39895.3,42872 46029.8,74723 1123,4155 2105.6,8423 2919.8,12803 8099.8,42507 -1810.8,81152 -23751.9,111937 -21660.2,30405 -55098.2,52965 -94375.8,63661 -5151.8,1418 -10093.2,2555 -14753.7,3454 l -56.1,0 c -65359.9,12240 -127547.2,10220 -188091.9,-450 -60011.4,-10571 -118422.6,-29718 -176707.3,-51827 l -70834.6,-26868 75719.7,0 11918,0 0,3509 c 54494.6,20424 108989.2,38000 164691.1,47827 57540.7,10163 116485.2,12100 178139.1,561 l 0,-13 c 4632.5,-885 8914,-1868 12704.2,-2893 33073,-9012 61120.3,-27794 79074.7,-53035 17687.5,-24803 25646.9,-56165 19063.2,-90768 -631.8,-3396 -1502,-7019 -2526.8,-10808 l -210.5,-1138 c -4422,-24355 -21716.4,-42928 -39235.6,-61794 -10612.5,-11413 -21393.6,-22994 -30181.1,-36175 -20396.9,-25100 -14515.1,-58145 757.9,-88199 l 56.2,0 c 2835.6,-5559 5923.9,-10922 9138.6,-15989 3425.2,-5404 6878.6,-10402 10233.5,-14894 l 6218.8,4632 16368,11426 z m 252019.9,-117004 c 32413.1,3074 64503.4,-10471 95667.3,-23639 46478.9,-19653 91259.4,-38562 140110.8,-10402 55631.7,31149 70146.7,79875 64082.4,131799 -4464,38156 -20382.8,77826 -38856.6,112907 11679.4,-2499 23344.8,-4549 34996.2,-6612 42899.5,-7636 85377.6,-15174 114253.3,-41650 l 210.6,-210 c 11398.6,-9967 23022,-18292 34420.7,-26462 l -28.2,-14 c 20439,-14642 40316.5,-28889 54550.8,-50227 l 23007.8,15414 c -17098,25661 -38926.7,41299 -61387.1,57385 l -42.1,0 c -10893.4,7792 -21983.2,15751 -32286.8,24749 l -14.1,-13 c -34911.9,31824 -81166.4,40064 -127912,48387 -21337.4,3776 -42843.2,7595 -62201.3,13505 l 14,28 -1488,462 -34757.5,10852 18726.3,-31192 c 23008,-38364 46043.9,-86178 51209.8,-130452 4829,-41356 -6471.4,-80044 -50072.7,-104470 l -168.4,-97 c -36989.5,-21408 -75551.3,-5110 -115615.1,11833 -34322.2,14487 -69683.3,29452 -109017.1,25690 l 2597,-27571 z"
       id="path31"
       style="fill:#0077b9;fill-rule:nonzero"
       inkscape:connector-curvature="0" />
    <path
       d="m 8177609.9,13760973 280.7,646 m 688664.4,69964 13.9,-56 M 7746019,13599413 c 12226.9,-3272 24243.2,-5798 35880.5,-7539 15862.6,-2358 31486.7,-3383 46675.6,-3159 78246.4,1208 143199.1,36077 188541,90460 l -10050.9,8353 c 12844.5,98 25871.5,1418 38659.9,3621 34504.8,5966 67816.5,18783 92115.8,33101 -1123,-9756 -870.3,-19092 912.5,-28019 4744.7,-23752 19779.1,-43770 47251.1,-59814 52416.9,-33692 111459.7,-36541 161279.8,-16453 9742.2,3930 19147.4,8759 28061.4,14389 8970.2,5643 17463,12114 25268,19274 l 407,365 435.3,379 c 11875.8,11875 28117.6,30279 41004.2,50592 l -28,13 c 2611,4114 5053.6,8227 7215.4,12241 l 28.1,-14 c 2260.1,4170 4379.7,8451 6232.7,12760 l 0,71 84.2,211 70.2,112 c 10738.9,25787 13967.6,50521 13434.2,73586 -42.2,2190 -182.5,4309 -294.8,6471 14444.9,1909 29198.6,5686 43264.4,9237 l 56.2,0 c 25843.4,6570 49090,12452 53666.2,4422 l 126.3,-210 14.1,14 c 10135.3,-17871 14150.1,-42788 18178.9,-67902 8212.1,-51069 16592.7,-102995 72771.7,-120850 34055.6,-11707 69753.8,-12171 102840.6,-3917 29437.3,7342 56937.3,21717 79481.8,41299 22741.3,19737 40527.1,44795 50381.5,73389 9658,28020 11735.6,59379 3481.5,92411 l -42.1,168 c -14459,54242 -58663.9,75328 -99794.4,94938 -9040.3,4309 -17968.5,8535 -25380.4,12521 l -182.4,127 -56.1,29 -112.4,83 c -14557.1,9840 -29535.4,18587 -44738.3,25984 -15343.3,7482 -31360.4,13841 -47854.7,18909 -82570.1,25324 -173801.5,16298 -258982.6,-45917 -32483.5,38125 -76197,65303 -124880,84367 -75172.1,29451 -162220.2,39614 -236999.4,41636 l -659.8,-27711 c 72112,-1937 155861.2,-11651 227566.1,-39742 69655.3,-27302 127968.2,-72112 152422,-144420 3776.2,-17055 7566.3,-35964 8029.6,-55869 449.1,-19584 -2302.2,-40598 -11384.6,-62413 l 13.9,0 -28,-70 -14,14 c -1474,-3440 -3214.7,-6962 -5123.9,-10486 l 0,-56 c -1965.2,-3679 -4070.9,-7201 -6204.6,-10556 l -56.1,0 c -11539.1,-18193 -26334.9,-34927 -37214.2,-45806 l 14.1,-14 c -6639.9,-6093 -13771.1,-11553 -21211,-16228 -7482.2,-4716 -15427.5,-8788 -23625.5,-12100 -42043.2,-16958 -91975.5,-14459 -136320.7,14248 l -603.7,365 c -20045.9,11693 -30869,25521 -34027.5,41370 -3312.9,16578 1137.1,36442 11595.2,59295 l 336.9,758 -25254,11525 -42,-112 0,-13 -252.7,-577 c -3425.3,-6822 -13364,-15244 -27472,-23695 -21786.6,-13069 -52178.3,-24875 -83861.6,-30350 -30981.2,-5348 -62973.3,-4604 -88620.2,7033 l -14.2,-14 c -14978.2,6837 -27949.1,17561 -37298.2,33143 l -7285.6,12129 -11946.1,-7454 c -11103.9,-6935 -20509.3,-15317 -29956.6,-23725 -17378.9,-15496 -35136.5,-31317 -62748.8,-33746 -25590.9,-210 -29479.3,-11048 -34785.6,-26181 l -28,0 c -1867.1,-5334 -4141.3,-11720 -9980.9,-17576 -11412.7,-11412 -18122.8,-21898 -23976.6,-31106 -8927.9,-13995 -15441.5,-24174 -43699.4,-28511 l -3088.3,-478 -2554.9,-1698 -280.8,-182 28.2,-29 -9826.5,-6414 -14.1,13 -10331.7,-6456 c -16985.7,-10416 -33283.6,-19668 -44134.8,-25143 -36666.5,-11553 -77067.3,-23078 -115179.8,-24018 -36666.7,-899 -71873.2,8043 -100524.4,36681 -42183.4,42183 -52220.4,97968 -47096.6,156745 5320.3,60924 26854.3,125525 46436.8,182293 l -26264.6,9013 c -20116.1,-58368 -42295.7,-124851 -47868.8,-188934 -5783.5,-66285 6036.4,-129680 55140.4,-178784 34869.7,-34885 77109.4,-45792 120837.1,-44711 42057,1010 84858.2,13238 123462,25422 l 814.2,239 1207.2,617 c 11932.1,5966 29914.5,15975 47700.3,26911 l 70.2,56 10387.9,6500 224.7,168 7889.2,5152 c 26377,4464 38884.6,12789 48261.8,23949 z m 720151,238557 c -1558.2,9714 -3481.4,18979 -5432.6,27753 l -126.3,561 -266.7,800 c -6878.5,20636 -16157.5,39236 -27345.6,56012 77193.6,56193 159637.3,64362 234177.9,41481 14753.6,-4506 29437.2,-10388 43811.9,-17394 14458.8,-7046 28370.2,-15132 41537.7,-24046 l 168.4,-112 603.6,-380 968.6,-602 c 9349.2,-5082 18333.3,-9392 27415.8,-13701 35529.5,-16930 73712.2,-35165 84886.2,-76815 6850.5,-27444 5137.9,-53470 -2849.6,-76619 -8226.1,-23878 -23148.3,-44893 -42253.6,-61456 -19259.8,-16719 -42815.1,-29031 -68069.1,-35333 -28131.7,-7019 -58411.1,-6613 -87272.8,3341 l -322.9,97 c -40063.7,12649 -47068.5,56081 -53933,98771 -4449.9,27668 -8885.9,55126 -21449.7,77277 l 0,42 -126.3,225 c -15048.5,26321 -47995.2,17995 -84619.6,8703 l 0,-14 c -13097.3,-3313 -26840.3,-6836 -39502.3,-8591 z m -922168.3,-4393 c 2147.7,-21647 -5559,-44809 -13504.4,-68814 -5404.6,-16256 -10949.5,-32904 -14136.1,-50479 l -2428.5,-13407 13335.9,-2653 c 22797.3,-4549 37003.5,-4351 50339.5,1375 l 70.1,0 c 12886.7,5533 22586.8,15204 37593,30210 l 196.7,281 336.8,351 56.3,42 c 20888,22222 51237.8,38547 80969.7,54522 48318,25971 95274.2,51225 108638.2,102000 l -26826.1,7061 c -10303.8,-39151 -52009.9,-61556 -94937.5,-84635 -31739.3,-17056 -64110.4,-34477 -88044.7,-59941 l 14,-14 -42.1,-27 -28.1,27 c -12760.3,-12747 -20986.5,-20972 -28903.7,-24370 l 14,-28 c -5123.9,-2174 -11230.2,-2821 -19989.8,-1880 2821.7,11089 6457.4,22109 10037.1,32876 8914,26896 17547.2,52824 14809.7,80226 l -27570,-2723 z m -169506,294020 c 48458.4,-17098 87048.1,-49932 126157.3,-83229 13813.1,-11751 27724.6,-23584 40611.2,-33719 l 280.8,-154 126.3,-100 42.1,-56 c 2540.9,-1880 5966.1,-4099 9994.9,-6429 3790.3,-2189 8141.9,-4463 12676.2,-6583 26208.4,-12256 63001.4,-21098 79650.1,-280 14866.1,18599 32680,25464 50283.4,32202 l 14,-42 c 17757.7,6808 35389.1,13601 51967.7,30167 l -19666.8,19667 c -12493.7,-12494 -27275.4,-18179 -42169.5,-23878 l 0,-71 c -21112.7,-8100 -42492.3,-16340 -62032.9,-40780 -6120.3,-7636 -29001.9,0 -46324.5,8100 -3930.6,1839 -7566.4,3734 -10612.6,5476 -2737.3,1572 -5137.8,3143 -7075.1,4575 l 14.1,15 c -14599.3,11468 -27289.3,22277 -39867.2,32959 -41158.6,35053 -81755.9,69587 -134846.7,88327 l -9222.8,-26167 z m 613815,-439298 c -39853.2,-43446 -94726.8,-70876 -160044.5,-71887 -13504.2,-196 -27682.4,759 -42366,2948 -7636.4,1137 -15371.2,2583 -23176.3,4394 3930.6,5797 8717.5,12073 15343.3,18712 10219.5,10220 13644.7,19920 16494.3,28005 l 0,44 c 1544.2,4406 2667.2,7593 9405.4,7593 l 1137.1,42 c 37017.5,3075 58368.9,22096 79285.2,40738 5137.7,4561 10275.6,9068 15525.7,13209 11356.5,-14290 25366.3,-24635 41074.5,-31795 l 42.2,-56 c 14627.3,-6654 30658.4,-10430 47279.1,-11947 z"
       id="path33"
       style="fill:#0077b9;fill-rule:nonzero"
       inkscape:connector-curvature="0" />
    <path
       d="m 10637250,13588295 379,182 42,0 c 2471,1235 5095,2695 7651,4226 2301,1362 4871,3017 7552,4800 14837,9953 27822,23949 27822,30968 l -27,0 55,2162 0,97 c 801,35460 -8198,72842 -17140,110014 -17701,73530 -35234,146415 34364,189622 l 380,282 c 40738,27162 92172,23526 142441,19960 17702,-1249 35306,-2497 52360,-2497 l 198,0 0,42 c 39249,-15 81728,-9784 121525,-27809 9770,-4422 19371,-9336 28566,-14655 47546,-27459 88452,-67214 111081,-116275 l 25198,11637 c -25169,54551 -70190,98488 -122368,128628 -10162,5854 -20578,11202 -31065,15960 -43222,19569 -89701,30182 -132937,30210 l 0,56 -198,0 c -16438,0 -33368,1193 -50381,2400 -54762,3875 -110757,7847 -159441,-24397 l -13,28 c -86558,-53722 -66694,-136292 -46633,-219606 8507,-35348 17069,-70905 16367,-102953 l -84,-2527 -43,-379 c 0,-1362 -7200,-2443 -15441,-7960 -1852,-1221 -3958,-2568 -6247,-3930 l -55,-42 c -1980,-1179 -4030,-2331 -5953,-3299 l 15,-14 -351,-169 12381,-24762 z m -1009511.7,93885 c 15301.1,1389 28398.4,2793 41313.2,4168 70792.4,7552 140040.9,14950 227608.4,-7679 l 0,-27 449,-113 c 7384.2,-2134 14809.3,-4675 22052.9,-7608 7285.6,-2934 14599.6,-6330 21730.9,-10079 35332.3,-18670 65598.3,-46507 73108.3,-79144 l 225,-815 c 4731,-16088 8170,-33972 11582,-51799 11117,-58019 22276,-116051 79832,-139760 l 70,0 c 51926,-21240 92663,5769 135409,34126 34813,23106 71227,47250 113803,40456 l 4338,27360 c -53287,8520 -94291,-18671 -133471,-44683 -36499,-24214 -71299,-47293 -109621,-31641 l 14,15 c -43657,17982 -53399,68672 -63113,119349 -3468,18220 -7019,36511 -12143,54031 -9701,41214 -45552.7,75088 -87119.1,97043 -7902.9,4182 -16086.5,7959 -24326.8,11272 -8324.1,3355 -16649.2,6247 -24777.2,8577 l -434.4,127 -337.7,56 c -92662.7,24004 -164437.9,16354 -237813.2,8521 -14220.2,-1516 -28510.7,-3046 -40878,-4170 l 2498.7,-27583 z m 601447.7,-85112 c -11188,14923 -22376,31614 -27724,47658 -4563,13730 -4774,27262 3762,38787 l 27,-29 324,422 -28,14 c 8086,10317 17701,20074 27107,29620 22572,22867 44246,44850 50592,78667 l 14,0 c 575,2598 1122,5208 1572,7734 l 0,57 c 8100,44528 -1868,85110 -24917,117088 -22840,31712 -58495,54819 -101914,64673 l 0,14 -71,0 c -2568,603 -5488,1180 -8731,1769 l 0,28 c -65345,12240 -127533,10233 -188092.8,-450 -60010.9,-10570 -118421.4,-29717 -176706.1,-51827 l -70849,-26868 75733.4,0 15890.9,0 0,5040 c 53147.4,19792 106392.5,36722 160704.2,46296 57583.4,10164 116527.4,12100 178223.4,548 l 99,0 c 2217,-393 4786,-941 7608,-1573 l 56,0 c 36722,-8338 66652,-27542 85574,-53807 18727,-25997 26798,-59281 20144,-95990 l -13,0 c -394,-2203 -856,-4464 -1363,-6668 l -112,-603 c -4646,-25633 -23541,-44767 -43207,-64687 -9841,-9980 -19906,-20185 -29185,-32048 l -42,0 -322,-421 -114,-210 c -15132,-20186 -15315,-42365 -8015,-64264 6541,-19654 19232,-38759 31837,-55577 l 22138,16607 z m 403824,-149109 c 32947,4704 65599,-8549 97282,-21421 45678,-18545 89758,-36415 137851,-8690 l 0,-14 c 55632,31164 70161,79889 64083,131815 -4466,38140 -20453,77825 -38914,112891 11665,-2485 23401,-4549 35053,-6611 42913,-7623 85377,-15175 114253,-41636 l 224,-226 c 11386,-9951 23009,-18291 34407,-26445 l -14,-15 c 20424,-14656 40317,-28890 54536,-50227 l 23009,15413 c -17099,25647 -38927,41299 -61388,57387 l -42,0 c -10879,7776 -21982,15735 -32286,24748 l -14,-14 c -34913,31837 -81153,40064 -127913,48374 -21337,3790 -42843,7594 -62201,13505 l 29,42 -1503,463 -34771,10852 18740,-31207 c 23008,-38364 46044,-86164 51210,-130452 4857,-41356 -6486,-80058 -50060,-104455 l -181,-112 c -36358,-21043 -74330,-5630 -113692,10345 -35080,14248 -71256,28932 -111600,23177 l 3902,-27487 z"
       id="path35"
       style="fill:#ffffff;fill-rule:nonzero"
       inkscape:connector-curvature="0" />
    <path
       d="m 7993701.2,12442308 -505.4,-182 -112.4,0 c -11988.1,-4590 -24495.7,-10121 -37087.6,-16467 -12521.7,-6316 -25043.4,-13391 -37073.7,-21098 -64138.6,-41117 -117454,-101690 -104763.8,-168369 l 112.3,-547 c 2919.8,-12690 8675.3,-22166 16339.9,-28834 7341.8,-6429 16171.6,-10065 25703.2,-11427 8759.5,-1236 18150.8,-561 27513.9,1587 22923.7,5306 46900.3,19891 61429.2,36413 l 603.8,660 c 22656.9,24692 46928.1,45469 72280.4,62538 25422.4,17098 52080,30673 79481.8,40906 141598.8,52964 304478.9,18965 429611.5,-58915 l 15371.3,23077 -715.9,504 -42.2,29 c -26418.9,18924 -52697.7,41524 -70273,67424 -16845.2,24833 -25773.2,53104 -18782.5,84534 l -27050.7,5968 c -8871.9,-39966 2049.4,-75313 22923.7,-106043 1487.9,-2189 3004,-4380 4576.2,-6527 -115025.4,47476 -246868,60194 -365276.4,15905 -29423.2,-11006 -58018.1,-25549 -85237.3,-43854 -27289.4,-18362 -53217.1,-40527 -77277.9,-66763 l -56.1,-56 -645.8,-731 -182.5,-210 c -10977.5,-12564 -29338.9,-23766 -46928.2,-27809 -6162.5,-1431 -12156.6,-1896 -17406.8,-1166 -4464.1,633 -8394.6,2176 -11398.6,4803 -3327.1,2905 -5952.1,7481 -7482.2,14036 -9798.3,52951 36849.1,103824 92550.9,139508 11300.4,7243 22965.8,13869 34561,19695 11511,5798 23162.4,10935 34504.8,15273 l -14,28 407.1,169 -9658,25941 z m -616468.2,28244 c -2049.5,-18529 -4113.1,-40246 -1979.3,-60489 2358.4,-22460 9854.6,-42885 27584.2,-55547 10500.3,-8367 23204.4,-17126 35894.5,-25914 12577.9,-8703 25225.9,-17477 34406.6,-24762 l -14,-14 c 11875.9,-10556 13265.7,-31865 14697.5,-53961 2161.8,-33860 4478,-69291 38870.6,-90459 l 14,42 c 23035.9,-15119 51967.8,-16201 80029.3,-17253 19414.1,-701 38449.4,-1460 51827.4,-7090 18263.1,-10836 33480,-29127 48697,-47446 22628.8,-27219 45370,-54593 80997.8,-64771 l 154.4,0 336.9,-84 70.2,-70 c 6710,-1797 13771.1,-3046 21042.6,-3733 7075,-676 14206.2,-816 21239.2,-507 l 70.2,0 c 35838.3,1699 72785.7,15512 102994.9,33649 l 337,211 c 70371.2,44962 147494.7,86009 225656.9,105423 76730.4,19064 154780.3,17252 228675.2,-22474 21112.7,-12046 40161.9,-26743 58902.4,-41216 30335.6,-23373 60025.4,-46296 98362.5,-59070 l 701.9,-211 c 22685.1,-6177 45440.2,-11357 67184.6,-12915 22853.6,-1628 44935,660 65149.3,9644 l 968.7,435 c 53792.6,28975 67970.8,79047 83468.5,133864 l 2723.3,9602 112.3,393 c 4520.1,18108 21758.5,29114 44050.5,35712 25183.7,7454 56684.4,9335 85433.8,9335 l 0,27795 c -30784.8,0 -64840.5,-2105 -93252.9,-10528 -31248,-9264 -55771.9,-26096 -63141.7,-55561 l -2625.2,-9237 c -13813.1,-48851 -26461.1,-93478 -69781.7,-116878 -15301.1,-6585 -32679.8,-8185 -51125.5,-6879 -19821.3,1403 -40667.3,6149 -61499.4,11806 -33578.3,11258 -61387.2,32735 -89785.5,54607 -19582.6,15119 -39516.2,30490 -62243.4,43475 l -280.8,154 c -80857.4,43531 -165603.4,45693 -248622.8,25071 -81489.1,-20242 -161139.3,-62538 -233588.2,-108778 l 0,14 c -26756,-16059 -59141.1,-28286 -90094.4,-29732 l 0,-28 c -5923.8,-254 -11763.6,-141 -17392.7,393 -5460.7,519 -10991.6,1515 -16480.3,2990 l -14.1,-43 -126.3,29 13.9,42 c -27485.8,7847 -47447.5,31879 -67296.9,55757 -16957.5,20425 -33943.3,40852 -56600.2,54061 l -365,210 -996.7,449 c -18403.4,8171 -40386.6,8998 -62889.2,9840 -24369.6,898 -49539.2,1839 -66033.6,12845 l -435.1,323 c -22165.7,13645 -24004.6,41706 -25717.3,68533 -1810.8,27907 -3551.5,54817 -23948.4,72940 l -603.5,448 c -10612.6,8480 -23569.5,17478 -36484.2,26392 -12858.6,8914 -25773.3,17855 -34982.1,25225 l -589.5,478 c -10037.1,7173 -14501,20565 -16087.2,35782 -1825,17463 70.1,37466 1979.2,54649 l -27570.2,3032 z m 1362266.3,-287970 -14.1,-43 m 97716.8,220618 c -24187,-5587 -45285.8,-16509 -65696.7,-27094 -23794,-12324 -46647.5,-24158 -70174.7,-24158 l 0,-42 c -40190.2,0 -62987.5,43798 -83721.2,83665 l -56.2,0 c -5222,10023 -10373.9,19920 -15413.4,28553 l -23976.6,-13912 c 5109.7,-8787 9938.8,-18038 14837.9,-27443 l -27.9,-15 c 24425.5,-46970 51265.7,-98544 108357.4,-98544 l 0,-57 c 30139,0 55982.5,13378 82864.9,27318 18866.7,9784 38365.1,19864 59197.1,24678 l -6190.6,27051 z m -1310747.5,52473 c 23737.8,-6331 37186,-26713 50577.9,-47068 17477.1,-26560 34996.2,-53148 73501.8,-60363 l 154.4,-42 533.5,-99 56.1,0 c 10051,-1726 20354.7,-2666 30658.5,-2765 10401.9,-99 20593.3,618 30335.6,2106 l 0,70 c 51757.1,8002 98306.4,37972 120289.5,88241 l -25422.4,11076 c -17870.1,-40863 -56249.2,-65346 -99078.5,-71957 l -14.1,56 c -8675.3,-1334 -17378.7,-1965 -25885.6,-1895 -8563,84 -17350.7,898 -26152.3,2414 l 0,15 -533.4,97 0,-14 c -26868.3,5110 -41130.7,26701 -55308.9,48248 -16339.9,24819 -32708,49666 -66637.1,58706 l -7075,-26826 z"
       id="path37"
       style="fill:#0077b9;fill-rule:nonzero"
       inkscape:connector-curvature="0" />
    <path
       d="m 9993646.9,12443010 c -61794.8,-9644 -122886.7,-6710 -183095.2,3973 -60628.8,10752 -120457.6,29395 -179275.8,50957 l -9573.7,-26040 c 60264,-22082 121637.1,-41186 184062.7,-52277 62819.5,-11131 126859.3,-14164 192107.4,-3972 l -4225.4,27359 z m -366020.8,-83118 1137,98 c 5853.8,422 11890,394 17884.1,-98 6078.4,-477 12086.6,-1418 17856,-2751 29282.8,-6682 55014,-23232 64489.6,-44584 l 266.6,-589 c 5137.8,-10290 6513.6,-19106 5067.7,-26391 -1586.3,-7890 -6752.2,-14600 -14150.1,-19836 -8464.8,-6008 -19779.2,-10191 -32286.8,-12409 -23555.4,-4183 -50465.8,-1292 -70764.4,9532 l -13041,-24413 c 25913.6,-13812 59562.1,-17630 88592.2,-12478 16354,2891 31613.1,8702 43573.2,17195 13027.1,9238 22277.9,21633 25338.2,36976 2554.9,12872 603.6,27528 -7313.7,43616 l 14.1,0 -98.4,182 -168.3,408 -14.1,-15 c -13321.8,29282 -46366.7,51406 -83314.2,59857 -7215.4,1656 -14599.2,2808 -21898.7,3411 -7355.9,590 -14838,632 -22207.8,85 l -112.3,0 -1123.1,-85 2274.2,-27711 z m 626448.9,166179 -786,-224 0,-14 c -15877,-4422 -32723,-8592 -49539,-12789 -86880,-21533 -174194,-43236 -223453.7,-123588 -3241.9,-4787 -6443.1,-9812 -9489.1,-15062 l -13.9,14 c -26209.1,-44949 -41187.2,-101451 -38871,-154023 407,-9363 1418.3,-18530 2947.9,-27584 -6905.9,-1670 -14051.9,-3608 -21225.2,-5741 l -69.3,0 c -12887.4,-3847 -26055,-8479 -38983.4,-13898 l -56.5,0 c -61246.2,-25702 -117453.6,-69220 -125946.4,-134482 -12016.3,5939 -24369.5,11610 -36905.3,17294 -58804.1,26687 -121524.8,55156 -143648.3,116024 l -26040.1,-9449 c 26138.3,-71887 94333.7,-102853 158275.7,-131870 19133.5,-8660 37916,-17196 54199.9,-26236 l 280.7,-154 21575.8,-11989 -982,24636 c -2541.7,63352 50999.1,105859 109943.6,130593 l -14.7,14 c 11932.8,5026 24201.3,9322 36245.4,12915 l 0,15 c 6640.4,1978 13322.7,3790 19891.8,5361 10275.8,-32202 29113.8,-60460 58354.9,-80394 2793.2,-1909 5784.2,-3790 8886.2,-5601 l 687,-407 562,-253 520,-225 c 6611,-2975 13854,-5712 21450,-8086 l 56,0 c 7622,-2357 15610,-4364 23653,-5881 42998,-8029 92523,-3284 124725,28918 l 155,155 -27,42 c 9868,9378 19246,19976 27822,31473 8577,11524 16410,24060 23232,37214 35389,68181 44149,154288 -2092,218989 l -22572,-16074 c 39446,-55196 31178,-130200 29,-190225 -6121,-11792 -13154,-23037 -20861,-33397 -7623,-10247 -16003,-19723 -24875,-28089 l -323,-266 -154,-155 c -24678,-24664 -64686,-27907 -99963,-21324 -7160,1349 -14093,3089 -20551,5082 l 0,15 c -6472,2021 -12649,4351 -18291,6891 l -141,71 c -2106,1263 -4211,2624 -6302,4043 -36863.9,25141 -53737.8,67396 -55772.5,113228 -2078.4,47294 11469.1,98209 35150.1,138820 l 0,42 c 2652.2,4548 5489.4,9068 8478.4,13435 l 379,589 c 43278,71115 125231,91457 206748,111670 16678,4141 33368,8296 50354,13013 l 70,0 773,225 -7497,26699 z m -163638,-299326 c 10599,14824 19148,28763 24565,43405 l 0,41 c 5687,15415 7988,31444 5729,49652 l -27585,-3369 c 1699,-13519 0,-25352 -4168,-36667 l -15,0 c -4506,-12129 -11875,-24089 -21099,-37004 l 22573,-16058 z"
       id="path39"
       style="fill:#ffffff;fill-rule:nonzero"
       inkscape:connector-curvature="0" />
    <path
       d="m 6481287.2,12498726 c 64643.8,-11792 128178.8,-8718 191067.9,2850 63015.5,11580 125188.7,31641 187235.6,53652 l -9222.8,26166 c -61008.1,-21660 -121988.1,-41342 -183024.2,-52556 -60474.8,-11119 -121370.5,-14039 -183052.4,-2485 l -4801,-25634 c -53104.8,57864 -129512.2,76843 -205274.1,95598 -16985.7,4224 -33999.5,8437 -50002.5,12900 l 0,15 -786.1,225 -7496.1,-26701 786,-224 56.2,0 c 17112,-4774 33971.4,-8957 50816.7,-13126 81615.6,-20229 164031.2,-40668 210482.1,-111882 l 14.1,15 c 2218,-3495 4520.1,-7398 6878.4,-11623 22937.9,-40948 36989.6,-92734 34926,-140770 -2021.4,-46367 -19315.9,-89127 -58677.8,-114156 l -42.2,-56 c -1923.1,-1235 -3986.7,-2471 -6064.3,-3622 l -322.9,-196 -786,-477 -154.4,-99 c -4941.3,-2849 -10458.1,-5390 -16311.9,-7482 -5938,-2120 -12563.8,-3917 -19624.8,-5263 -34855.8,-6697 -76351.4,-1517 -101043.8,23161 l -140.4,141 -28.1,-29 c -8408.6,8423 -16438.1,17941 -23821.9,28217 -7426.2,10331 -14346.8,21646 -20481.2,33564 -30869,60067 -41088.6,135128 -1712.5,190239 l -22572.8,16074 c -46296.6,-64785 -35361.1,-150863 -351,-219003 6710.1,-13028 14332.6,-25507 22642.9,-37032 8338.5,-11608 17308.7,-22264 26657.7,-31628 l 0,-69 140.5,-141 c 31879.7,-31865 83342.1,-38941 125918.6,-30756 8099.8,1544 16143.4,3748 23765.9,6486 7664.6,2736 14795.9,5993 21028.7,9643 l 154.3,98 617.7,351 c 2512.7,1390 5025.4,2878 7411.9,4423 30377.6,19329 49946.4,46829 60853.8,78302 6387.1,-1292 12956.8,-2836 19470.3,-4577 12114.5,-3214 24327.5,-7173 36077,-11848 58776.1,-23302 112203.8,-65724 109662.9,-129091 l -912.4,-23415 20930.3,10472 14,-14 c 13195.5,6234 27191.2,12227 41467.6,18319 70273,29985 147228.1,62876 172018.7,140800 l -26391,8352 c -20888.2,-65739 -91778.9,-96033 -156478.9,-123645 -8043.7,-3440 -16003.1,-6877 -23766,-10303 -7973.4,65920 -64587.6,109761 -126353.8,134257 -13125.3,5222 -26348.8,9531 -39207.4,12943 -6555.7,1754 -13055.2,3299 -19470.4,4631 1923.1,10206 3130.5,20636 3579.7,31249 2302,53245 -13181.6,110435 -38421.4,155524 -2344.3,4169 -4955.4,8550 -7805,13028 l -56.2,98 c -6190.6,9489 -12900.7,18151 -20017.8,26110 z m 373699.1,-27697 c -56417.7,0 -108862.7,-22361 -131365.4,-67015 l -27.9,13 c -8113.9,-15315 -10219.6,-29450 -7791.1,-41986 2835.7,-14656 11721.6,-26587 24299.5,-35558 11454.7,-8156 26110.1,-13841 41930.6,-16860 l 56.3,0 c 29661.7,-5629 64643.8,-2021 91329.6,12213 l -13041,24412 c -20972.4,-11174 -49033.9,-13940 -73122.7,-9377 l 0,14 c -12114.6,2316 -23022,6444 -31079.6,12170 -6934.7,4927 -11721.6,11091 -13097.2,18207 -1277.5,6556 112.2,14516 5053.5,23850 l 112.4,268 c 17280.4,34560 60067.5,51855 106743,51855 l 0,27794 z m -445979.5,-144027 c -8717.4,10459 -14866,21871 -18796.7,34112 -3958.5,12367 -5741.4,25871 -5741.4,40428 l -27794.6,0 c 0,-17196 2217.8,-33508 7159.1,-48906 4969.4,-15527 12788.5,-30014 23878.3,-43322 l 21295.3,17688 z"
       id="path41"
       style="fill:#0077b9;fill-rule:nonzero"
       inkscape:connector-curvature="0" />
    <g
       id="_46912696"
       transform="matrix(1.4037758,0,0,1.4037758,-86432.361,-97536.849)">
      <path
         id="_46918952"
         d="m 4353650,9084930 0,-636430 0,-25450 25460,0 492170,0 0,50910 -466710,0 0,610970 -50920,0 z m -118800,79190 0,-845730 0,-25460 25460,0 707140,0 0,50920 -681680,0 0,820270 -50920,0 z"
         style="fill:#0077b9;fill-rule:nonzero"
         inkscape:connector-curvature="0" />
      <path
         id="_46917864"
         d="m 3694600,10272900 0,-715620 0,-25450 25460,0 924930,0 0,50910 -899470,0 0,690160 -50920,0 z m -115970,79200 0,-922100 0,-25360 25460,0 1100300,0 0,50710 -1074840,0 0,896750 -50920,0 z"
         style="fill:#0077b9;fill-rule:nonzero"
         inkscape:connector-curvature="0" />
      <path
         id="_46916776"
         d="m 5100390,10253100 0,-794820 0,-25450 25450,0 1080510,0 0,50910 -1055050,0 0,769360 -50910,0 z m -118800,79200 0,-1001300 0,-25460 25460,0 1298300,0 0,50920 -1272850,0 0,975840 -50910,0 z"
         style="fill:#0077b9;fill-rule:nonzero"
         inkscape:connector-curvature="0" />
      <path
         id="_46915528"
         d="m 5188070,9084930 0,-636430 10,-25450 25450,0 1080500,0 0,50910 -1055040,0 0,610970 -50920,0 z m -115970,79190 0,-845730 0,-25360 25460,0 1295470,0 0,50720 -1270010,0 0,820370 -50920,0 z"
         style="fill:#0077b9;fill-rule:nonzero"
         inkscape:connector-curvature="0" />
      <path
         id="_46914736"
         d="m 6612240,9084930 0,-636430 0,-15550 15560,0 885340,0 15550,0 0,15550 0,636430 0,15550 -15550,0 -885340,0 -15560,0 0,-15550 z m 31120,-620870 0,605310 854220,0 0,-605310 -854220,0 z"
         style="fill:#ffffff;fill-rule:nonzero"
         inkscape:connector-curvature="0" />
      <path
         id="_25245768"
         d="m 6745240,10190900 0,-712800 -10,-15570 15510,20 1405790,0 15490,-20 10,15570 0,712800 -10,15550 -15490,0 -1405790,0 -15510,0 10,-15550 z m 31000,-697240 0,681680 1374790,0 0,-681680 -1374790,0 z"
         style="fill:#ffffff;fill-rule:nonzero"
         inkscape:connector-curvature="0" />
    </g>
  </g>
</svg>
